<svg width="185" height="190" viewBox="0 0 185 190" fill="none" xmlns="http://www.w3.org/2000/svg">
<mask id="mask0_1007_4636" style="mask-type:alpha" maskUnits="userSpaceOnUse" x="0" y="0" width="185" height="190">
<rect width="184.32" height="189.163" fill="#D9D9D9"/>
</mask>
<g mask="url(#mask0_1007_4636)">
<path d="M138.338 105.427C135.687 105.427 133.394 107.108 132.476 109.682C130.794 114.356 128.45 118.768 125.493 122.497C117.593 131.794 105.257 137.782 93.0752 137.782C80.893 137.782 68.7617 132.214 60.8611 122.497C57.7518 118.768 55.4071 114.409 53.7251 109.734C52.8076 107.161 50.5138 105.427 47.8633 105.427H39.3511C37.2612 105.427 35.783 107.476 36.3437 109.524C38.5355 118.033 42.3584 125.754 48.0162 132.687C59.0261 146.343 75.0312 153.539 93.0242 153.539C111.017 153.539 126.971 146.343 138.032 132.687C143.588 125.754 147.462 118.085 149.603 109.577C150.112 107.528 148.685 105.48 146.595 105.48H138.287L138.338 105.427ZM80.9439 48.9648C84.308 48.0194 88.5897 47.3366 92.8713 47.3366C97.1529 47.3366 101.638 48.0194 105.257 48.9648C118.561 52.5364 127.991 62.5158 132.425 75.384C133.292 77.9577 135.637 79.6909 138.287 79.6909H146.442C148.532 79.6909 150.011 77.6425 149.45 75.5416C144.149 55.4252 130.132 39.6157 109.692 33.628C103.83 31.9998 98.4272 31.5271 93.0242 31.5271C87.6212 31.5271 81.3517 31.9998 75.9487 33.628C55.3562 39.6157 41.7977 55.5302 36.4966 75.5416C35.9359 77.59 37.4141 79.6909 39.504 79.6909H47.9143C50.5648 79.6909 52.9095 77.9577 53.776 75.384C58.2106 62.5158 67.5894 52.5889 80.842 48.9648H80.9439Z" fill="black"/>
<path d="M162.855 92.559C162.855 96.1306 160.052 99.0194 156.586 99.0194H29.3095C25.8435 99.0194 23.04 96.1306 23.04 92.559C23.04 88.9874 25.8435 86.0987 29.3095 86.0987H156.586C160.052 86.0987 162.855 88.9874 162.855 92.559Z" fill="#FF3347"/>
</g>
</svg>
