<svg width="360" height="800" viewBox="0 0 360 800" fill="none" xmlns="http://www.w3.org/2000/svg">
<rect width="360" height="800" fill="white"/>
<path d="M0 98H0.0180054C2.38399 98.4185 258.716 144.262 204.597 369.452C187.16 427.363 185.761 421.548 168.372 451.465C164.422 458.276 160.658 466.75 161.61 475.727C162.91 487.894 171.846 493.991 179.652 497.125C199.227 504.974 219.829 507.649 238.352 520.061C256.875 532.473 273.644 558.327 273.336 589.184C273.121 611.551 264.072 632.323 264.725 654.661C265.388 676.828 275.661 696.006 287.774 708.284C300.829 721.519 316.509 728.628 332.19 728.428C341.416 728.312 350.874 725.79 360 726.386V798H0C0 564.667 0 331.333 0 98Z" fill="#FDEBEC"/>
</svg>
