<svg width="119" height="20" viewBox="0 0 119 20" fill="none" xmlns="http://www.w3.org/2000/svg">
<path d="M9.67001 19.4669L9.69656 19.4402C8.7873 19.8201 7.79176 20 6.8825 20C5.12371 20 3.0729 19.2337 2.07736 17.4077V18.7938C2.07736 19.4402 1.75215 19.8201 1.08182 19.8201C0.41149 19.8201 0 19.4402 0 18.7938V1.01458C0 -0.338192 2.13709 -0.338192 2.13709 1.01458V6.87214C3.01317 5.31279 4.91797 4.48646 6.8825 4.48646C11.2762 4.48646 14.2694 7.63182 14.3822 11.8101C14.4685 15.222 12.8557 18.1341 9.66338 19.4602L9.67001 19.4669ZM10.0815 16.848C11.6611 15.5219 12.2783 13.7559 12.2518 11.8434C12.2252 11.0771 12.046 10.284 11.8137 9.66431C10.9642 7.63182 8.88022 6.51895 6.80286 6.51895C4.13481 6.6389 2.14373 8.45814 2.14373 11.0504V13.3761C2.14373 16.2616 4.40029 17.9675 7.06834 17.9675C8.18334 17.8809 9.23861 17.5277 10.0881 16.848H10.0815Z" fill="white"/>
<path d="M21.1984 5.04622C22.1674 4.6064 23.2226 4.4598 24.331 4.48645C26.0035 4.51311 27.9083 5.04622 28.9636 6.77883V5.6593C28.9636 5.03955 29.3419 4.59974 30.0189 4.59974C30.6958 4.59974 31.1007 5.03955 31.1007 5.6593V18.7205C31.1007 19.3669 30.6626 19.7801 30.0189 19.7801C29.3751 19.7801 28.9636 19.3669 28.9636 18.7205V17.3078C28.1141 19.0137 25.9438 19.9867 24.2182 19.9867C22.8111 19.9867 21.2316 19.6068 19.9971 18.7205C17.7671 17.1878 16.6255 14.6889 16.7184 11.8034C16.7782 8.83131 18.4175 6.09911 21.2316 5.00624L21.205 5.03289L21.1984 5.04622ZM28.9636 13.3694V11.0437C28.9636 8.1316 26.9393 6.63223 24.3045 6.51228C22.2205 6.48562 20.1166 7.59849 19.2936 9.65763C19.0281 10.2774 18.8821 11.0704 18.8555 11.8367C18.7958 13.7493 19.413 15.5152 20.9926 16.8413C21.8687 17.521 22.924 17.8742 24.0124 17.9608C26.707 17.9608 28.8176 16.3149 28.9636 13.3694Z" fill="white"/>
<path d="M37.2598 7.10537C38.1956 5.13286 39.9544 4.60641 41.6269 4.60641C42.2972 4.60641 42.7419 4.9596 42.7419 5.63932C42.7419 6.31903 42.3038 6.6389 41.6269 6.6389C38.6071 6.6389 37.3195 9.05123 37.3195 12.0233V18.6739C37.3195 19.2936 36.8217 19.7001 36.2642 19.7001C35.6204 19.7001 35.1824 19.287 35.1824 18.6739V5.63265C35.1824 4.33986 37.2598 4.21991 37.2598 5.63265V7.10537Z" fill="white"/>
<path d="M46.7638 12.1366L54.091 4.85298C55.2326 3.82674 56.7259 5.26614 55.6175 6.3257L49.6111 12.1366L55.7104 18.0941C56.706 19.3003 54.9472 20.5331 54.0379 19.3603L46.7572 12.1366H46.7638Z" fill="white"/>
<path d="M46.7439 1.46772C46.7439 0.875184 46.2655 0.394836 45.6754 0.394836C45.0852 0.394836 44.6068 0.875184 44.6068 1.46772V18.7605C44.6068 19.3531 45.0852 19.8334 45.6754 19.8334C46.2655 19.8334 46.7439 19.3531 46.7439 18.7605V1.46772Z" fill="white"/>
<path d="M71.1811 13.8026C70.836 13.8026 70.5374 14.0158 70.4179 14.3424C70.1989 14.9354 69.8936 15.4952 69.5086 15.9683C68.4799 17.1478 66.8738 17.9075 65.2875 17.9075C63.7013 17.9075 62.1217 17.2012 61.093 15.9683C60.6881 15.4952 60.3828 14.9421 60.1638 14.349C60.0444 14.0225 59.7457 13.8026 59.4006 13.8026H58.2922C58.0201 13.8026 57.8276 14.0625 57.9006 14.3224C58.186 15.4019 58.6838 16.3815 59.4205 17.2611C60.8541 18.9937 62.9381 19.9067 65.2809 19.9067C67.6237 19.9067 69.7011 18.9937 71.1413 17.2611C71.8647 16.3815 72.3691 15.4086 72.6479 14.329C72.7143 14.0691 72.5284 13.8092 72.2563 13.8092H71.1745L71.1811 13.8026ZM63.7079 6.63889C64.146 6.51894 64.7035 6.43231 65.261 6.43231C65.8185 6.43231 66.4025 6.51894 66.8738 6.63889C68.606 7.09204 69.8338 8.35818 70.4112 9.99083C70.5241 10.3174 70.8294 10.5373 71.1745 10.5373H72.2364C72.5085 10.5373 72.701 10.2774 72.628 10.0108C71.9377 7.45855 70.1126 5.45272 67.4512 4.69304C66.6879 4.48646 65.9844 4.42648 65.2809 4.42648C64.5774 4.42648 63.761 4.48646 63.0575 4.69304C60.3762 5.45272 58.6108 7.47188 57.9205 10.0108C57.8475 10.2707 58.04 10.5373 58.3121 10.5373H59.4072C59.7523 10.5373 60.0576 10.3174 60.1705 9.99083C60.7479 8.35818 61.9691 7.0987 63.6947 6.63889H63.7079Z" fill="white"/>
<path d="M83.0015 4.48646C84.966 4.48646 86.8709 5.31279 87.7469 6.87214V1.01458C87.7469 -0.338192 89.884 -0.338192 89.884 1.01458V18.7872C89.884 19.4336 89.4725 19.8134 88.8022 19.8134C88.1319 19.8134 87.8067 19.4336 87.8067 18.7872V17.4011C86.8111 19.227 84.7603 19.9933 83.0015 19.9933C82.0923 19.9933 81.0967 19.8134 80.1875 19.4336L80.214 19.4602C77.0216 18.1341 75.4089 15.222 75.4951 11.8101C75.6146 7.63182 78.6012 4.48646 82.9949 4.48646H83.0015ZM87.7469 13.3694V11.0437C87.7469 8.45814 85.7558 6.63224 83.0878 6.51229C81.0104 6.51229 78.9264 7.63182 78.0769 9.65764C77.8446 10.2774 77.6654 11.0704 77.6389 11.8367C77.6123 13.7493 78.2229 15.5152 79.8091 16.8413C80.6587 17.521 81.714 17.8742 82.829 17.9609C85.497 17.9609 87.7536 16.2549 87.7536 13.3694H87.7469Z" fill="white"/>
<path d="M102.773 4.72637C106.085 5.63932 108.136 8.34486 108.195 12.11V12.0833C108.255 12.7297 107.963 13.4361 106.762 13.4361H95.1869C95.5653 15.8484 97.6161 17.8476 100.55 17.8476C101.897 17.8476 103.304 17.4944 104.445 16.6148C105.468 15.6751 106.994 16.8813 105.853 18.0542C104.505 19.3203 102.541 19.8467 100.636 19.8201C98.3528 19.8201 96.063 18.9405 94.6892 17.2012C91.5234 13.0229 92.9038 6.25907 98.3528 4.72637C99.7332 4.31321 101.313 4.34653 102.746 4.72637H102.773ZM95.094 11.6435H106.138C105.932 9.14453 104.412 7.23199 102.123 6.63891H102.149C101.18 6.37235 99.9788 6.37235 98.9833 6.66556C96.6404 7.2853 95.26 9.25782 95.0874 11.6368L95.094 11.6435Z" fill="white"/>
<path d="M113.306 7.10537C114.242 5.13286 116 4.60641 117.673 4.60641C118.343 4.60641 118.788 4.9596 118.788 5.63932C118.788 6.31903 118.35 6.6389 117.673 6.6389C114.653 6.6389 113.366 9.05123 113.366 12.0233V18.6739C113.366 19.2936 112.868 19.7001 112.31 19.7001C111.666 19.7001 111.228 19.287 111.228 18.6739V5.63265C111.228 4.33986 113.306 4.21991 113.306 5.63265V7.10537Z" fill="white"/>
<path d="M74.3735 12.1699C74.3735 12.6231 74.0085 12.9896 73.5572 12.9896H56.9847C56.5334 12.9896 56.1684 12.6231 56.1684 12.1699C56.1684 11.7168 56.5334 11.3503 56.9847 11.3503H73.5572C74.0085 11.3503 74.3735 11.7168 74.3735 12.1699Z" fill="#FF3347"/>
</svg>
