<svg width="24" height="24" viewBox="0 0 24 24" fill="none" xmlns="http://www.w3.org/2000/svg">
<g clip-path="url(#clip0_2001_5)">
<mask id="mask0_2001_5" style="mask-type:alpha" maskUnits="userSpaceOnUse" x="0" y="0" width="24" height="24">
<rect width="24" height="24" fill="#D9D9D9"/>
</mask>
<g mask="url(#mask0_2001_5)">
<path d="M12 15.6L15.4405 10.6345C15.4725 10.5833 15.4757 10.5305 15.45 10.476C15.4243 10.4215 15.3795 10.3942 15.3155 10.3942H12.5135L14.2635 4.31725C14.2892 4.24042 14.2763 4.16833 14.225 4.101C14.1737 4.03367 14.1096 4 14.0327 4H9.5C9.41033 4 9.33658 4.02883 9.27875 4.0865C9.22108 4.14417 9.19225 4.21792 9.19225 4.30775V11.6922C9.19225 11.7821 9.22108 11.8558 9.27875 11.9135C9.33658 11.9712 9.41033 12 9.5 12H12V15.6ZM16.9902 11.0135L11.7405 18.6307C11.6468 18.7679 11.5305 18.8582 11.3915 18.9017C11.2523 18.9454 11.1142 18.9454 10.977 18.9017C10.8398 18.8582 10.726 18.7787 10.6355 18.6632C10.5452 18.5479 10.5 18.4082 10.5 18.2442V13.5H9.5C9.00133 13.5 8.57541 13.3234 8.22225 12.9702C7.86891 12.6169 7.69225 12.1909 7.69225 11.6922V4.30775C7.69225 3.80908 7.86891 3.38308 8.22225 3.02975C8.57541 2.67658 9.00133 2.5 9.5 2.5H14.3402C14.8352 2.5 15.2372 2.6875 15.546 3.0625C15.855 3.4375 15.9461 3.85258 15.8192 4.30775L14.5 8.89425H15.8652C16.4076 8.89425 16.8086 9.13367 17.0682 9.6125C17.3279 10.0913 17.3019 10.5583 16.9902 11.0135Z" fill="#F2F2F7"/>
</g>
</g>
<defs>
<clipPath id="clip0_2001_5">
<rect width="24" height="24" fill="white"/>
</clipPath>
</defs>
</svg>
