<svg width="24" height="24" viewBox="0 0 24 24" fill="none" xmlns="http://www.w3.org/2000/svg">
<g clip-path="url(#clip0_2001_9)">
<mask id="mask0_2001_9" style="mask-type:alpha" maskUnits="userSpaceOnUse" x="0" y="0" width="24" height="24">
<rect width="24" height="24" fill="#D9D9D9"/>
</mask>
<g mask="url(#mask0_2001_9)">
<path d="M15.8193 4.30775L14.5 8.89425H15.8653C16.4076 8.89425 16.8086 9.13367 17.0683 9.6125C17.3279 10.0913 17.3019 10.5583 16.9903 11.0135L16.25 12.0865C16.1115 12.2788 15.9291 12.3901 15.7028 12.4202C15.4766 12.4502 15.2724 12.3807 15.0903 12.2115C14.9558 12.0833 14.8792 11.9266 14.8605 11.7413C14.842 11.5561 14.8898 11.3828 15.0038 11.2213L15.4405 10.6345C15.4725 10.5833 15.4757 10.5305 15.45 10.476C15.4243 10.4215 15.3795 10.3943 15.3155 10.3943H13.7135C13.4122 10.3943 13.1695 10.2762 12.9855 10.0402C12.8017 9.80442 12.7514 9.53908 12.8348 9.24425L14.2635 4.31725C14.2892 4.24042 14.2763 4.16833 14.225 4.101C14.1737 4.03367 14.1096 4 14.0328 4H8.44225C8.22942 4 8.05125 3.92817 7.90775 3.7845C7.76409 3.641 7.69225 3.46283 7.69225 3.25C7.69225 3.03717 7.76409 2.859 7.90775 2.7155C8.05125 2.57183 8.22942 2.5 8.44225 2.5H14.3403C14.8353 2.5 15.2372 2.6875 15.546 3.0625C15.855 3.4375 15.9461 3.85258 15.8193 4.30775ZM19.277 21.4L13.6828 15.821L11.7405 18.6308C11.6468 18.7679 11.5305 18.8583 11.3915 18.9018C11.2523 18.9454 11.1142 18.9454 10.977 18.9018C10.8398 18.8583 10.726 18.7788 10.6355 18.6633C10.5452 18.5479 10.5 18.4083 10.5 18.2443V13.5H9.5C9.00134 13.5 8.57542 13.3234 8.22225 12.9703C7.86892 12.6169 7.69225 12.1909 7.69225 11.6923V9.83075L2.58475 4.723C2.43592 4.57433 2.35992 4.39775 2.35675 4.19325C2.35359 3.98875 2.42959 3.80892 2.58475 3.65375C2.73975 3.49875 2.91792 3.42125 3.11925 3.42125C3.32059 3.42125 3.49875 3.49875 3.65375 3.65375L20.3463 20.3463C20.4949 20.4949 20.5708 20.6689 20.574 20.8682C20.5772 21.0676 20.5013 21.2448 20.3463 21.4C20.1911 21.5552 20.0128 21.6327 19.8115 21.6327C19.6103 21.6327 19.4322 21.5552 19.277 21.4Z" fill="#F2F2F7"/>
</g>
</g>
<defs>
<clipPath id="clip0_2001_9">
<rect width="24" height="24" fill="white"/>
</clipPath>
</defs>
</svg>
