<svg width="40" height="40" viewBox="0 0 40 40" fill="none" xmlns="http://www.w3.org/2000/svg">
<path fill-rule="evenodd" clip-rule="evenodd" d="M32 2H8C4.68629 2 2 4.68629 2 8V32C2 35.3137 4.68629 38 8 38H32C35.3137 38 38 35.3137 38 32V8C38 4.68629 35.3137 2 32 2ZM8 0C3.58172 0 0 3.58172 0 8V32C0 36.4183 3.58172 40 8 40H32C36.4183 40 40 36.4183 40 32V8C40 3.58172 36.4183 0 32 0H8Z" fill="#333333"/>
<path d="M15.3333 7.55556C16.1889 7.55556 16.8889 8.25556 16.8889 9.11111V15.3333C16.8889 16.1889 16.1889 16.8889 15.3333 16.8889H9.11111C8.25556 16.8889 7.55556 16.1889 7.55556 15.3333V9.11111C7.55556 8.25556 8.25556 7.55556 9.11111 7.55556H15.3333ZM15.3333 6H9.11111C7.4 6 6 7.4 6 9.11111V15.3333C6 17.0444 7.4 18.4444 9.11111 18.4444H15.3333C17.0444 18.4444 18.4444 17.0444 18.4444 15.3333V9.11111C18.4444 7.4 17.0444 6 15.3333 6Z" fill="#333333"/>
<path d="M13.7778 10.6667V13.7778H10.6667V10.6667H13.7778ZM14.5556 9.11111H9.88889C9.45333 9.11111 9.11111 9.45334 9.11111 9.88889V14.5556C9.11111 14.9911 9.45333 15.3333 9.88889 15.3333H14.5556C14.9911 15.3333 15.3333 14.9911 15.3333 14.5556V9.88889C15.3333 9.45334 14.9911 9.11111 14.5556 9.11111Z" fill="#333333"/>
<path d="M15.3333 23.1111C16.1889 23.1111 16.8889 23.8111 16.8889 24.6667V30.8889C16.8889 31.7444 16.1889 32.4444 15.3333 32.4444H9.11111C8.25556 32.4444 7.55556 31.7444 7.55556 30.8889V24.6667C7.55556 23.8111 8.25556 23.1111 9.11111 23.1111H15.3333ZM15.3333 21.5555H9.11111C7.4 21.5555 6 22.9555 6 24.6667V30.8889C6 32.6 7.4 34 9.11111 34H15.3333C17.0444 34 18.4444 32.6 18.4444 30.8889V24.6667C18.4444 22.9555 17.0444 21.5555 15.3333 21.5555Z" fill="#333333"/>
<path d="M13.7778 26.2222V29.3333H10.6667V26.2222H13.7778ZM14.5556 24.6667H9.88889C9.45333 24.6667 9.11111 25.0089 9.11111 25.4444V30.1111C9.11111 30.5467 9.45333 30.8889 9.88889 30.8889H14.5556C14.9911 30.8889 15.3333 30.5467 15.3333 30.1111V25.4444C15.3333 25.0089 14.9911 24.6667 14.5556 24.6667Z" fill="#333333"/>
<path d="M30.8889 7.55556C31.7444 7.55556 32.4444 8.25556 32.4444 9.11111V15.3333C32.4444 16.1889 31.7444 16.8889 30.8889 16.8889H24.6667C23.8111 16.8889 23.1111 16.1889 23.1111 15.3333V9.11111C23.1111 8.25556 23.8111 7.55556 24.6667 7.55556H30.8889ZM30.8889 6H24.6667C22.9556 6 21.5556 7.4 21.5556 9.11111V15.3333C21.5556 17.0444 22.9556 18.4444 24.6667 18.4444H30.8889C32.6 18.4444 34 17.0444 34 15.3333V9.11111C34 7.4 32.6 6 30.8889 6Z" fill="#333333"/>
<path d="M29.3333 10.6667V13.7778H26.2222V10.6667H29.3333ZM30.1111 9.11111H25.4444C25.0089 9.11111 24.6667 9.45334 24.6667 9.88889V14.5556C24.6667 14.9911 25.0089 15.3333 25.4444 15.3333H30.1111C30.5467 15.3333 30.8889 14.9911 30.8889 14.5556V9.88889C30.8889 9.45334 30.5467 9.11111 30.1111 9.11111Z" fill="#333333"/>
<path fill-rule="evenodd" clip-rule="evenodd" d="M32.4444 25.4443C32.874 25.4443 33.2222 25.7926 33.2222 26.2221V31.2777C33.2222 32.345 32.3451 33.2221 31.2778 33.2221H27.7778C27.3482 33.2221 27 32.8739 27 32.4443C27 32.0148 27.3482 31.6666 27.7778 31.6666H31.2778C31.486 31.6666 31.6667 31.4859 31.6667 31.2777V26.2221C31.6667 25.7926 32.0149 25.4443 32.4444 25.4443Z" fill="#333333"/>
<path fill-rule="evenodd" clip-rule="evenodd" d="M22.3334 27.3888C22.3334 26.3214 23.2105 25.4443 24.2778 25.4443H27.7778C28.2074 25.4443 28.5556 25.7926 28.5556 26.2221C28.5556 26.6517 28.2074 26.9999 27.7778 26.9999H24.2778C24.0696 26.9999 23.8889 27.1806 23.8889 27.3888V32.4443C23.8889 32.8739 23.5407 33.2221 23.1112 33.2221C22.6816 33.2221 22.3334 32.8739 22.3334 32.4443V27.3888Z" fill="#333333"/>
<path fill-rule="evenodd" clip-rule="evenodd" d="M22.3334 23.111C22.3334 22.6815 22.6816 22.3333 23.1112 22.3333H24.6667C25.0963 22.3333 25.4445 22.6815 25.4445 23.111C25.4445 23.5406 25.0963 23.8888 24.6667 23.8888H23.1112C22.6816 23.8888 22.3334 23.5406 22.3334 23.111Z" fill="#333333"/>
<path fill-rule="evenodd" clip-rule="evenodd" d="M27 23.111C27 22.6815 27.3482 22.3333 27.7778 22.3333H32.4444C32.874 22.3333 33.2222 22.6815 33.2222 23.111C33.2222 23.5406 32.874 23.8888 32.4444 23.8888H27.7778C27.3482 23.8888 27 23.5406 27 23.111Z" fill="#333333"/>
<path fill-rule="evenodd" clip-rule="evenodd" d="M25.4445 29.3334C25.4445 28.9039 25.7927 28.5557 26.2222 28.5557H29.3333C29.7629 28.5557 30.1111 28.9039 30.1111 29.3334C30.1111 29.763 29.7629 30.1112 29.3333 30.1112H26.2222C25.7927 30.1112 25.4445 29.763 25.4445 29.3334Z" fill="#333333"/>
</svg>
