<svg width="40" height="40" viewBox="0 0 40 40" fill="none" xmlns="http://www.w3.org/2000/svg">
<path fill-rule="evenodd" clip-rule="evenodd" d="M32 2H8C4.68629 2 2 4.68629 2 8V32C2 35.3137 4.68629 38 8 38H32C35.3137 38 38 35.3137 38 32V8C38 4.68629 35.3137 2 32 2ZM8 0C3.58172 0 0 3.58172 0 8V32C0 36.4183 3.58172 40 8 40H32C36.4183 40 40 36.4183 40 32V8C40 3.58172 36.4183 0 32 0H8Z" fill="#333333"/>
<path fill-rule="evenodd" clip-rule="evenodd" d="M27.6923 8.09C27.4491 8.09 27.2112 8.16187 27.0089 8.29653C26.8066 8.43119 26.649 8.62259 26.5559 8.84652C26.4628 9.07045 26.4384 9.31686 26.4859 9.55458C26.5333 9.79231 26.6505 10.0107 26.8225 10.1821C26.9946 10.3534 27.2137 10.4702 27.4524 10.5175C27.691 10.5647 27.9383 10.5405 28.1631 10.4477C28.3879 10.355 28.58 10.1979 28.7151 9.99635C28.8503 9.79482 28.9225 9.55788 28.9225 9.3155C28.9209 8.99096 28.7908 8.68017 28.5604 8.45068C28.3301 8.2212 28.0181 8.09158 27.6923 8.09ZM27.6923 14.2205C27.4491 14.2205 27.2112 14.2924 27.0089 14.427C26.8066 14.5617 26.649 14.7531 26.5559 14.977C26.4628 15.201 26.4384 15.4474 26.4859 15.6851C26.5333 15.9228 26.6505 16.1412 26.8225 16.3126C26.9946 16.4839 27.2137 16.6007 27.4524 16.648C27.691 16.6952 27.9383 16.671 28.1631 16.5782C28.3879 16.4855 28.58 16.3284 28.7151 16.1269C28.8503 15.9253 28.9225 15.6884 28.9225 15.446C28.9209 15.1215 28.7908 14.8107 28.5604 14.5812C28.3301 14.3517 28.0181 14.2221 27.6923 14.2205ZM27.6923 17.2865C27.4491 17.2865 27.2112 17.3584 27.0089 17.493C26.8066 17.6277 26.649 17.8191 26.5559 18.043C26.4628 18.267 26.4384 18.5134 26.4859 18.7511C26.5333 18.9888 26.6505 19.2072 26.8225 19.3786C26.9946 19.5499 27.2137 19.6667 27.4524 19.714C27.691 19.7612 27.9383 19.737 28.1631 19.6442C28.3879 19.5515 28.58 19.3944 28.7151 19.1929C28.8503 18.9913 28.9225 18.7544 28.9225 18.512C28.9209 18.1875 28.7908 17.8767 28.5604 17.6472C28.3301 17.4177 28.0181 17.2881 27.6923 17.2865ZM27.6923 20.3525C27.4491 20.3525 27.2112 20.4244 27.0089 20.559C26.8066 20.6937 26.649 20.8851 26.5559 21.109C26.4628 21.333 26.4384 21.5794 26.4859 21.8171C26.5333 22.0548 26.6505 22.2732 26.8225 22.4446C26.9946 22.6159 27.2137 22.7327 27.4524 22.78C27.691 22.8272 27.9383 22.803 28.1631 22.7102C28.3879 22.6175 28.58 22.4604 28.7151 22.2589C28.8503 22.0573 28.9225 21.8204 28.9225 21.578C28.9209 21.2535 28.7908 20.9427 28.5604 20.7132C28.3301 20.4837 28.0181 20.3541 27.6923 20.3525ZM27.6923 26.483C27.4491 26.483 27.2112 26.5549 27.0089 26.6895C26.8066 26.8242 26.649 27.0156 26.5559 27.2395C26.4628 27.4635 26.4384 27.7099 26.4859 27.9476C26.5333 28.1853 26.6505 28.4037 26.8225 28.5751C26.9946 28.7464 27.2137 28.8632 27.4524 28.9105C27.691 28.9577 27.9383 28.9335 28.1631 28.8407C28.3879 28.748 28.58 28.5909 28.7151 28.3894C28.8503 28.1878 28.9225 27.9509 28.9225 27.7085C28.9209 27.384 28.7908 27.0732 28.5604 26.8437C28.3301 26.6142 28.0181 26.4846 27.6923 26.483ZM27.6923 29.549C27.4491 29.549 27.2112 29.6209 27.0089 29.7555C26.8066 29.8902 26.649 30.0816 26.5559 30.3055C26.4628 30.5295 26.4384 30.7759 26.4859 31.0136C26.5333 31.2513 26.6505 31.4697 26.8225 31.6411C26.9946 31.8124 27.2137 31.9292 27.4524 31.9765C27.691 32.0237 27.9383 31.9995 28.1631 31.9067C28.3879 31.814 28.58 31.6569 28.7151 31.4553C28.8503 31.2538 28.9225 31.0169 28.9225 30.7745C28.9209 30.45 28.7908 30.1392 28.5604 29.9097C28.3301 29.6802 28.0181 29.5506 27.6923 29.549ZM30.7699 13.592C31.0132 13.592 31.251 13.5201 31.4533 13.3855C31.6556 13.2508 31.8133 13.0594 31.9064 12.8355C31.9995 12.6115 32.0238 12.3651 31.9764 12.1274C31.9289 11.8897 31.8117 11.6713 31.6397 11.4999C31.4677 11.3286 31.2485 11.2118 31.0099 11.1645C30.7712 11.1173 30.5239 11.1415 30.2991 11.2343C30.0744 11.327 29.8823 11.4841 29.7471 11.6856C29.6119 11.8872 29.5398 12.1241 29.5398 12.3665C29.5414 12.691 29.6715 13.0018 29.9018 13.2313C30.1322 13.4608 30.4441 13.5904 30.7699 13.592ZM30.7699 17.27C30.5266 17.27 30.2888 17.3419 30.0865 17.4765C29.8842 17.6112 29.7265 17.8026 29.6334 18.0265C29.5403 18.2505 29.5159 18.4969 29.5634 18.7346C29.6109 18.9723 29.728 19.1907 29.9001 19.3621C30.0721 19.5334 30.2913 19.6502 30.5299 19.6975C30.7685 19.7447 31.0159 19.7205 31.2406 19.6277C31.4654 19.535 31.6575 19.3779 31.7927 19.1764C31.9279 18.9748 32 18.7379 32 18.4955C31.9984 18.171 31.8683 17.8602 31.638 17.6307C31.4076 17.4012 31.0956 17.2716 30.7699 17.27ZM30.7699 23.4005C30.5266 23.4005 30.2888 23.4724 30.0865 23.607C29.8842 23.7417 29.7265 23.9331 29.6334 24.157C29.5403 24.381 29.5159 24.6274 29.5634 24.8651C29.6109 25.1028 29.728 25.3212 29.9001 25.4926C30.0721 25.6639 30.2913 25.7807 30.5299 25.828C30.7685 25.8752 31.0159 25.851 31.2406 25.7582C31.4654 25.6655 31.6575 25.5084 31.7927 25.3069C31.9279 25.1053 32 24.8684 32 24.626C31.9984 24.3015 31.8683 23.9907 31.638 23.7612C31.4076 23.5317 31.0956 23.4021 30.7699 23.4005ZM30.7699 29.531C30.5266 29.531 30.2888 29.6029 30.0865 29.7375C29.8842 29.8722 29.7265 30.0636 29.6334 30.2875C29.5403 30.5115 29.5159 30.7579 29.5634 30.9956C29.6109 31.2333 29.728 31.4517 29.9001 31.6231C30.0721 31.7944 30.2913 31.9112 30.5299 31.9585C30.7685 32.0057 31.0159 31.9815 31.2406 31.8887C31.4654 31.796 31.6575 31.6389 31.7927 31.4374C31.9279 31.2358 32 30.9989 32 30.7565C31.9984 30.432 31.8683 30.1212 31.638 29.8917C31.4076 29.6622 31.0956 29.5326 30.7699 29.531ZM24.6163 20.3345C24.373 20.3345 24.1352 20.4064 23.9329 20.541C23.7306 20.6757 23.5729 20.8671 23.4798 21.091C23.3867 21.315 23.3624 21.5614 23.4098 21.7991C23.4573 22.0368 23.5745 22.2552 23.7465 22.4266C23.9185 22.5979 24.1377 22.7147 24.3763 22.762C24.6149 22.8092 24.8623 22.785 25.0871 22.6922C25.3118 22.5995 25.5039 22.4424 25.6391 22.2409C25.7743 22.0393 25.8464 21.8024 25.8464 21.56C25.8448 21.2355 25.7147 20.9247 25.4844 20.6952C25.254 20.4657 24.9421 20.3361 24.6163 20.3345ZM24.6163 23.4005C24.373 23.4005 24.1352 23.4724 23.9329 23.607C23.7306 23.7417 23.5729 23.9331 23.4798 24.157C23.3867 24.381 23.3624 24.6274 23.4098 24.8651C23.4573 25.1028 23.5745 25.3212 23.7465 25.4926C23.9185 25.6639 24.1377 25.7807 24.3763 25.828C24.6149 25.8752 24.8623 25.851 25.0871 25.7582C25.3118 25.6655 25.5039 25.5084 25.6391 25.3069C25.7743 25.1053 25.8464 24.8684 25.8464 24.626C25.8448 24.3015 25.7147 23.9907 25.4844 23.7612C25.254 23.5317 24.9421 23.4021 24.6163 23.4005ZM24.6163 29.531C24.373 29.531 24.1352 29.6029 23.9329 29.7375C23.7306 29.8722 23.5729 30.0636 23.4798 30.2875C23.3867 30.5115 23.3624 30.7579 23.4098 30.9956C23.4573 31.2333 23.5745 31.4517 23.7465 31.6231C23.9185 31.7944 24.1377 31.9112 24.3763 31.9585C24.6149 32.0057 24.8623 31.9815 25.0871 31.8887C25.3118 31.796 25.5039 31.6389 25.6391 31.4374C25.7743 31.2358 25.8464 30.9989 25.8464 30.7565C25.8448 30.432 25.7147 30.1212 25.4844 29.8917C25.254 29.6622 24.9421 29.5326 24.6163 29.531ZM21.5358 8.06C21.2925 8.06 21.0546 8.13187 20.8523 8.26653C20.6501 8.40119 20.4924 8.59259 20.3993 8.81652C20.3062 9.04045 20.2818 9.28686 20.3293 9.52458C20.3767 9.76231 20.4939 9.98067 20.6659 10.1521C20.838 10.3234 21.0572 10.4402 21.2958 10.4875C21.5344 10.5347 21.7817 10.5105 22.0065 10.4177C22.2313 10.325 22.4234 10.1679 22.5586 9.96635C22.6937 9.76482 22.7659 9.52788 22.7659 9.2855C22.7643 8.96096 22.6342 8.65017 22.4038 8.42068C22.1735 8.1912 21.8615 8.06158 21.5358 8.06ZM24.6133 11.126C24.37 11.126 24.1322 11.1979 23.9299 11.3325C23.7276 11.4672 23.5699 11.6586 23.4768 11.8825C23.3837 12.1065 23.3594 12.3529 23.4068 12.5906C23.4543 12.8283 23.5714 13.0467 23.7435 13.2181C23.9155 13.3894 24.1347 13.5062 24.3733 13.5535C24.6119 13.6007 24.8593 13.5765 25.084 13.4837C25.3088 13.391 25.5009 13.2339 25.6361 13.0324C25.7713 12.8308 25.8434 12.5939 25.8434 12.3515C25.8418 12.027 25.7117 11.7162 25.4814 11.4867C25.251 11.2572 24.9391 11.1276 24.6133 11.126ZM21.5358 17.2565C21.2925 17.2565 21.0546 17.3284 20.8523 17.463C20.6501 17.5977 20.4924 17.7891 20.3993 18.013C20.3062 18.237 20.2818 18.4834 20.3293 18.7211C20.3767 18.9588 20.4939 19.1772 20.6659 19.3486C20.838 19.5199 21.0572 19.6367 21.2958 19.684C21.5344 19.7312 21.7817 19.707 22.0065 19.6142C22.2313 19.5215 22.4234 19.3644 22.5586 19.1629C22.6937 18.9613 22.7659 18.7244 22.7659 18.482C22.7643 18.1575 22.6342 17.8467 22.4038 17.6172C22.1735 17.3877 21.8615 17.2581 21.5358 17.2565ZM21.5358 23.39C21.2925 23.39 21.0546 23.4619 20.8523 23.5965C20.6501 23.7312 20.4924 23.9226 20.3993 24.1465C20.3062 24.3705 20.2818 24.6169 20.3293 24.8546C20.3767 25.0923 20.4939 25.3107 20.6659 25.4821C20.838 25.6535 21.0572 25.7702 21.2958 25.8175C21.5344 25.8647 21.7817 25.8405 22.0065 25.7477C22.2313 25.655 22.4234 25.4979 22.5586 25.2964C22.6937 25.0948 22.7659 24.8579 22.7659 24.6155C22.7643 24.291 22.6342 23.9802 22.4038 23.7507C22.1735 23.5212 21.8615 23.3916 21.5358 23.39ZM21.5358 26.456C21.2925 26.456 21.0546 26.5279 20.8523 26.6625C20.6501 26.7972 20.4924 26.9886 20.3993 27.2125C20.3062 27.4365 20.2818 27.6829 20.3293 27.9206C20.3767 28.1583 20.4939 28.3767 20.6659 28.5481C20.838 28.7194 21.0572 28.8362 21.2958 28.8834C21.5344 28.9307 21.7817 28.9065 22.0065 28.8137C22.2313 28.721 22.4234 28.5639 22.5586 28.3624C22.6937 28.1608 22.7659 27.9239 22.7659 27.6815C22.7651 27.3564 22.6353 27.0449 22.4049 26.8147C22.1745 26.5846 21.862 26.4546 21.5358 26.453M21.5358 29.519C21.2925 29.519 21.0546 29.5909 20.8523 29.7255C20.6501 29.8602 20.4924 30.0516 20.3993 30.2755C20.3062 30.4995 20.2818 30.7459 20.3293 30.9836C20.3767 31.2213 20.4939 31.4397 20.6659 31.6111C20.838 31.7824 21.0572 31.8992 21.2958 31.9464C21.5344 31.9937 21.7817 31.9695 22.0065 31.8767C22.2313 31.784 22.4234 31.6269 22.5586 31.4254C22.6937 31.2238 22.7659 30.9869 22.7659 30.7445C22.7647 30.4197 22.6347 30.1085 22.4044 29.8787C22.174 29.6489 21.8618 29.5206 21.5358 29.519ZM24.6163 14.1755C24.373 14.1755 24.1352 14.2474 23.9329 14.382C23.7306 14.5167 23.5729 14.7081 23.4798 14.932C23.3867 15.156 23.3624 15.4024 23.4098 15.6401C23.4573 15.8778 23.5745 16.0962 23.7465 16.2676C23.9185 16.4389 24.1377 16.5557 24.3763 16.603C24.6149 16.6502 24.8623 16.626 25.0871 16.5332C25.3118 16.4405 25.5039 16.2834 25.6391 16.0819C25.7743 15.8803 25.8464 15.6434 25.8464 15.401C25.8448 15.0765 25.7147 14.7657 25.4844 14.5362C25.254 14.3067 24.9421 14.1771 24.6163 14.1755ZM18.4612 11.111C18.2179 11.111 17.9801 11.1829 17.7778 11.3175C17.5755 11.4522 17.4179 11.6436 17.3248 11.8675C17.2316 12.0915 17.2073 12.3379 17.2548 12.5756C17.3022 12.8133 17.4194 13.0317 17.5914 13.2031C17.7634 13.3744 17.9826 13.4912 18.2212 13.5385C18.4599 13.5857 18.7072 13.5615 18.932 13.4687C19.1567 13.376 19.3489 13.2189 19.484 13.0174C19.6192 12.8158 19.6913 12.5789 19.6913 12.3365C19.6898 12.012 19.5596 11.7012 19.3293 11.4717C19.099 11.2422 18.787 11.1126 18.4612 11.111ZM18.4612 14.177C18.2179 14.177 17.9801 14.2489 17.7778 14.3835C17.5755 14.5182 17.4179 14.7096 17.3248 14.9335C17.2316 15.1575 17.2073 15.4039 17.2548 15.6416C17.3022 15.8793 17.4194 16.0977 17.5914 16.2691C17.7634 16.4404 17.9826 16.5572 18.2212 16.6045C18.4599 16.6517 18.7072 16.6275 18.932 16.5347C19.1567 16.442 19.3489 16.2849 19.484 16.0834C19.6192 15.8818 19.6913 15.6449 19.6913 15.4025C19.6898 15.078 19.5596 14.7672 19.3293 14.5377C19.099 14.3082 18.787 14.1786 18.4612 14.177ZM18.4612 20.3075C18.2179 20.3075 17.9801 20.3794 17.7778 20.514C17.5755 20.6487 17.4179 20.8401 17.3248 21.064C17.2316 21.288 17.2073 21.5344 17.2548 21.7721C17.3022 22.0098 17.4194 22.2282 17.5914 22.3996C17.7634 22.5709 17.9826 22.6877 18.2212 22.735C18.4599 22.7822 18.7072 22.758 18.932 22.6652C19.1567 22.5725 19.3489 22.4154 19.484 22.2139C19.6192 22.0123 19.6913 21.7754 19.6913 21.533C19.6898 21.2085 19.5596 20.8977 19.3293 20.6682C19.099 20.4387 18.787 20.3091 18.4612 20.3075ZM18.4612 26.438C18.2179 26.438 17.9801 26.5099 17.7778 26.6445C17.5755 26.7792 17.4179 26.9706 17.3248 27.1945C17.2316 27.4185 17.2073 27.6649 17.2548 27.9026C17.3022 28.1403 17.4194 28.3587 17.5914 28.5301C17.7634 28.7014 17.9826 28.8182 18.2212 28.8655C18.4599 28.9127 18.7072 28.8885 18.932 28.7957C19.1567 28.703 19.3489 28.5459 19.484 28.3444C19.6192 28.1428 19.6913 27.9059 19.6913 27.6635C19.6898 27.339 19.5596 27.0282 19.3293 26.7987C19.099 26.5692 18.787 26.4396 18.4612 26.438ZM18.4612 29.504C18.2179 29.504 17.9801 29.5759 17.7778 29.7105C17.5755 29.8452 17.4179 30.0366 17.3248 30.2605C17.2316 30.4845 17.2073 30.7309 17.2548 30.9686C17.3022 31.2063 17.4194 31.4247 17.5914 31.5961C17.7634 31.7674 17.9826 31.8842 18.2212 31.9315C18.4599 31.9787 18.7072 31.9545 18.932 31.8617C19.1567 31.769 19.3489 31.6119 19.484 31.4104C19.6192 31.2088 19.6913 30.9719 19.6913 30.7295C19.6898 30.405 19.5596 30.0942 19.3293 29.8647C19.099 29.6352 18.787 29.5056 18.4612 29.504ZM15.3852 8.03C15.1419 8.03 14.9041 8.10187 14.7018 8.23653C14.4995 8.37119 14.3418 8.56259 14.2487 8.78652C14.1556 9.01045 14.1313 9.25686 14.1787 9.49458C14.2262 9.73231 14.3433 9.95067 14.5154 10.1221C14.6874 10.2934 14.9066 10.4102 15.1452 10.4575C15.3838 10.5047 15.6312 10.4805 15.8559 10.3877C16.0807 10.295 16.2728 10.1379 16.408 9.93635C16.5432 9.73482 16.6153 9.49788 16.6153 9.2555C16.6137 8.93096 16.4836 8.62017 16.2533 8.39068C16.0229 8.1612 15.711 8.03158 15.3852 8.03ZM15.3852 14.1605C15.1419 14.1605 14.9041 14.2324 14.7018 14.367C14.4995 14.5017 14.3418 14.6931 14.2487 14.917C14.1556 15.141 14.1313 15.3874 14.1787 15.6251C14.2262 15.8628 14.3433 16.0812 14.5154 16.2526C14.6874 16.4239 14.9066 16.5407 15.1452 16.588C15.3838 16.6352 15.6312 16.611 15.8559 16.5182C16.0807 16.4255 16.2728 16.2684 16.408 16.0669C16.5432 15.8653 16.6153 15.6284 16.6153 15.386C16.6137 15.0615 16.4836 14.7507 16.2533 14.5212C16.0229 14.2917 15.711 14.1621 15.3852 14.1605ZM15.3852 17.2265C15.1419 17.2265 14.9041 17.2984 14.7018 17.433C14.4995 17.5677 14.3418 17.7591 14.2487 17.983C14.1556 18.207 14.1313 18.4534 14.1787 18.6911C14.2262 18.9288 14.3433 19.1472 14.5154 19.3186C14.6874 19.4899 14.9066 19.6067 15.1452 19.654C15.3838 19.7012 15.6312 19.677 15.8559 19.5842C16.0807 19.4915 16.2728 19.3344 16.408 19.1329C16.5432 18.9313 16.6153 18.6944 16.6153 18.452C16.6137 18.1275 16.4836 17.8167 16.2533 17.5872C16.0229 17.3577 15.711 17.2281 15.3852 17.2265ZM15.3852 23.357C15.1422 23.357 14.9047 23.4287 14.7026 23.563C14.5004 23.6974 14.3428 23.8883 14.2495 24.1118C14.1561 24.3353 14.1313 24.5813 14.1782 24.8188C14.2251 25.0564 14.3415 25.2747 14.5127 25.4464C14.684 25.6181 14.9025 25.7354 15.1406 25.7835C15.3788 25.8317 15.6258 25.8085 15.8507 25.7169C16.0756 25.6252 16.2683 25.4693 16.4043 25.2688C16.5404 25.0683 16.6138 24.8321 16.6153 24.59C16.6137 24.2655 16.4836 23.9547 16.2533 23.7252C16.0229 23.4957 15.711 23.3661 15.3852 23.3645M15.3852 29.495C15.1419 29.495 14.9041 29.5669 14.7018 29.7015C14.4995 29.8362 14.3418 30.0276 14.2487 30.2515C14.1556 30.4755 14.1313 30.7219 14.1787 30.9596C14.2262 31.1973 14.3433 31.4157 14.5154 31.5871C14.6874 31.7584 14.9066 31.8752 15.1452 31.9225C15.3838 31.9697 15.6312 31.9455 15.8559 31.8527C16.0807 31.76 16.2728 31.6029 16.408 31.4014C16.5432 31.1998 16.6153 30.9629 16.6153 30.7205C16.6137 30.396 16.4836 30.0852 16.2533 29.8557C16.0229 29.6262 15.711 29.4966 15.3852 29.495ZM12.3077 11.081C12.0644 11.081 11.8265 11.1529 11.6242 11.2875C11.4219 11.4222 11.2643 11.6136 11.1712 11.8375C11.0781 12.0615 11.0537 12.3079 11.1012 12.5456C11.1486 12.7833 11.2658 13.0017 11.4378 13.1731C11.6099 13.3444 11.8291 13.4612 12.0677 13.5085C12.3063 13.5557 12.5536 13.5315 12.7784 13.4387C13.0032 13.346 13.1953 13.1889 13.3305 12.9874C13.4656 12.7858 13.5378 12.5489 13.5378 12.3065C13.5362 11.982 13.4061 11.6712 13.1757 11.4417C12.9454 11.2122 12.6334 11.0826 12.3077 11.081ZM12.3077 14.147C12.0644 14.147 11.8265 14.2189 11.6242 14.3535C11.4219 14.4882 11.2643 14.6796 11.1712 14.9035C11.0781 15.1275 11.0537 15.3739 11.1012 15.6116C11.1486 15.8493 11.2658 16.0677 11.4378 16.2391C11.6099 16.4104 11.8291 16.5272 12.0677 16.5745C12.3063 16.6217 12.5536 16.5975 12.7784 16.5047C13.0032 16.412 13.1953 16.2549 13.3305 16.0534C13.4656 15.8518 13.5378 15.6149 13.5378 15.3725C13.5362 15.048 13.4061 14.7372 13.1757 14.5077C12.9454 14.2782 12.6334 14.1486 12.3077 14.147ZM12.3077 20.2775C12.0644 20.2775 11.8265 20.3494 11.6242 20.484C11.4219 20.6187 11.2643 20.8101 11.1712 21.034C11.0781 21.258 11.0537 21.5044 11.1012 21.7421C11.1486 21.9798 11.2658 22.1982 11.4378 22.3696C11.6099 22.5409 11.8291 22.6577 12.0677 22.705C12.3063 22.7522 12.5536 22.728 12.7784 22.6352C13.0032 22.5425 13.1953 22.3854 13.3305 22.1839C13.4656 21.9823 13.5378 21.7454 13.5378 21.503C13.5362 21.1785 13.4061 20.8677 13.1757 20.6382C12.9454 20.4087 12.6334 20.2791 12.3077 20.2775ZM12.3077 26.408C12.0644 26.408 11.8265 26.4799 11.6242 26.6145C11.4219 26.7492 11.2643 26.9406 11.1712 27.1645C11.0781 27.3885 11.0537 27.6349 11.1012 27.8726C11.1486 28.1103 11.2658 28.3287 11.4378 28.5001C11.6099 28.6714 11.8291 28.7882 12.0677 28.8355C12.3063 28.8827 12.5536 28.8585 12.7784 28.7657C13.0032 28.673 13.1953 28.5159 13.3305 28.3144C13.4656 28.1128 13.5378 27.8759 13.5378 27.6335C13.5362 27.309 13.4061 26.9982 13.1757 26.7687C12.9454 26.5392 12.6334 26.4096 12.3077 26.408ZM12.3077 29.474C12.0644 29.474 11.8265 29.5459 11.6242 29.6805C11.4219 29.8152 11.2643 30.0066 11.1712 30.2305C11.0781 30.4545 11.0537 30.7009 11.1012 30.9386C11.1486 31.1763 11.2658 31.3947 11.4378 31.5661C11.6099 31.7374 11.8291 31.8542 12.0677 31.9015C12.3063 31.9487 12.5536 31.9245 12.7784 31.8317C13.0032 31.739 13.1953 31.5819 13.3305 31.3804C13.4656 31.1788 13.5378 30.9419 13.5378 30.6995C13.5362 30.375 13.4061 30.0642 13.1757 29.8347C12.9454 29.6052 12.6334 29.4756 12.3077 29.474ZM9.23011 8C8.98682 8 8.74899 8.07187 8.5467 8.20653C8.34441 8.34119 8.18674 8.53259 8.09364 8.75652C8.00053 8.98045 7.97617 9.22686 8.02364 9.46458C8.0711 9.70231 8.18826 9.92067 8.36029 10.0921C8.53233 10.2634 8.75151 10.3802 8.99013 10.4275C9.22875 10.4747 9.47608 10.4505 9.70086 10.3577C9.92563 10.265 10.1177 10.1079 10.2529 9.90635C10.3881 9.70482 10.4602 9.46788 10.4602 9.2255C10.4586 8.90096 10.3285 8.59017 10.0982 8.36068C9.86784 8.1312 9.55587 8.00158 9.23011 8ZM9.23011 11.066C8.98682 11.066 8.74899 11.1379 8.5467 11.2725C8.34441 11.4072 8.18674 11.5986 8.09364 11.8225C8.00053 12.0465 7.97617 12.2929 8.02364 12.5306C8.0711 12.7683 8.18826 12.9867 8.36029 13.1581C8.53233 13.3294 8.75151 13.4462 8.99013 13.4935C9.22875 13.5407 9.47608 13.5165 9.70086 13.4237C9.92563 13.331 10.1177 13.1739 10.2529 12.9724C10.3881 12.7708 10.4602 12.5339 10.4602 12.2915C10.4586 11.967 10.3285 11.6562 10.0982 11.4267C9.86784 11.1972 9.55587 11.0676 9.23011 11.066ZM9.23011 14.132C8.98682 14.132 8.74899 14.2039 8.5467 14.3385C8.34441 14.4732 8.18674 14.6646 8.09364 14.8885C8.00053 15.1125 7.97617 15.3589 8.02364 15.5966C8.0711 15.8343 8.18826 16.0527 8.36029 16.2241C8.53233 16.3954 8.75151 16.5122 8.99013 16.5595C9.22875 16.6067 9.47608 16.5825 9.70086 16.4897C9.92563 16.397 10.1177 16.2399 10.2529 16.0384C10.3881 15.8368 10.4602 15.5999 10.4602 15.3575C10.4586 15.033 10.3285 14.7222 10.0982 14.4927C9.86784 14.2632 9.55587 14.1336 9.23011 14.132ZM9.23011 17.198C8.98682 17.198 8.74899 17.2699 8.5467 17.4045C8.34441 17.5392 8.18674 17.7306 8.09364 17.9545C8.00053 18.1785 7.97617 18.4249 8.02364 18.6626C8.0711 18.9003 8.18826 19.1187 8.36029 19.2901C8.53233 19.4614 8.75151 19.5782 8.99013 19.6255C9.22875 19.6727 9.47608 19.6485 9.70086 19.5557C9.92563 19.463 10.1177 19.3059 10.2529 19.1044C10.3881 18.9028 10.4602 18.6659 10.4602 18.4235C10.4586 18.099 10.3285 17.7882 10.0982 17.5587C9.86784 17.3292 9.55587 17.1996 9.23011 17.198ZM9.23011 20.264C8.98682 20.264 8.74899 20.3359 8.5467 20.4705C8.34441 20.6052 8.18674 20.7966 8.09364 21.0205C8.00053 21.2445 7.97617 21.4909 8.02364 21.7286C8.0711 21.9663 8.18826 22.1847 8.36029 22.3561C8.53233 22.5274 8.75151 22.6442 8.99013 22.6915C9.22875 22.7387 9.47608 22.7145 9.70086 22.6217C9.92563 22.529 10.1177 22.3719 10.2529 22.1704C10.3881 21.9688 10.4602 21.7319 10.4602 21.4895C10.4586 21.165 10.3285 20.8542 10.0982 20.6247C9.86784 20.3952 9.55587 20.2656 9.23011 20.264ZM9.23011 23.33C8.98682 23.33 8.74899 23.4019 8.5467 23.5365C8.34441 23.6712 8.18674 23.8626 8.09364 24.0865C8.00053 24.3105 7.97617 24.5569 8.02364 24.7946C8.0711 25.0323 8.18826 25.2507 8.36029 25.4221C8.53233 25.5934 8.75151 25.7102 8.99013 25.7575C9.22875 25.8047 9.47608 25.7805 9.70086 25.6877C9.92563 25.595 10.1177 25.4379 10.2529 25.2364C10.3881 25.0348 10.4602 24.7979 10.4602 24.5555C10.4586 24.231 10.3285 23.9202 10.0982 23.6907C9.86784 23.4612 9.55587 23.3316 9.23011 23.33ZM9.23011 26.396C8.98682 26.396 8.74899 26.4679 8.5467 26.6025C8.34441 26.7372 8.18674 26.9286 8.09364 27.1525C8.00053 27.3765 7.97617 27.6229 8.02364 27.8606C8.0711 28.0983 8.18826 28.3167 8.36029 28.4881C8.53233 28.6594 8.75151 28.7762 8.99013 28.8235C9.22875 28.8707 9.47608 28.8465 9.70086 28.7537C9.92563 28.661 10.1177 28.5039 10.2529 28.3024C10.3881 28.1008 10.4602 27.8639 10.4602 27.6215C10.4586 27.297 10.3285 26.9862 10.0982 26.7567C9.86784 26.5272 9.55587 26.3976 9.23011 26.396ZM9.23011 29.462C8.98682 29.462 8.74899 29.5339 8.5467 29.6685C8.34441 29.8032 8.18674 29.9946 8.09364 30.2185C8.00053 30.4425 7.97617 30.6889 8.02364 30.9266C8.0711 31.1643 8.18826 31.3827 8.36029 31.5541C8.53233 31.7254 8.75151 31.8422 8.99013 31.8895C9.22875 31.9367 9.47608 31.9125 9.70086 31.8197C9.92563 31.727 10.1177 31.5699 10.2529 31.3684C10.3881 31.1668 10.4602 30.9299 10.4602 30.6875C10.4586 30.363 10.3285 30.0522 10.0982 29.8227C9.86784 29.5932 9.55587 29.4636 9.23011 29.462Z" fill="#333333"/>
</svg>
