<svg width="24" height="24" viewBox="0 0 24 24" fill="none" xmlns="http://www.w3.org/2000/svg">
<path fill-rule="evenodd" clip-rule="evenodd" d="M3 3.68605C3 2.20258 4.20258 1 5.68605 1H11.5465C13.03 1 14.2326 2.20258 14.2326 3.68605V19.314C14.2326 20.7974 13.03 22 11.5465 22H5.68605C4.20258 22 3 20.7974 3 19.314V3.68605ZM5.68605 2.46512C5.01175 2.46512 4.46512 3.01175 4.46512 3.68605V19.314C4.46512 19.9883 5.01175 20.5349 5.68605 20.5349H11.5465C12.2208 20.5349 12.7674 19.9883 12.7674 19.314V3.68605C12.7674 3.01175 12.2208 2.46512 11.5465 2.46512H5.68605ZM6.66279 3.93023C6.66279 3.52565 6.99077 3.19767 7.39535 3.19767H9.83721C10.2418 3.19767 10.5698 3.52565 10.5698 3.93023C10.5698 4.33481 10.2418 4.66279 9.83721 4.66279H7.39535C6.99077 4.66279 6.66279 4.33481 6.66279 3.93023ZM15.4535 7.83721C15.4535 7.43263 15.7815 7.10465 16.186 7.10465H18.6279C19.0325 7.10465 19.3605 7.43263 19.3605 7.83721C19.3605 8.24179 19.0325 8.56977 18.6279 8.56977H16.186C15.7815 8.56977 15.4535 8.24179 15.4535 7.83721ZM15.4535 10.7674C15.4535 10.3629 15.7815 10.0349 16.186 10.0349H20.5814C20.986 10.0349 21.314 10.3629 21.314 10.7674C21.314 11.172 20.986 11.5 20.5814 11.5H16.186C15.7815 11.5 15.4535 11.172 15.4535 10.7674ZM15.4535 13.6977C15.4535 13.2931 15.7815 12.9651 16.186 12.9651H18.6279C19.0325 12.9651 19.3605 13.2931 19.3605 13.6977C19.3605 14.1023 19.0325 14.4302 18.6279 14.4302H16.186C15.7815 14.4302 15.4535 14.1023 15.4535 13.6977ZM7.63953 19.5581C7.63953 19.1536 7.96751 18.8256 8.37209 18.8256H8.86047C9.26505 18.8256 9.59302 19.1536 9.59302 19.5581C9.59302 19.9627 9.26505 20.2907 8.86047 20.2907H8.37209C7.96751 20.2907 7.63953 19.9627 7.63953 19.5581Z" fill="#E52E40"/>
</svg>
