<svg width="40" height="40" viewBox="0 0 40 40" fill="none" xmlns="http://www.w3.org/2000/svg">
<path fill-rule="evenodd" clip-rule="evenodd" d="M32 2H8C4.68629 2 2 4.68629 2 8V32C2 35.3137 4.68629 38 8 38H32C35.3137 38 38 35.3137 38 32V8C38 4.68629 35.3137 2 32 2ZM8 0C3.58172 0 0 3.58172 0 8V32C0 36.4183 3.58172 40 8 40H32C36.4183 40 40 36.4183 40 32V8C40 3.58172 36.4183 0 32 0H8Z" fill="#333333"/>
<path d="M20.3784 31.6862C20.3784 30.9494 20.9384 30.3157 21.6951 30.242C24.0562 29.9767 26.1146 29.0041 27.8703 27.2946C29.853 25.3641 30.973 22.7115 30.973 19.9851C30.973 17.2588 29.9438 14.7094 27.8703 12.6904C26.1146 10.9809 24.0562 9.99356 21.68 9.74304C20.9384 9.65462 20.3784 9.02093 20.3784 8.29883C20.3784 7.41462 21.1654 6.72198 22.0735 6.82514C23.3146 6.97251 24.5103 7.29672 25.6605 7.78304C27.3103 8.47567 28.7632 9.43356 29.9892 10.642C31.2303 11.8504 32.1989 13.2504 32.9254 14.8567C33.6519 16.463 34 18.1725 34 19.9999C34 21.8272 33.6368 23.5367 32.9254 25.143C32.2141 26.7494 31.2303 28.1641 29.9892 29.3578C28.7481 30.5662 27.3103 31.5094 25.6605 32.2167C24.5103 32.703 23.3146 33.0125 22.0735 33.1746C21.1805 33.2778 20.3784 32.5851 20.3784 31.7009V31.6862Z" fill="#333333"/>
<path d="M11.2973 24.4211C10.8735 24.4211 10.5103 24.2737 10.2227 23.9937C9.93514 23.7137 9.78378 23.36 9.78378 22.9474C9.78378 22.5347 9.93514 22.1811 10.2227 21.9011C10.5103 21.6211 10.8735 21.4737 11.2973 21.4737C11.7211 21.4737 12.0843 21.6211 12.3719 21.9011C12.6595 22.1811 12.8108 22.5347 12.8108 22.9474C12.8108 23.36 12.6595 23.7137 12.3719 23.9937C12.0843 24.2737 11.7211 24.4211 11.2973 24.4211ZM11.2973 30.3158C10.8735 30.3158 10.5103 30.1684 10.2227 29.8884C9.93514 29.6084 9.78378 29.2547 9.78378 28.8421C9.78378 28.4295 9.93514 28.0758 10.2227 27.7958C10.5103 27.5158 10.8735 27.3684 11.2973 27.3684C11.7211 27.3684 12.0843 27.5158 12.3719 27.7958C12.6595 28.0758 12.8108 28.4295 12.8108 28.8421C12.8108 29.2547 12.6595 29.6084 12.3719 29.8884C12.0843 30.1684 11.7211 30.3158 11.2973 30.3158ZM11.2973 18.5263C10.8735 18.5263 10.5103 18.3789 10.2227 18.0989C9.93514 17.8189 9.78378 17.4653 9.78378 17.0526C9.78378 16.64 9.93514 16.2863 10.2227 16.0063C10.5103 15.7263 10.8735 15.5789 11.2973 15.5789C11.7211 15.5789 12.0843 15.7263 12.3719 16.0063C12.6595 16.2863 12.8108 16.64 12.8108 17.0526C12.8108 17.4653 12.6595 17.8189 12.3719 18.0989C12.0843 18.3789 11.7211 18.5263 11.2973 18.5263ZM6.75676 17.7895C6.56 17.7895 6.37838 17.7158 6.22703 17.5684C6.07568 17.4211 6 17.2442 6 17.0526C6 16.8611 6.07568 16.6842 6.22703 16.5368C6.37838 16.3895 6.56 16.3158 6.75676 16.3158C6.95351 16.3158 7.13514 16.3895 7.28649 16.5368C7.43784 16.6842 7.51351 16.8611 7.51351 17.0526C7.51351 17.2442 7.43784 17.4211 7.28649 17.5684C7.13514 17.7158 6.95351 17.7895 6.75676 17.7895ZM11.2973 12.6316C10.8735 12.6316 10.5103 12.4842 10.2227 12.2042C9.93514 11.9242 9.78378 11.5705 9.78378 11.1579C9.78378 10.7453 9.93514 10.3916 10.2227 10.1116C10.5103 9.83158 10.8735 9.68421 11.2973 9.68421C11.7211 9.68421 12.0843 9.83158 12.3719 10.1116C12.6595 10.3916 12.8108 10.7453 12.8108 11.1579C12.8108 11.5705 12.6595 11.9242 12.3719 12.2042C12.0843 12.4842 11.7211 12.6316 11.2973 12.6316ZM6.75676 23.6842C6.56 23.6842 6.37838 23.6105 6.22703 23.4632C6.07568 23.3158 6 23.1389 6 22.9474C6 22.7558 6.07568 22.5789 6.22703 22.4316C6.37838 22.2842 6.56 22.2105 6.75676 22.2105C6.95351 22.2105 7.13514 22.2842 7.28649 22.4316C7.43784 22.5789 7.51351 22.7558 7.51351 22.9474C7.51351 23.1389 7.43784 23.3158 7.28649 23.4632C7.13514 23.6105 6.95351 23.6842 6.75676 23.6842ZM17.3514 34C17.1546 34 16.973 33.9263 16.8216 33.7789C16.6703 33.6316 16.5946 33.4547 16.5946 33.2632C16.5946 33.0716 16.6703 32.8947 16.8216 32.7474C16.973 32.6 17.1546 32.5263 17.3514 32.5263C17.5481 32.5263 17.7297 32.6 17.8811 32.7474C18.0324 32.8947 18.1081 33.0716 18.1081 33.2632C18.1081 33.4547 18.0324 33.6316 17.8811 33.7789C17.7297 33.9263 17.5481 34 17.3514 34ZM17.3514 7.47368C17.1546 7.47368 16.973 7.4 16.8216 7.25263C16.6703 7.10526 16.5946 6.92842 16.5946 6.73684C16.5946 6.54526 16.6703 6.36842 16.8216 6.22105C16.973 6.07368 17.1546 6 17.3514 6C17.5481 6 17.7297 6.07368 17.8811 6.22105C18.0324 6.36842 18.1081 6.54526 18.1081 6.73684C18.1081 6.92842 18.0324 7.10526 17.8811 7.25263C17.7297 7.4 17.5481 7.47368 17.3514 7.47368ZM17.3514 12.6316C16.9276 12.6316 16.5643 12.4842 16.2768 12.2042C15.9892 11.9242 15.8378 11.5705 15.8378 11.1579C15.8378 10.7453 15.9892 10.3916 16.2768 10.1116C16.5643 9.83158 16.9276 9.68421 17.3514 9.68421C17.7751 9.68421 18.1384 9.83158 18.4259 10.1116C18.7135 10.3916 18.8649 10.7453 18.8649 11.1579C18.8649 11.5705 18.7135 11.9242 18.4259 12.2042C18.1384 12.4842 17.7751 12.6316 17.3514 12.6316ZM17.3514 25.1579C16.7157 25.1579 16.1859 24.9368 15.747 24.5095C15.3081 24.0821 15.0811 23.5516 15.0811 22.9474C15.0811 22.3432 15.3081 21.8126 15.747 21.3853C16.1859 20.9579 16.7308 20.7368 17.3514 20.7368C17.9719 20.7368 18.5168 20.9579 18.9557 21.3853C19.3946 21.8126 19.6216 22.3432 19.6216 22.9474C19.6216 23.5516 19.3946 24.0821 18.9557 24.5095C18.5168 24.9368 17.9719 25.1579 17.3514 25.1579ZM17.3514 19.2632C16.7157 19.2632 16.1859 19.0421 15.747 18.6147C15.3081 18.1874 15.0811 17.6568 15.0811 17.0526C15.0811 16.4484 15.3081 15.9179 15.747 15.4905C16.1859 15.0632 16.7308 14.8421 17.3514 14.8421C17.9719 14.8421 18.5168 15.0632 18.9557 15.4905C19.3946 15.9179 19.6216 16.4484 19.6216 17.0526C19.6216 17.6568 19.3946 18.1874 18.9557 18.6147C18.5168 19.0421 17.9719 19.2632 17.3514 19.2632ZM17.3514 30.3158C16.9276 30.3158 16.5643 30.1684 16.2768 29.8884C15.9892 29.6084 15.8378 29.2547 15.8378 28.8421C15.8378 28.4295 15.9892 28.0758 16.2768 27.7958C16.5643 27.5158 16.9276 27.3684 17.3514 27.3684C17.7751 27.3684 18.1384 27.5158 18.4259 27.7958C18.7135 28.0758 18.8649 28.4295 18.8649 28.8421C18.8649 29.2547 18.7135 29.6084 18.4259 29.8884C18.1384 30.1684 17.7751 30.3158 17.3514 30.3158Z" fill="#333333"/>
</svg>
