<svg width="40" height="40" viewBox="0 0 40 40" fill="none" xmlns="http://www.w3.org/2000/svg">
<path fill-rule="evenodd" clip-rule="evenodd" d="M32 2H8C4.68629 2 2 4.68629 2 8V32C2 35.3137 4.68629 38 8 38H32C35.3137 38 38 35.3137 38 32V8C38 4.68629 35.3137 2 32 2ZM8 0C3.58172 0 0 3.58172 0 8V32C0 36.4183 3.58172 40 8 40H32C36.4183 40 40 36.4183 40 32V8C40 3.58172 36.4183 0 32 0H8Z" fill="#333333"/>
<path d="M6.98147 10C6.72204 10 6.47269 10.1012 6.28843 10.2822C6.10407 10.4632 6 10.7094 6 10.9666C6 11.1584 6.05792 11.3457 6.16611 11.5047C6.27427 11.6637 6.42773 11.7872 6.60676 11.86C6.78577 11.9329 6.98259 11.9519 7.17244 11.9148C7.36232 11.8777 7.53709 11.7861 7.67452 11.6511C7.81198 11.5161 7.90591 11.3437 7.94399 11.1557C7.98207 10.9677 7.9625 10.7728 7.88787 10.5958C7.81325 10.4189 7.68707 10.2681 7.52571 10.1622C7.36438 10.0563 7.17499 10 6.98147 10Z" fill="#333333"/>
<path d="M9.92492 10C9.66549 10 9.41614 10.1012 9.23187 10.2822C9.04752 10.4632 8.94344 10.7094 8.94344 10.9666C8.94344 11.1584 9.00136 11.3457 9.10955 11.5047C9.21771 11.6637 9.37116 11.7872 9.5502 11.86C9.72921 11.9329 9.92603 11.9519 10.1159 11.9148C10.3058 11.8777 10.4805 11.7861 10.618 11.6511C10.7554 11.5161 10.8494 11.3437 10.8874 11.1557C10.9255 10.9677 10.9059 10.7728 10.8313 10.5958C10.7567 10.4189 10.6305 10.2681 10.4692 10.1622C10.3078 10.0563 10.1184 10 9.92492 10Z" fill="#333333"/>
<path d="M13.1077 10C12.8483 10 12.5989 10.1012 12.4146 10.2822C12.2303 10.4632 12.1262 10.7094 12.1262 10.9666C12.1262 11.1584 12.1841 11.3457 12.2923 11.5047C12.4005 11.6637 12.5539 11.7872 12.733 11.86C12.912 11.9329 13.1088 11.9519 13.2987 11.9148C13.4885 11.8777 13.6633 11.7861 13.8007 11.6511C13.9382 11.5161 14.0321 11.3437 14.0702 11.1557C14.1083 10.9677 14.0887 10.7728 14.0141 10.5958C13.9395 10.4189 13.8133 10.2681 13.6519 10.1622C13.4906 10.0563 13.3012 10 13.1077 10Z" fill="#333333"/>
<path d="M16.1708 10C15.9114 10 15.662 10.1012 15.4777 10.2822C15.2934 10.4632 15.1893 10.7094 15.1893 10.9666C15.1893 11.1584 15.2472 11.3457 15.3554 11.5047C15.4636 11.6637 15.617 11.7872 15.7961 11.86C15.9751 11.9329 16.1719 11.9519 16.3618 11.9148C16.5516 11.8777 16.7264 11.7861 16.8638 11.6511C17.0013 11.5161 17.0952 11.3437 17.1333 11.1557C17.1714 10.9677 17.1518 10.7728 17.0772 10.5958C17.0026 10.4189 16.8764 10.2681 16.715 10.1622C16.5537 10.0563 16.3643 10 16.1708 10Z" fill="#333333"/>
<path d="M25.3601 10C25.1007 10 24.8513 10.1012 24.6671 10.2822C24.4827 10.4632 24.3786 10.7094 24.3786 10.9666C24.3786 11.1584 24.4365 11.3456 24.5447 11.5047C24.6529 11.6637 24.8064 11.7872 24.9854 11.86C25.1644 11.9329 25.3612 11.9519 25.5511 11.9148C25.7409 11.8777 25.9157 11.7861 26.0531 11.6511C26.1906 11.5161 26.2845 11.3437 26.3226 11.1557C26.3607 10.9677 26.3411 10.7728 26.2665 10.5958C26.1919 10.4189 26.0657 10.2681 25.9044 10.1622C25.743 10.0563 25.5536 10 25.3601 10Z" fill="#333333"/>
<path d="M28.4232 10C28.1638 10 27.9144 10.1012 27.7302 10.2822C27.5458 10.4632 27.4417 10.7094 27.4417 10.9666C27.4417 11.1584 27.4996 11.3456 27.6078 11.5047C27.716 11.6637 27.8695 11.7872 28.0485 11.86C28.2275 11.9329 28.4243 11.9519 28.6142 11.9148C28.804 11.8777 28.9788 11.7861 29.1162 11.6511C29.2537 11.5161 29.3476 11.3437 29.3857 11.1557C29.4238 10.9677 29.4042 10.7728 29.3296 10.5958C29.255 10.4189 29.1288 10.2681 28.9675 10.1622C28.8061 10.0563 28.6167 10 28.4232 10Z" fill="#333333"/>
<path d="M31.5468 10C31.2874 10 31.0381 10.1012 30.8538 10.2822C30.6694 10.4632 30.5653 10.7094 30.5653 10.9666C30.5653 11.1584 30.6232 11.3456 30.7314 11.5047C30.8396 11.6637 30.9931 11.7872 31.1721 11.86C31.3511 11.9329 31.5479 11.9519 31.7378 11.9148C31.9277 11.8777 32.1024 11.7861 32.2399 11.6511C32.3773 11.5161 32.4713 11.3437 32.5093 11.1557C32.5474 10.9677 32.5278 10.7728 32.4532 10.5958C32.3786 10.4189 32.2525 10.2681 32.0911 10.1622C31.9298 10.0563 31.7403 10 31.5468 10Z" fill="#333333"/>
<path d="M8.45319 11.4454C8.19376 11.4454 7.94441 11.5466 7.76014 11.7276C7.57579 11.9087 7.47172 12.1548 7.47172 12.4121C7.47172 12.6039 7.52964 12.7911 7.63783 12.9501C7.746 13.1091 7.89945 13.2326 8.07848 13.3055C8.25749 13.3783 8.45431 13.3973 8.64417 13.3602C8.83403 13.3231 9.00881 13.2315 9.14624 13.0965C9.28371 12.9615 9.37763 12.7892 9.41571 12.6012C9.45379 12.4131 9.43422 12.2182 9.35959 12.0413C9.28497 11.8644 9.15879 11.7136 8.99743 11.6077C8.8361 11.5018 8.64671 11.4454 8.45319 11.4454Z" fill="#333333"/>
<path d="M20.7661 11.4454C20.6376 11.4454 20.5103 11.4703 20.3914 11.5187C20.2725 11.567 20.1643 11.638 20.0731 11.7276C19.9819 11.8172 19.9093 11.9238 19.8597 12.0413C19.8102 12.1588 19.7847 12.2848 19.7847 12.4121C19.7847 12.6038 19.8425 12.7911 19.9507 12.9501C20.0589 13.1091 20.2124 13.2327 20.3914 13.3055C20.5704 13.3783 20.7672 13.3973 20.9571 13.3602C21.147 13.3231 21.3217 13.2315 21.4592 13.0965C21.5966 12.9615 21.6906 12.7892 21.7286 12.6012C21.7667 12.4131 21.7471 12.2182 21.6725 12.0413C21.5979 11.8644 21.4718 11.7136 21.3104 11.6077C21.1491 11.5018 20.9597 11.4454 20.7661 11.4454Z" fill="#333333"/>
<path d="M26.8923 11.4454C26.7638 11.4454 26.6365 11.4703 26.5176 11.5187C26.3987 11.567 26.2906 11.638 26.1993 11.7276C26.1081 11.8172 26.0355 11.9238 25.9859 12.0413C25.9364 12.1588 25.9109 12.2848 25.9109 12.4121C25.9109 12.6038 25.9687 12.7911 26.0769 12.9501C26.1851 13.1091 26.3386 13.2327 26.5176 13.3055C26.6966 13.3783 26.8935 13.3973 27.0833 13.3602C27.2732 13.3231 27.4479 13.2315 27.5854 13.0965C27.7228 12.9615 27.8168 12.7892 27.8549 12.6012C27.8929 12.4131 27.8733 12.2182 27.7987 12.0413C27.7241 11.8644 27.598 11.7136 27.4366 11.6077C27.2753 11.5018 27.0859 11.4454 26.8923 11.4454Z" fill="#333333"/>
<path d="M33.0185 11.4454C32.7591 11.4454 32.5097 11.5466 32.3255 11.7276C32.1411 11.9087 32.0371 12.1549 32.0371 12.4121C32.0371 12.6038 32.095 12.7911 32.2032 12.9501C32.3113 13.1091 32.4648 13.2327 32.6438 13.3055C32.8228 13.3783 33.0196 13.3973 33.2095 13.3602C33.3993 13.3231 33.5742 13.2315 33.7116 13.0965C33.8492 12.9615 33.943 12.7891 33.981 12.6012C34.0191 12.4132 33.9996 12.2183 33.925 12.0413C33.8503 11.8643 33.7241 11.7135 33.5628 11.6077C33.4014 11.5018 33.212 11.4454 33.0185 11.4454Z" fill="#333333"/>
<path d="M6.98147 13.0111C6.72204 13.0111 6.47269 13.1123 6.28843 13.2933C6.10407 13.4744 6 13.7205 6 13.9778C6 14.1695 6.05792 14.3568 6.16611 14.5158C6.27428 14.6748 6.42773 14.7983 6.60676 14.8712C6.78576 14.944 6.98258 14.963 7.17244 14.9259C7.36232 14.8888 7.53709 14.7972 7.67452 14.6622C7.81198 14.5272 7.90591 14.3549 7.94399 14.1668C7.98207 13.9788 7.9625 13.7839 7.88787 13.607C7.81325 13.43 7.68707 13.2792 7.52571 13.1733C7.36438 13.0675 7.17499 13.0111 6.98147 13.0111Z" fill="#333333"/>
<path d="M9.92492 13.0111C9.66548 13.0111 9.41613 13.1123 9.23187 13.2933C9.04752 13.4744 8.94344 13.7205 8.94344 13.9778C8.94344 14.1695 9.00136 14.3568 9.10955 14.5158C9.21771 14.6748 9.37116 14.7983 9.5502 14.8712C9.7292 14.944 9.92602 14.963 10.1159 14.9259C10.3058 14.8888 10.4805 14.7972 10.618 14.6622C10.7554 14.5272 10.8493 14.3549 10.8874 14.1668C10.9255 13.9788 10.9059 13.7839 10.8313 13.607C10.7567 13.43 10.6305 13.2792 10.4692 13.1733C10.3078 13.0675 10.1184 13.0111 9.92492 13.0111Z" fill="#333333"/>
<path d="M19.2339 13.0111C18.9745 13.0111 18.7251 13.1123 18.5408 13.2933C18.3565 13.4744 18.2524 13.7205 18.2524 13.9778C18.2524 14.1695 18.3103 14.3568 18.4185 14.5158C18.5267 14.6748 18.6801 14.7983 18.8592 14.8712C19.0382 14.944 19.235 14.963 19.4249 14.9259C19.6147 14.8888 19.7895 14.7972 19.9269 14.6622C20.0644 14.5272 20.1583 14.3549 20.1964 14.1668C20.2345 13.9788 20.2149 13.7839 20.1403 13.607C20.0657 13.43 19.9395 13.2792 19.7781 13.1733C19.6168 13.0675 19.4274 13.0111 19.2339 13.0111Z" fill="#333333"/>
<path d="M22.297 13.0111C22.0376 13.0111 21.7882 13.1123 21.604 13.2933C21.4196 13.4744 21.3155 13.7205 21.3155 13.9778C21.3155 14.1695 21.3734 14.3568 21.4816 14.5158C21.5898 14.6748 21.7433 14.7983 21.9223 14.8712C22.1013 14.944 22.2981 14.963 22.488 14.9259C22.6778 14.8888 22.8526 14.7972 22.99 14.6622C23.1275 14.5272 23.2214 14.3549 23.2595 14.1668C23.2976 13.9788 23.278 13.7839 23.2034 13.607C23.1288 13.43 23.0026 13.2793 22.8413 13.1733C22.6799 13.0675 22.4905 13.0111 22.297 13.0111Z" fill="#333333"/>
<path d="M25.3601 13.0111C25.1007 13.0111 24.8513 13.1123 24.6671 13.2933C24.4827 13.4744 24.3786 13.7205 24.3786 13.9778C24.3786 14.1695 24.4365 14.3568 24.5447 14.5158C24.6529 14.6748 24.8064 14.7983 24.9854 14.8712C25.1644 14.944 25.3612 14.963 25.5511 14.9259C25.7409 14.8888 25.9157 14.7972 26.0531 14.6622C26.1906 14.5272 26.2845 14.3549 26.3226 14.1668C26.3607 13.9788 26.3411 13.7839 26.2665 13.607C26.1919 13.43 26.0657 13.2793 25.9044 13.1733C25.743 13.0675 25.5536 13.0111 25.3601 13.0111Z" fill="#333333"/>
<path d="M31.5468 13.0111C31.2874 13.0111 31.0381 13.1123 30.8538 13.2933C30.6694 13.4744 30.5653 13.7205 30.5653 13.9778C30.5653 14.1695 30.6232 14.3568 30.7314 14.5158C30.8396 14.6748 30.9931 14.7983 31.1721 14.8712C31.3511 14.944 31.5479 14.963 31.7378 14.9259C31.9277 14.8888 32.1024 14.7972 32.2399 14.6622C32.3773 14.5272 32.4713 14.3549 32.5093 14.1668C32.5474 13.9788 32.5278 13.7839 32.4532 13.607C32.3786 13.43 32.2525 13.2793 32.0911 13.1733C31.9298 13.0675 31.7403 13.0111 31.5468 13.0111Z" fill="#333333"/>
<path d="M11.5768 14.516C11.3174 14.516 11.068 14.6172 10.8838 14.7982C10.6994 14.9792 10.5953 15.2254 10.5953 15.4826C10.5953 15.6744 10.6533 15.8617 10.7615 16.0207C10.8696 16.1797 11.0231 16.3032 11.2021 16.376C11.3811 16.4489 11.5779 16.4679 11.7678 16.4308C11.9577 16.3937 12.1324 16.3021 12.2699 16.1671C12.4073 16.0321 12.5013 15.8598 12.5393 15.6717C12.5774 15.4837 12.5578 15.2888 12.4832 15.1118C12.4086 14.9349 12.2824 14.7841 12.1211 14.6782C11.9597 14.5724 11.7703 14.516 11.5768 14.516Z" fill="#333333"/>
<path d="M17.703 14.516C17.4436 14.516 17.1942 14.6172 17.01 14.7982C16.8256 14.9793 16.7216 15.2254 16.7216 15.4826C16.7216 15.6744 16.7795 15.8617 16.8877 16.0207C16.9958 16.1797 17.1493 16.3032 17.3283 16.376C17.5073 16.4489 17.7041 16.4679 17.894 16.4308C18.0839 16.3937 18.2586 16.3021 18.3961 16.1671C18.5335 16.0321 18.6275 15.8598 18.6655 15.6717C18.7036 15.4837 18.6841 15.2888 18.6094 15.1118C18.5348 14.9349 18.4086 14.7841 18.2473 14.6782C18.0859 14.5724 17.8966 14.516 17.703 14.516Z" fill="#333333"/>
<path d="M20.7661 14.516C20.6376 14.516 20.5103 14.5409 20.3914 14.5892C20.2725 14.6376 20.1643 14.7086 20.0731 14.7982C19.9819 14.8878 19.9093 14.9943 19.8597 15.1118C19.8102 15.2293 19.7847 15.3554 19.7847 15.4826C19.7847 15.6744 19.8425 15.8617 19.9507 16.0207C20.0589 16.1797 20.2124 16.3032 20.3914 16.376C20.5704 16.4489 20.7672 16.4679 20.9571 16.4308C21.147 16.3937 21.3217 16.3021 21.4592 16.1671C21.5966 16.0321 21.6906 15.8598 21.7286 15.6717C21.7667 15.4837 21.7471 15.2888 21.6725 15.1118C21.5979 14.9349 21.4718 14.7841 21.3104 14.6782C21.1491 14.5724 20.9597 14.516 20.7661 14.516Z" fill="#333333"/>
<path d="M26.8923 14.516C26.7638 14.516 26.6365 14.5409 26.5176 14.5892C26.3987 14.6376 26.2905 14.7086 26.1993 14.7982C26.1081 14.8878 26.0355 14.9943 25.9859 15.1118C25.9364 15.2293 25.9109 15.3554 25.9109 15.4826C25.9109 15.6744 25.9687 15.8617 26.0769 16.0207C26.1851 16.1797 26.3386 16.3032 26.5176 16.376C26.6966 16.4489 26.8934 16.4679 27.0833 16.4308C27.2732 16.3937 27.448 16.3021 27.5854 16.1671C27.7228 16.0321 27.8168 15.8598 27.8549 15.6717C27.8929 15.4837 27.8733 15.2888 27.7987 15.1118C27.7241 14.9349 27.598 14.7841 27.4366 14.6782C27.2753 14.5724 27.0859 14.516 26.8923 14.516Z" fill="#333333"/>
<path d="M30.0751 14.516C29.8157 14.516 29.5663 14.6172 29.3821 14.7982C29.1977 14.9792 29.0936 15.2254 29.0936 15.4826C29.0936 15.6744 29.1515 15.8617 29.2597 16.0207C29.3679 16.1797 29.5214 16.3032 29.7004 16.376C29.8794 16.4489 30.0762 16.4679 30.2661 16.4308C30.456 16.3937 30.6307 16.3021 30.7682 16.1671C30.9056 16.0321 30.9995 15.8598 31.0376 15.6717C31.0757 15.4837 31.0561 15.2888 30.9815 15.1118C30.9069 14.9349 30.7807 14.7841 30.6194 14.6782C30.458 14.5724 30.2686 14.516 30.0751 14.516Z" fill="#333333"/>
<path d="M6.98147 16.0222C6.72204 16.0222 6.47269 16.1234 6.28843 16.3044C6.10407 16.4855 6 16.7316 6 16.9889C6 17.1807 6.05792 17.3679 6.16611 17.5269C6.27427 17.6859 6.42772 17.8095 6.60676 17.8823C6.78577 17.9551 6.98259 17.9741 7.17244 17.937C7.36232 17.8999 7.53709 17.8083 7.67452 17.6733C7.81198 17.5383 7.90591 17.366 7.94399 17.178C7.98207 16.9899 7.9625 16.795 7.88787 16.6181C7.81325 16.4411 7.68707 16.2904 7.52571 16.1845C7.36438 16.0786 7.17499 16.0222 6.98147 16.0222Z" fill="#333333"/>
<path d="M16.1708 16.0222C15.9114 16.0222 15.662 16.1234 15.4777 16.3044C15.2934 16.4855 15.1893 16.7316 15.1893 16.9889C15.1893 17.1807 15.2472 17.3679 15.3554 17.5269C15.4636 17.6859 15.617 17.8095 15.7961 17.8823C15.9751 17.9551 16.1719 17.9741 16.3618 17.937C16.5516 17.8999 16.7264 17.8083 16.8638 17.6733C17.0013 17.5383 17.0952 17.366 17.1333 17.178C17.1714 16.9899 17.1518 16.795 17.0772 16.6181C17.0026 16.4411 16.8764 16.2904 16.715 16.1845C16.5537 16.0786 16.3643 16.0222 16.1708 16.0222Z" fill="#333333"/>
<path d="M28.4232 16.0222C28.1638 16.0222 27.9144 16.1234 27.7302 16.3044C27.5458 16.4855 27.4417 16.7316 27.4417 16.9889C27.4417 17.1806 27.4996 17.3679 27.6078 17.5269C27.716 17.6859 27.8695 17.8095 28.0485 17.8823C28.2275 17.9551 28.4243 17.9741 28.6142 17.937C28.8041 17.8999 28.9788 17.8083 29.1162 17.6733C29.2537 17.5383 29.3476 17.366 29.3857 17.178C29.4238 16.9899 29.4042 16.795 29.3296 16.6181C29.255 16.4412 29.1288 16.2904 28.9675 16.1845C28.8061 16.0786 28.6167 16.0222 28.4232 16.0222Z" fill="#333333"/>
<path d="M31.5468 16.0222C31.2874 16.0222 31.0381 16.1235 30.8538 16.3044C30.6694 16.4855 30.5653 16.7316 30.5653 16.9889C30.5653 17.1806 30.6232 17.3679 30.7314 17.5269C30.8396 17.6859 30.9931 17.8095 31.1721 17.8823C31.3511 17.9551 31.5479 17.9741 31.7378 17.937C31.9277 17.8999 32.1024 17.8083 32.2399 17.6733C32.3773 17.5383 32.4713 17.366 32.5093 17.178C32.5474 16.9899 32.5278 16.795 32.4532 16.6181C32.3786 16.4412 32.2525 16.2904 32.0911 16.1845C31.9298 16.0786 31.7403 16.0222 31.5468 16.0222Z" fill="#333333"/>
<path d="M8.45319 17.5271C8.19377 17.5271 7.94441 17.6283 7.76014 17.8093C7.57578 17.9904 7.47172 18.2365 7.47172 18.4938C7.47172 18.6856 7.52964 18.8728 7.63783 19.0318C7.74599 19.1908 7.89944 19.3143 8.07848 19.3872C8.25749 19.46 8.45431 19.479 8.64417 19.4419C8.83404 19.4048 9.00882 19.3132 9.14624 19.1782C9.28371 19.0432 9.37763 18.8709 9.41571 18.6828C9.45379 18.4948 9.43422 18.2999 9.35959 18.123C9.28497 17.946 9.15879 17.7952 8.99743 17.6894C8.8361 17.5835 8.64671 17.5271 8.45319 17.5271Z" fill="#333333"/>
<path d="M11.5768 17.5271C11.3174 17.5271 11.068 17.6283 10.8838 17.8093C10.6994 17.9904 10.5953 18.2365 10.5953 18.4938C10.5953 18.6856 10.6533 18.8728 10.7615 19.0318C10.8696 19.1908 11.0231 19.3143 11.2021 19.3872C11.3811 19.46 11.5779 19.479 11.7678 19.4419C11.9577 19.4048 12.1324 19.3132 12.2699 19.1782C12.4073 19.0432 12.5013 18.8709 12.5393 18.6828C12.5774 18.4948 12.5578 18.2999 12.4832 18.123C12.4086 17.946 12.2824 17.7952 12.1211 17.6894C11.9597 17.5835 11.7703 17.5271 11.5768 17.5271Z" fill="#333333"/>
<path d="M20.7661 17.5271C20.6376 17.5271 20.5103 17.552 20.3914 17.6004C20.2725 17.6487 20.1644 17.7197 20.0731 17.8093C19.9819 17.8989 19.9093 18.0055 19.8597 18.123C19.8102 18.2405 19.7847 18.3665 19.7847 18.4938C19.7847 18.6855 19.8425 18.8728 19.9507 19.0318C20.0589 19.1908 20.2124 19.3143 20.3914 19.3872C20.5704 19.46 20.7673 19.479 20.9571 19.4419C21.147 19.4048 21.3217 19.3132 21.4592 19.1782C21.5966 19.0432 21.6906 18.8709 21.7286 18.6828C21.7667 18.4948 21.7471 18.2999 21.6725 18.123C21.5979 17.9461 21.4718 17.7953 21.3104 17.6894C21.1491 17.5835 20.9597 17.5271 20.7661 17.5271Z" fill="#333333"/>
<path d="M23.8292 17.5271C23.5698 17.5271 23.3205 17.6283 23.1362 17.8093C22.9518 17.9904 22.8478 18.2365 22.8478 18.4938C22.8478 18.6855 22.9056 18.8728 23.0138 19.0318C23.122 19.1908 23.2755 19.3143 23.4545 19.3872C23.6335 19.46 23.8304 19.479 24.0202 19.4419C24.2101 19.4048 24.3848 19.3132 24.5223 19.1782C24.6597 19.0432 24.7537 18.8709 24.7917 18.6828C24.8298 18.4948 24.8102 18.2999 24.7356 18.123C24.661 17.9461 24.5349 17.7953 24.3735 17.6894C24.2122 17.5835 24.0228 17.5271 23.8292 17.5271Z" fill="#333333"/>
<path d="M30.0751 17.5271C29.8157 17.5271 29.5663 17.6283 29.3821 17.8093C29.1977 17.9904 29.0936 18.2365 29.0936 18.4938C29.0936 18.6855 29.1515 18.8728 29.2597 19.0318C29.3679 19.1908 29.5214 19.3143 29.7004 19.3872C29.8794 19.46 30.0762 19.479 30.2661 19.4419C30.456 19.4048 30.6307 19.3132 30.7682 19.1782C30.9056 19.0432 30.9995 18.8709 31.0376 18.6828C31.0757 18.4948 31.0561 18.2999 30.9815 18.123C30.9069 17.9461 30.7807 17.7953 30.6194 17.6894C30.458 17.5835 30.2686 17.5271 30.0751 17.5271Z" fill="#333333"/>
<path d="M33.0185 17.5271C32.7591 17.5271 32.5097 17.6283 32.3255 17.8093C32.1411 17.9904 32.0371 18.2366 32.0371 18.4938C32.0371 18.6855 32.095 18.8728 32.2032 19.0318C32.3113 19.1908 32.4648 19.3143 32.6438 19.3872C32.8228 19.46 33.0196 19.479 33.2095 19.4419C33.3993 19.4048 33.5742 19.3132 33.7116 19.1782C33.8492 19.0432 33.943 18.8708 33.981 18.6828C34.0191 18.4949 33.9996 18.3 33.925 18.123C33.8503 17.946 33.7241 17.7952 33.5628 17.6894C33.4014 17.5835 33.212 17.5271 33.0185 17.5271Z" fill="#333333"/>
<path d="M6.98147 19.0334C6.72205 19.0334 6.4727 19.1346 6.28843 19.3155C6.10407 19.4966 6 19.7428 6 20C6 20.1918 6.05792 20.379 6.16611 20.5381C6.27427 20.697 6.42772 20.8206 6.60676 20.8934C6.78577 20.9662 6.98259 20.9852 7.17244 20.9482C7.36232 20.9111 7.53709 20.8194 7.67452 20.6845C7.81198 20.5494 7.90591 20.3771 7.94399 20.1891C7.98207 20.001 7.9625 19.8062 7.88787 19.6292C7.81325 19.4523 7.68707 19.3015 7.52571 19.1956C7.36438 19.0897 7.17499 19.0334 6.98147 19.0334Z" fill="#333333"/>
<path d="M19.2339 19.0334C18.9745 19.0334 18.7251 19.1346 18.5408 19.3155C18.3565 19.4966 18.2524 19.7428 18.2524 20C18.2524 20.1918 18.3103 20.379 18.4185 20.5381C18.5267 20.697 18.6801 20.8206 18.8592 20.8934C19.0382 20.9662 19.235 20.9852 19.4249 20.9482C19.6147 20.9111 19.7895 20.8194 19.9269 20.6845C20.0644 20.5495 20.1583 20.3771 20.1964 20.1891C20.2345 20.0011 20.2149 19.8062 20.1403 19.6292C20.0657 19.4523 19.9395 19.3015 19.7781 19.1956C19.6168 19.0897 19.4274 19.0334 19.2339 19.0334Z" fill="#333333"/>
<path d="M28.4232 19.0334C28.1638 19.0334 27.9144 19.1346 27.7302 19.3155C27.5458 19.4966 27.4417 19.7428 27.4417 20C27.4417 20.1918 27.4996 20.379 27.6078 20.5381C27.716 20.6971 27.8695 20.8206 28.0485 20.8934C28.2275 20.9662 28.4243 20.9852 28.6142 20.9482C28.8041 20.9111 28.9788 20.8194 29.1162 20.6845C29.2537 20.5495 29.3476 20.3771 29.3857 20.1891C29.4238 20.001 29.4042 19.8061 29.3296 19.6292C29.255 19.4523 29.1288 19.3015 28.9675 19.1956C28.8061 19.0897 28.6167 19.0334 28.4232 19.0334Z" fill="#333333"/>
<path d="M31.5468 19.0334C31.2874 19.0334 31.0381 19.1346 30.8538 19.3155C30.6694 19.4966 30.5653 19.7428 30.5653 20C30.5653 20.1918 30.6232 20.379 30.7314 20.5381C30.8396 20.6971 30.9931 20.8206 31.1721 20.8934C31.3511 20.9662 31.5479 20.9852 31.7378 20.9482C31.9277 20.9111 32.1024 20.8194 32.2399 20.6845C32.3773 20.5494 32.4713 20.3771 32.5093 20.1891C32.5474 20.001 32.5278 19.8061 32.4532 19.6292C32.3786 19.4523 32.2525 19.3015 32.0911 19.1956C31.9298 19.0897 31.7403 19.0334 31.5468 19.0334Z" fill="#333333"/>
<path d="M8.45319 20.5383C8.19377 20.5383 7.94442 20.6394 7.76014 20.8204C7.57578 21.0015 7.47172 21.2477 7.47172 21.5049C7.47172 21.6967 7.52964 21.8839 7.63783 22.0429C7.74599 22.2019 7.89945 22.3255 8.07848 22.3983C8.25749 22.4711 8.45431 22.4901 8.64417 22.453C8.83404 22.4159 9.00882 22.3243 9.14624 22.1893C9.28371 22.0543 9.37763 21.882 9.41571 21.694C9.45379 21.5059 9.43422 21.311 9.35959 21.1341C9.28497 20.9572 9.15879 20.8064 8.99743 20.7005C8.8361 20.5946 8.64671 20.5383 8.45319 20.5383Z" fill="#333333"/>
<path d="M11.5768 20.5383C11.3174 20.5383 11.068 20.6394 10.8838 20.8204C10.6994 21.0015 10.5953 21.2477 10.5953 21.5049C10.5953 21.6967 10.6533 21.8839 10.7615 22.0429C10.8696 22.2019 11.0231 22.3255 11.2021 22.3983C11.3811 22.4711 11.5779 22.4901 11.7678 22.453C11.9577 22.4159 12.1324 22.3243 12.2699 22.1893C12.4073 22.0543 12.5013 21.882 12.5393 21.694C12.5774 21.5059 12.5578 21.311 12.4832 21.1341C12.4086 20.9572 12.2824 20.8064 12.1211 20.7005C11.9597 20.5946 11.7703 20.5383 11.5768 20.5383Z" fill="#333333"/>
<path d="M14.6399 20.5383C14.3805 20.5383 14.1311 20.6394 13.9469 20.8204C13.7625 21.0015 13.6584 21.2477 13.6584 21.5049C13.6584 21.6967 13.7164 21.8839 13.8246 22.0429C13.9327 22.2019 14.0862 22.3255 14.2652 22.3983C14.4442 22.4711 14.641 22.4901 14.8309 22.453C15.0208 22.4159 15.1955 22.3243 15.333 22.1893C15.4704 22.0543 15.5644 21.882 15.6024 21.694C15.6405 21.5059 15.621 21.3111 15.5463 21.1341C15.4717 20.9571 15.3455 20.8064 15.1842 20.7005C15.0228 20.5946 14.8334 20.5383 14.6399 20.5383Z" fill="#333333"/>
<path d="M17.703 20.5383C17.4436 20.5383 17.1942 20.6394 17.01 20.8204C16.8256 21.0015 16.7216 21.2477 16.7216 21.5049C16.7216 21.6967 16.7795 21.8839 16.8877 22.0429C16.9958 22.2019 17.1493 22.3255 17.3283 22.3983C17.5073 22.4711 17.7041 22.4901 17.894 22.453C18.0839 22.4159 18.2586 22.3243 18.3961 22.1893C18.5335 22.0543 18.6275 21.882 18.6655 21.694C18.7036 21.5059 18.6841 21.3111 18.6094 21.1341C18.5348 20.9571 18.4086 20.8064 18.2473 20.7005C18.0859 20.5946 17.8966 20.5383 17.703 20.5383Z" fill="#333333"/>
<path d="M23.8292 20.5383C23.5698 20.5383 23.3205 20.6394 23.1362 20.8204C22.9518 21.0015 22.8478 21.2476 22.8478 21.5049C22.8478 21.6967 22.9056 21.8839 23.0138 22.0429C23.122 22.2019 23.2755 22.3255 23.4545 22.3983C23.6335 22.4711 23.8304 22.4901 24.0202 22.453C24.2101 22.4159 24.3848 22.3243 24.5223 22.1893C24.6597 22.0543 24.7537 21.882 24.7917 21.694C24.8298 21.5059 24.8102 21.311 24.7356 21.1341C24.661 20.9572 24.5349 20.8064 24.3735 20.7005C24.2122 20.5946 24.0228 20.5383 23.8292 20.5383Z" fill="#333333"/>
<path d="M26.8923 20.5383C26.7638 20.5383 26.6365 20.5631 26.5176 20.6115C26.3987 20.6598 26.2906 20.7308 26.1993 20.8204C26.1081 20.91 26.0355 21.0166 25.9859 21.1341C25.9364 21.2516 25.9109 21.3776 25.9109 21.5049C25.9109 21.6967 25.9687 21.8839 26.0769 22.0429C26.1851 22.2019 26.3386 22.3255 26.5176 22.3983C26.6966 22.4711 26.8935 22.4901 27.0833 22.453C27.2732 22.4159 27.448 22.3243 27.5854 22.1893C27.7228 22.0543 27.8168 21.882 27.8549 21.694C27.8929 21.5059 27.8733 21.311 27.7987 21.1341C27.7241 20.9572 27.598 20.8064 27.4366 20.7005C27.2753 20.5946 27.0859 20.5383 26.8923 20.5383Z" fill="#333333"/>
<path d="M33.0185 20.5383C32.7591 20.5383 32.5097 20.6394 32.3255 20.8204C32.1411 21.0015 32.0371 21.2477 32.0371 21.5049C32.0371 21.6967 32.095 21.8839 32.2032 22.0429C32.3113 22.2019 32.4648 22.3255 32.6438 22.3983C32.8228 22.4711 33.0196 22.4901 33.2095 22.453C33.3993 22.416 33.5742 22.3243 33.7116 22.1893C33.8492 22.0543 33.943 21.8819 33.981 21.694C34.0191 21.506 33.9996 21.3111 33.925 21.1341C33.8503 20.9571 33.7241 20.8063 33.5628 20.7005C33.4014 20.5946 33.212 20.5383 33.0185 20.5383Z" fill="#333333"/>
<path d="M9.92492 22.0445C9.66549 22.0445 9.41614 22.1457 9.23187 22.3267C9.04751 22.5077 8.94344 22.7539 8.94344 23.0111C8.94344 23.2029 9.00136 23.3902 9.10955 23.5492C9.21771 23.7082 9.37116 23.8317 9.5502 23.9045C9.72921 23.9774 9.92603 23.9964 10.1159 23.9593C10.3058 23.9222 10.4805 23.8305 10.618 23.6956C10.7554 23.5606 10.8493 23.3882 10.8874 23.2002C10.9255 23.0122 10.9059 22.8173 10.8313 22.6403C10.7567 22.4634 10.6305 22.3126 10.4692 22.2067C10.3078 22.1008 10.1184 22.0445 9.92492 22.0445Z" fill="#333333"/>
<path d="M13.1077 22.0445C12.8483 22.0445 12.5989 22.1457 12.4146 22.3267C12.2303 22.5077 12.1262 22.7539 12.1262 23.0111C12.1262 23.2029 12.1841 23.3902 12.2923 23.5492C12.4005 23.7082 12.5539 23.8317 12.733 23.9045C12.912 23.9774 13.1088 23.9964 13.2987 23.9593C13.4885 23.9222 13.6633 23.8305 13.8007 23.6956C13.9382 23.5606 14.0321 23.3882 14.0702 23.2002C14.1083 23.0122 14.0887 22.8173 14.0141 22.6403C13.9395 22.4634 13.8133 22.3126 13.6519 22.2067C13.4906 22.1008 13.3012 22.0445 13.1077 22.0445Z" fill="#333333"/>
<path d="M16.1708 22.0445C15.9114 22.0445 15.662 22.1457 15.4777 22.3267C15.2934 22.5077 15.1893 22.7539 15.1893 23.0111C15.1893 23.2029 15.2472 23.3902 15.3554 23.5492C15.4636 23.7082 15.617 23.8317 15.7961 23.9045C15.9751 23.9774 16.1719 23.9964 16.3618 23.9593C16.5516 23.9222 16.7264 23.8305 16.8638 23.6956C17.0013 23.5606 17.0952 23.3882 17.1333 23.2002C17.1714 23.0122 17.1518 22.8173 17.0772 22.6403C17.0026 22.4634 16.8764 22.3126 16.715 22.2067C16.5537 22.1008 16.3643 22.0445 16.1708 22.0445Z" fill="#333333"/>
<path d="M25.3601 22.0445C25.1007 22.0445 24.8513 22.1457 24.6671 22.3267C24.4827 22.5077 24.3786 22.7539 24.3786 23.0111C24.3786 23.2029 24.4365 23.3901 24.5447 23.5492C24.6529 23.7082 24.8064 23.8317 24.9854 23.9045C25.1644 23.9774 25.3612 23.9964 25.5511 23.9593C25.7409 23.9222 25.9157 23.8305 26.0531 23.6956C26.1906 23.5606 26.2845 23.3882 26.3226 23.2002C26.3607 23.0122 26.3411 22.8173 26.2665 22.6403C26.1919 22.4634 26.0657 22.3126 25.9044 22.2067C25.743 22.1008 25.5536 22.0445 25.3601 22.0445Z" fill="#333333"/>
<path d="M11.5768 23.5494C11.4483 23.5494 11.321 23.5742 11.2021 23.6226C11.0832 23.671 10.975 23.742 10.8838 23.8316C10.7925 23.9212 10.72 24.0277 10.6704 24.1452C10.6209 24.2627 10.5953 24.3887 10.5953 24.516C10.5953 24.7078 10.6533 24.8951 10.7615 25.0541C10.8696 25.2131 11.0231 25.3366 11.2021 25.4094C11.3811 25.4822 11.5779 25.5013 11.7678 25.4642C11.9577 25.4271 12.1324 25.3354 12.2699 25.2005C12.4073 25.0655 12.5013 24.8931 12.5393 24.7051C12.5774 24.5171 12.5578 24.3222 12.4832 24.1452C12.4086 23.9683 12.2824 23.8175 12.1211 23.7116C11.9597 23.6057 11.7703 23.5494 11.5768 23.5494Z" fill="#333333"/>
<path d="M20.7661 23.5494C20.6377 23.5494 20.5103 23.5742 20.3914 23.6226C20.2725 23.671 20.1643 23.742 20.0731 23.8316C19.9819 23.9212 19.9093 24.0277 19.8597 24.1452C19.8102 24.2627 19.7847 24.3887 19.7847 24.516C19.7847 24.7078 19.8425 24.895 19.9507 25.0541C20.0589 25.2131 20.2124 25.3366 20.3914 25.4094C20.5704 25.4822 20.7672 25.5013 20.9571 25.4642C21.147 25.4271 21.3217 25.3354 21.4592 25.2005C21.5966 25.0655 21.6906 24.8931 21.7286 24.7051C21.7667 24.517 21.7471 24.3222 21.6725 24.1452C21.5979 23.9683 21.4718 23.8175 21.3104 23.7116C21.149 23.6057 20.9596 23.5494 20.7661 23.5494Z" fill="#333333"/>
<path d="M23.8292 23.5494C23.7008 23.5494 23.5734 23.5742 23.4545 23.6226C23.3356 23.671 23.2274 23.742 23.1362 23.8316C23.045 23.9212 22.9724 24.0277 22.9228 24.1452C22.8733 24.2627 22.8478 24.3887 22.8478 24.516C22.8478 24.7078 22.9056 24.895 23.0138 25.0541C23.122 25.2131 23.2755 25.3366 23.4545 25.4094C23.6335 25.4822 23.8303 25.5013 24.0202 25.4642C24.2101 25.4271 24.3848 25.3354 24.5223 25.2005C24.6597 25.0655 24.7537 24.8931 24.7917 24.7051C24.8298 24.517 24.8102 24.3222 24.7356 24.1452C24.661 23.9683 24.5349 23.8175 24.3735 23.7116C24.2121 23.6057 24.0227 23.5494 23.8292 23.5494Z" fill="#333333"/>
<path d="M33.0185 23.5494C32.89 23.5494 32.7627 23.5742 32.6438 23.6226C32.5249 23.671 32.4167 23.742 32.3255 23.8316C32.2342 23.9212 32.1617 24.0277 32.1121 24.1452C32.0626 24.2627 32.0371 24.3887 32.0371 24.516C32.0371 24.7078 32.095 24.895 32.2032 25.0541C32.3113 25.2131 32.4648 25.3366 32.6438 25.4094C32.8228 25.4822 33.0196 25.5013 33.2095 25.4642C33.3993 25.4271 33.5742 25.3355 33.7116 25.2005C33.8492 25.0654 33.943 24.893 33.981 24.7051C34.0191 24.5171 33.9996 24.3222 33.925 24.1452C33.8503 23.9683 33.7241 23.8175 33.5628 23.7116C33.4014 23.6057 33.212 23.5494 33.0185 23.5494Z" fill="#333333"/>
<path d="M9.92492 25.0556C9.66547 25.0556 9.41613 25.1568 9.23187 25.3378C9.04752 25.5189 8.94344 25.765 8.94344 26.0223C8.94344 26.214 9.00136 26.4013 9.10955 26.5603C9.21773 26.7194 9.37119 26.8428 9.5502 26.9156C9.72919 26.9885 9.92601 27.0075 10.1159 26.9704C10.3058 26.9333 10.4805 26.8417 10.618 26.7067C10.7554 26.5717 10.8493 26.3994 10.8874 26.2113C10.9255 26.0233 10.9059 25.8284 10.8313 25.6515C10.7567 25.4745 10.6305 25.3237 10.4692 25.2178C10.3078 25.1119 10.1184 25.0556 9.92492 25.0556Z" fill="#333333"/>
<path d="M16.1708 25.0556C15.9113 25.0556 15.662 25.1568 15.4777 25.3378C15.2934 25.5189 15.1893 25.765 15.1893 26.0223C15.1893 26.214 15.2472 26.4013 15.3554 26.5603C15.4636 26.7194 15.6171 26.8428 15.7961 26.9156C15.9751 26.9885 16.1719 27.0075 16.3618 26.9704C16.5516 26.9333 16.7264 26.8417 16.8638 26.7067C17.0013 26.5717 17.0952 26.3994 17.1333 26.2113C17.1714 26.0233 17.1518 25.8284 17.0772 25.6515C17.0026 25.4745 16.8764 25.3237 16.715 25.2178C16.5537 25.1119 16.3643 25.0556 16.1708 25.0556Z" fill="#333333"/>
<path d="M19.2339 25.0556C18.9745 25.0556 18.7251 25.1568 18.5408 25.3378C18.3565 25.5189 18.2524 25.765 18.2524 26.0223C18.2524 26.214 18.3103 26.4013 18.4185 26.5603C18.5267 26.7194 18.6802 26.8428 18.8592 26.9156C19.0382 26.9885 19.235 27.0075 19.4249 26.9704C19.6147 26.9333 19.7895 26.8417 19.9269 26.7067C20.0644 26.5717 20.1583 26.3994 20.1964 26.2113C20.2345 26.0233 20.2149 25.8284 20.1403 25.6515C20.0657 25.4745 19.9395 25.3237 19.7781 25.2178C19.6168 25.1119 19.4274 25.0556 19.2339 25.0556Z" fill="#333333"/>
<path d="M22.297 25.0556C22.0376 25.0556 21.7882 25.1568 21.604 25.3378C21.4196 25.5189 21.3155 25.765 21.3155 26.0223C21.3155 26.214 21.3734 26.4013 21.4816 26.5603C21.5898 26.7194 21.7433 26.8428 21.9223 26.9156C22.1013 26.9885 22.2981 27.0075 22.488 26.9704C22.6778 26.9333 22.8526 26.8417 22.99 26.7067C23.1275 26.5717 23.2214 26.3994 23.2595 26.2113C23.2976 26.0233 23.278 25.8284 23.2034 25.6515C23.1288 25.4746 23.0026 25.3237 22.8413 25.2178C22.6799 25.1119 22.4905 25.0556 22.297 25.0556Z" fill="#333333"/>
<path d="M28.4232 25.0556C28.1638 25.0556 27.9144 25.1568 27.7302 25.3378C27.5458 25.5189 27.4417 25.765 27.4417 26.0223C27.4417 26.214 27.4996 26.4013 27.6078 26.5603C27.716 26.7194 27.8695 26.8428 28.0485 26.9156C28.2275 26.9885 28.4243 27.0075 28.6142 26.9704C28.8041 26.9333 28.9788 26.8417 29.1162 26.7067C29.2537 26.5717 29.3476 26.3994 29.3857 26.2113C29.4238 26.0233 29.4042 25.8284 29.3296 25.6515C29.255 25.4746 29.1289 25.3237 28.9675 25.2178C28.8061 25.1119 28.6167 25.0556 28.4232 25.0556Z" fill="#333333"/>
<path d="M31.5468 25.0556C31.2874 25.0556 31.038 25.1568 30.8538 25.3378C30.6694 25.5189 30.5653 25.765 30.5653 26.0223C30.5653 26.214 30.6232 26.4013 30.7314 26.5603C30.8396 26.7194 30.9931 26.8428 31.1721 26.9156C31.3511 26.9885 31.5479 27.0075 31.7378 26.9704C31.9277 26.9333 32.1024 26.8417 32.2399 26.7067C32.3773 26.5717 32.4713 26.3994 32.5093 26.2113C32.5474 26.0233 32.5278 25.8284 32.4532 25.6515C32.3786 25.4746 32.2525 25.3237 32.0911 25.2178C31.9297 25.1119 31.7403 25.0556 31.5468 25.0556Z" fill="#333333"/>
<path d="M8.45319 26.6213C8.19375 26.6213 7.9444 26.7225 7.76014 26.9035C7.57579 27.0845 7.47172 27.3307 7.47172 27.5879C7.47172 27.7797 7.52964 27.967 7.63783 28.126C7.74601 28.285 7.89948 28.4085 8.07848 28.4813C8.25747 28.5541 8.45429 28.5732 8.64417 28.5361C8.83404 28.499 9.00882 28.4074 9.14624 28.2724C9.28371 28.1374 9.37763 27.965 9.41571 27.777C9.45379 27.589 9.43422 27.3941 9.35959 27.2171C9.28497 27.0402 9.1588 26.8894 8.99743 26.7835C8.83609 26.6776 8.64669 26.6213 8.45319 26.6213Z" fill="#333333"/>
<path d="M23.8292 26.6213C23.5698 26.6213 23.3205 26.7225 23.1362 26.9035C22.9519 27.0845 22.8478 27.3307 22.8478 27.5879C22.8478 27.7797 22.9056 27.967 23.0138 28.126C23.122 28.285 23.2755 28.4085 23.4545 28.4813C23.6335 28.5541 23.8303 28.5732 24.0202 28.5361C24.2101 28.499 24.3848 28.4074 24.5223 28.2724C24.6597 28.1374 24.7537 27.965 24.7917 27.777C24.8298 27.589 24.8102 27.3941 24.7356 27.2171C24.661 27.0402 24.5349 26.8894 24.3735 26.7835C24.2121 26.6776 24.0227 26.6213 23.8292 26.6213Z" fill="#333333"/>
<path d="M30.0751 26.6213C29.8157 26.6213 29.5663 26.7225 29.3821 26.9035C29.1977 27.0845 29.0936 27.3307 29.0936 27.5879C29.0936 27.7797 29.1515 27.967 29.2597 28.126C29.3679 28.285 29.5214 28.4085 29.7004 28.4813C29.8794 28.5541 30.0762 28.5732 30.2661 28.5361C30.456 28.499 30.6307 28.4074 30.7682 28.2724C30.9056 28.1374 30.9995 27.965 31.0376 27.777C31.0757 27.589 31.0561 27.3941 30.9815 27.2171C30.9069 27.0402 30.7808 26.8894 30.6194 26.7835C30.458 26.6776 30.2686 26.6213 30.0751 26.6213Z" fill="#333333"/>
<path d="M33.0185 26.6213C32.7591 26.6213 32.5097 26.7225 32.3255 26.9035C32.1411 27.0846 32.0371 27.3307 32.0371 27.5879C32.0371 27.7797 32.095 27.967 32.2032 28.126C32.3113 28.285 32.4648 28.4085 32.6438 28.4813C32.8228 28.5541 33.0196 28.5732 33.2095 28.5361C33.3993 28.499 33.5742 28.4074 33.7116 28.2724C33.8492 28.1373 33.943 27.965 33.981 27.777C34.0191 27.5891 33.9996 27.3942 33.925 27.2171C33.8503 27.0402 33.7241 26.8894 33.5628 26.7835C33.4014 26.6776 33.212 26.6213 33.0185 26.6213Z" fill="#333333"/>
<path d="M6.98147 28.0667C6.72203 28.0667 6.47268 28.168 6.28843 28.3489C6.10407 28.53 6 28.7761 6 29.0334C6 29.2252 6.05791 29.4124 6.16611 29.5715C6.27429 29.7305 6.42776 29.8539 6.60676 29.9268C6.78575 29.9996 6.98257 30.0186 7.17244 29.9815C7.36232 29.9444 7.53709 29.8528 7.67452 29.7178C7.81198 29.5828 7.90591 29.4105 7.94399 29.2225C7.98207 29.0344 7.9625 28.8395 7.88787 28.6626C7.81325 28.4857 7.68708 28.3348 7.52571 28.2289C7.36436 28.1231 7.17497 28.0667 6.98147 28.0667Z" fill="#333333"/>
<path d="M16.1708 28.0667C15.9113 28.0667 15.662 28.168 15.4777 28.3489C15.2934 28.53 15.1893 28.7761 15.1893 29.0334C15.1893 29.2252 15.2472 29.4124 15.3554 29.5715C15.4636 29.7305 15.6171 29.8539 15.7961 29.9268C15.9751 29.9996 16.1719 30.0186 16.3618 29.9815C16.5516 29.9444 16.7264 29.8528 16.8638 29.7178C17.0013 29.5828 17.0952 29.4105 17.1333 29.2225C17.1714 29.0344 17.1518 28.8395 17.0772 28.6626C17.0026 28.4856 16.8764 28.3348 16.715 28.2289C16.5537 28.1231 16.3643 28.0667 16.1708 28.0667Z" fill="#333333"/>
<path d="M22.297 28.0667C22.0376 28.0667 21.7882 28.168 21.604 28.3489C21.4196 28.53 21.3155 28.7761 21.3155 29.0334C21.3155 29.2251 21.3734 29.4124 21.4816 29.5715C21.5898 29.7305 21.7433 29.854 21.9223 29.9268C22.1013 29.9996 22.2981 30.0186 22.488 29.9815C22.6778 29.9444 22.8526 29.8528 22.99 29.7178C23.1275 29.5828 23.2214 29.4105 23.2595 29.2225C23.2976 29.0344 23.278 28.8395 23.2034 28.6626C23.1288 28.4857 23.0026 28.3349 22.8413 28.2289C22.6799 28.1231 22.4905 28.0667 22.297 28.0667Z" fill="#333333"/>
<path d="M25.3601 28.0667C25.1007 28.0667 24.8513 28.168 24.6671 28.3489C24.4827 28.53 24.3786 28.7761 24.3786 29.0334C24.3786 29.2251 24.4365 29.4124 24.5447 29.5715C24.6529 29.7305 24.8064 29.854 24.9854 29.9268C25.1644 29.9996 25.3612 30.0186 25.5511 29.9815C25.741 29.9444 25.9157 29.8528 26.0531 29.7178C26.1906 29.5828 26.2845 29.4105 26.3226 29.2225C26.3607 29.0344 26.3411 28.8395 26.2665 28.6626C26.1919 28.4857 26.0658 28.3349 25.9044 28.2289C25.743 28.1231 25.5536 28.0667 25.3601 28.0667Z" fill="#333333"/>
<path d="M28.4232 28.0667C28.1638 28.0667 27.9144 28.168 27.7302 28.3489C27.5458 28.53 27.4417 28.7761 27.4417 29.0334C27.4417 29.2251 27.4996 29.4124 27.6078 29.5715C27.716 29.7305 27.8695 29.854 28.0485 29.9268C28.2275 29.9996 28.4243 30.0186 28.6142 29.9815C28.8041 29.9444 28.9788 29.8528 29.1162 29.7178C29.2537 29.5828 29.3476 29.4105 29.3857 29.2225C29.4238 29.0344 29.4042 28.8395 29.3296 28.6626C29.255 28.4857 29.1289 28.3349 28.9675 28.2289C28.8061 28.1231 28.6167 28.0667 28.4232 28.0667Z" fill="#333333"/>
<path d="M31.5468 28.0667C31.2874 28.0667 31.038 28.168 30.8538 28.3489C30.6694 28.53 30.5653 28.7761 30.5653 29.0334C30.5653 29.2251 30.6232 29.4124 30.7314 29.5715C30.8396 29.7305 30.9931 29.854 31.1721 29.9268C31.3511 29.9996 31.5479 30.0186 31.7378 29.9815C31.9277 29.9444 32.1024 29.8528 32.2399 29.7178C32.3773 29.5828 32.4713 29.4105 32.5093 29.2225C32.5474 29.0344 32.5278 28.8395 32.4532 28.6626C32.3786 28.4857 32.2525 28.3349 32.0911 28.2289C31.9297 28.1231 31.7403 28.0667 31.5468 28.0667Z" fill="#333333"/>
</svg>
