<svg width="40" height="40" viewBox="0 0 40 40" fill="none" xmlns="http://www.w3.org/2000/svg">
<path fill-rule="evenodd" clip-rule="evenodd" d="M32 2H8C4.68629 2 2 4.68629 2 8V32C2 35.3137 4.68629 38 8 38H32C35.3137 38 38 35.3137 38 32V8C38 4.68629 35.3137 2 32 2ZM8 0C3.58172 0 0 3.58172 0 8V32C0 36.4183 3.58172 40 8 40H32C36.4183 40 40 36.4183 40 32V8C40 3.58172 36.4183 0 32 0H8Z" fill="#333333"/>
<path d="M11.7344 16.8498C12.265 16.8506 12.7835 16.9978 13.2243 17.2728C13.6651 17.5478 14.0084 17.9383 14.2109 18.3949C14.4134 18.8515 14.4659 19.3537 14.3619 19.8381C14.2579 20.3226 14.002 20.7674 13.6264 21.1164C13.2509 21.4655 12.7727 21.703 12.2522 21.7991C11.7318 21.8952 11.1923 21.8455 10.7022 21.6563C10.212 21.4671 9.79313 21.1468 9.49841 20.736C9.2037 20.3252 9.0464 19.8423 9.0464 19.3483C9.04658 19.0199 9.11627 18.6948 9.25147 18.3915C9.38667 18.0882 9.58474 17.8126 9.83436 17.5806C10.084 17.3486 10.3803 17.1646 10.7063 17.0392C11.0323 16.9138 11.3817 16.8494 11.7344 16.8498ZM11.7344 20.9006C12.064 20.8988 12.3857 20.8062 12.6589 20.6346C12.9321 20.4629 13.1447 20.2198 13.2698 19.9359C13.3949 19.6521 13.427 19.34 13.362 19.0392C13.297 18.7384 13.1379 18.4621 12.9046 18.2453C12.6713 18.0285 12.3744 17.8808 12.0511 17.8208C11.7279 17.7608 11.3928 17.7912 11.088 17.9082C10.7833 18.0251 10.5225 18.2234 10.3386 18.4781C10.1547 18.7327 10.0558 19.0323 10.0544 19.3392C10.0529 19.545 10.0953 19.749 10.1793 19.9394C10.2632 20.1297 10.3868 20.3027 10.5431 20.4482C10.6994 20.5937 10.8852 20.7089 11.0897 20.787C11.2942 20.8651 11.5134 20.9046 11.7344 20.9032V20.9006Z" fill="#333333"/>
<path d="M13.9058 20.6256C13.8394 20.6322 13.7723 20.6265 13.7083 20.609C13.6443 20.5914 13.5846 20.5623 13.5326 20.5233C13.4278 20.4444 13.3608 20.3301 13.3465 20.2053C13.3394 20.1435 13.3455 20.081 13.3643 20.0214C13.3832 19.9618 13.4145 19.9062 13.4564 19.8579C13.4983 19.8095 13.5501 19.7693 13.6087 19.7396C13.6673 19.7099 13.7316 19.6912 13.798 19.6846H26.538C26.6629 19.6968 26.7784 19.7517 26.8624 19.8386C26.9464 19.9254 26.9929 20.0382 26.9929 20.1551C26.9929 20.272 26.9464 20.3847 26.8624 20.4716C26.7784 20.5585 26.6629 20.6134 26.538 20.6256H13.9058Z" fill="#333333"/>
<path d="M28.701 16.8498C29.2318 16.8498 29.7507 16.9963 30.192 17.2709C30.6334 17.5454 30.9774 17.9356 31.1805 18.3922C31.3836 18.8487 31.4368 19.3511 31.3332 19.8358C31.2297 20.3204 30.9741 20.7656 30.5987 21.115C30.2234 21.4645 29.7452 21.7024 29.2246 21.7988C28.704 21.8952 28.1644 21.8458 27.674 21.6567C27.1836 21.4676 26.7644 21.1473 26.4695 20.7364C26.1746 20.3255 26.0172 19.8425 26.0172 19.3483C26.0176 18.6858 26.3005 18.0505 26.8037 17.582C27.3069 17.1135 27.9893 16.8501 28.701 16.8498ZM28.701 20.9006C29.0309 20.9001 29.3533 20.8086 29.6274 20.6377C29.9016 20.4669 30.1152 20.2242 30.2414 19.9404C30.3676 19.6567 30.4007 19.3444 30.3365 19.0432C30.2723 18.7419 30.1137 18.4651 29.8807 18.2476C29.6477 18.0302 29.3507 17.8818 29.0273 17.8213C28.7038 17.7608 28.3684 17.7908 28.0632 17.9076C27.7581 18.0243 27.4969 18.2226 27.3127 18.4774C27.1284 18.7322 27.0294 19.0321 27.028 19.3392C27.0265 19.5444 27.0687 19.7479 27.1522 19.9378C27.2357 20.1278 27.3587 20.3005 27.5143 20.4459C27.6698 20.5913 27.8548 20.7066 28.0585 20.7851C28.2622 20.8636 28.4806 20.9037 28.701 20.9032V20.9006Z" fill="#333333"/>
<path d="M32.614 20.6282C32.4891 20.616 32.3736 20.5611 32.2896 20.4742C32.2056 20.3873 32.1591 20.2746 32.1591 20.1577C32.1591 20.0408 32.2056 19.9281 32.2896 19.8412C32.3736 19.7543 32.4891 19.6994 32.614 19.6872C32.8814 19.6872 32.9766 19.4265 32.9766 19.1658V17.8273C32.9781 17.6096 32.9131 17.396 32.7891 17.2114C32.6652 17.0268 32.4875 16.8788 32.2766 16.7846C30.2904 16.1142 28.1943 15.7698 26.0816 15.7667C25.9829 15.7679 25.8858 15.7431 25.8016 15.695L22.4164 13.6878C21.5908 13.1962 20.6301 12.9373 19.65 12.9423H15.7762C14.9081 12.9432 14.0521 13.1319 13.2758 13.4936L11.208 14.4529C10.496 14.7857 9.72792 15.0022 8.9372 15.0929L7.3286 15.2818C7.24051 15.2923 7.15959 15.3324 7.10106 15.3946C7.04252 15.4568 7.01042 15.5367 7.0108 15.6194V18.0358C7.01109 18.1974 7.06757 18.3546 7.1718 18.4838C7.27603 18.613 7.42239 18.7074 7.589 18.7527L9.689 19.3092C9.81885 19.3331 9.93364 19.403 10.0091 19.5042C10.0845 19.6054 10.1147 19.73 10.0933 19.8516C10.0718 19.9732 10.0004 20.0822 9.89409 20.1557C9.78781 20.2291 9.65501 20.2611 9.5238 20.245C9.48618 20.2413 9.44963 20.2312 9.416 20.215L7.316 19.6585C6.9376 19.557 6.60478 19.344 6.3675 19.0514C6.13021 18.7588 6.00126 18.4024 6 18.0358V15.6181C5.99997 15.3061 6.12203 15.0047 6.34337 14.7703C6.5647 14.5359 6.87015 14.3847 7.2026 14.3447L8.814 14.1558C9.49082 14.0767 10.1486 13.8925 10.76 13.6109L12.8278 12.6517C13.7438 12.2241 14.7543 12.001 15.779 12H19.65C20.8215 12.0027 21.9679 12.317 22.954 12.9058L26.23 14.8478C28.4402 14.8546 30.6313 15.2298 32.6994 15.9557C33.0841 16.1244 33.4092 16.3916 33.6368 16.7261C33.8644 17.0605 33.985 17.4483 33.9846 17.8442V19.188C34.0209 19.5406 33.9053 19.8921 33.6632 20.1654C33.4212 20.4386 33.0725 20.6112 32.6938 20.6452H32.6042L32.614 20.6282Z" fill="#333333"/>
<path d="M14.778 15.768H13.938C13.5861 15.7686 13.2375 15.7045 12.9122 15.5795C12.587 15.4545 12.2914 15.271 12.0424 15.0394L11.3746 14.4177C11.2946 14.3267 11.2539 14.2111 11.2604 14.0936C11.267 13.9762 11.3203 13.8652 11.41 13.7823C11.4997 13.6994 11.6194 13.6507 11.7456 13.6455C11.8718 13.6403 11.9956 13.6791 12.0928 13.7543L12.7606 14.376C13.0748 14.6675 13.5 14.8315 13.9436 14.8322H14.7836C14.9085 14.8444 15.024 14.8993 15.108 14.9862C15.192 15.0731 15.2385 15.1858 15.2385 15.3027C15.2385 15.4196 15.192 15.5323 15.108 15.6192C15.024 15.7061 14.9085 15.761 14.7836 15.7732L14.778 15.768Z" fill="#333333"/>
<path d="M16.521 15.7667C16.387 15.78 16.2527 15.7432 16.1478 15.6644C16.043 15.5855 15.976 15.4712 15.9617 15.3464C15.9474 15.2216 15.9869 15.0966 16.0716 14.999C16.1563 14.9013 16.2792 14.839 16.4132 14.8257H26.1012C26.1676 14.8191 26.2347 14.8247 26.2987 14.8423C26.3627 14.8598 26.4224 14.889 26.4744 14.928C26.5263 14.967 26.5695 15.0152 26.6014 15.0698C26.6333 15.1243 26.6534 15.1842 26.6605 15.246C26.6676 15.3078 26.6615 15.3703 26.6427 15.4299C26.6238 15.4895 26.5925 15.5451 26.5506 15.5934C26.5087 15.6418 26.4569 15.6819 26.3983 15.7117C26.3397 15.7414 26.2754 15.7601 26.209 15.7667H16.521Z" fill="#333333"/>
<path d="M6.84 16.9866C6.70596 16.9999 6.57173 16.9631 6.46684 16.8843C6.36195 16.8055 6.295 16.6911 6.2807 16.5663C6.2664 16.4415 6.30594 16.3166 6.39061 16.2189C6.47529 16.1213 6.59816 16.0589 6.7322 16.0456H7.7122C7.84624 16.0323 7.98047 16.0691 8.08536 16.1479C8.19025 16.2268 8.2572 16.3412 8.2715 16.4659C8.28579 16.5907 8.24626 16.7157 8.16158 16.8133C8.07691 16.911 7.95404 16.9733 7.82 16.9866H6.84Z" fill="#333333"/>
<path d="M32.187 17.7921C32.053 17.8054 31.9187 17.7686 31.8138 17.6898C31.709 17.611 31.642 17.4966 31.6277 17.3718C31.6134 17.247 31.6529 17.122 31.7376 17.0244C31.8223 16.9267 31.9452 16.8644 32.0792 16.8511H33.2426C33.3766 16.8378 33.5109 16.8746 33.6158 16.9534C33.7206 17.0322 33.7876 17.1466 33.8019 17.2714C33.8162 17.3962 33.7767 17.5212 33.692 17.6188C33.6073 17.7165 33.4844 17.7788 33.3504 17.7921H32.187Z" fill="#333333"/>
<path d="M11.7344 16.8498C12.265 16.8506 12.7835 16.9978 13.2243 17.2728C13.6651 17.5478 14.0084 17.9383 14.2109 18.3949C14.4134 18.8515 14.4659 19.3537 14.3619 19.8381C14.2579 20.3226 14.002 20.7674 13.6264 21.1164C13.2509 21.4655 12.7727 21.703 12.2522 21.7991C11.7318 21.8952 11.1923 21.8455 10.7022 21.6563C10.212 21.4671 9.79313 21.1468 9.49841 20.736C9.2037 20.3252 9.0464 19.8423 9.0464 19.3483C9.04658 19.0199 9.11627 18.6948 9.25147 18.3915C9.38667 18.0882 9.58474 17.8126 9.83436 17.5806C10.084 17.3486 10.3803 17.1646 10.7063 17.0392C11.0323 16.9138 11.3817 16.8494 11.7344 16.8498ZM11.7344 20.9006C12.064 20.8988 12.3857 20.8062 12.6589 20.6346C12.9321 20.4629 13.1447 20.2198 13.2698 19.9359C13.3949 19.6521 13.427 19.34 13.362 19.0392C13.297 18.7384 13.1379 18.4621 12.9046 18.2453C12.6713 18.0285 12.3744 17.8808 12.0511 17.8208C11.7279 17.7608 11.3928 17.7912 11.088 17.9082C10.7833 18.0251 10.5225 18.2234 10.3386 18.4781C10.1547 18.7327 10.0558 19.0323 10.0544 19.3392C10.0529 19.545 10.0953 19.749 10.1793 19.9394C10.2632 20.1297 10.3868 20.3027 10.5431 20.4482C10.6994 20.5937 10.8852 20.7089 11.0897 20.787C11.2942 20.8651 11.5134 20.9046 11.7344 20.9032V20.9006Z" stroke="#333333" stroke-width="0.25"/>
<path d="M13.9058 20.6256C13.8394 20.6322 13.7723 20.6265 13.7083 20.609C13.6443 20.5914 13.5846 20.5623 13.5326 20.5233C13.4278 20.4444 13.3608 20.3301 13.3465 20.2053C13.3394 20.1435 13.3455 20.081 13.3643 20.0214C13.3832 19.9618 13.4145 19.9062 13.4564 19.8579C13.4983 19.8095 13.5501 19.7693 13.6087 19.7396C13.6673 19.7099 13.7316 19.6912 13.798 19.6846H26.538C26.6629 19.6968 26.7784 19.7517 26.8624 19.8386C26.9464 19.9254 26.9929 20.0382 26.9929 20.1551C26.9929 20.272 26.9464 20.3847 26.8624 20.4716C26.7784 20.5585 26.6629 20.6134 26.538 20.6256H13.9058Z" stroke="#333333" stroke-width="0.25"/>
<path d="M28.701 16.8498C29.2318 16.8498 29.7507 16.9963 30.192 17.2709C30.6334 17.5454 30.9774 17.9356 31.1805 18.3922C31.3836 18.8487 31.4368 19.3511 31.3332 19.8358C31.2297 20.3204 30.9741 20.7656 30.5987 21.115C30.2234 21.4645 29.7452 21.7024 29.2246 21.7988C28.704 21.8952 28.1644 21.8458 27.674 21.6567C27.1836 21.4676 26.7644 21.1473 26.4695 20.7364C26.1746 20.3255 26.0172 19.8425 26.0172 19.3483C26.0176 18.6858 26.3005 18.0505 26.8037 17.582C27.3069 17.1135 27.9893 16.8501 28.701 16.8498ZM28.701 20.9006C29.0309 20.9001 29.3533 20.8086 29.6274 20.6377C29.9016 20.4669 30.1152 20.2242 30.2414 19.9404C30.3676 19.6567 30.4007 19.3444 30.3365 19.0432C30.2723 18.7419 30.1137 18.4651 29.8807 18.2476C29.6477 18.0302 29.3507 17.8818 29.0273 17.8213C28.7038 17.7608 28.3684 17.7908 28.0632 17.9076C27.7581 18.0243 27.4969 18.2226 27.3127 18.4774C27.1284 18.7322 27.0294 19.0321 27.028 19.3392C27.0265 19.5444 27.0687 19.7479 27.1522 19.9378C27.2357 20.1278 27.3587 20.3005 27.5143 20.4459C27.6698 20.5913 27.8548 20.7066 28.0585 20.7851C28.2622 20.8636 28.4806 20.9037 28.701 20.9032V20.9006Z" stroke="#333333" stroke-width="0.25"/>
<path d="M32.614 20.6282C32.4891 20.616 32.3736 20.5611 32.2896 20.4742C32.2056 20.3873 32.1591 20.2746 32.1591 20.1577C32.1591 20.0408 32.2056 19.9281 32.2896 19.8412C32.3736 19.7543 32.4891 19.6994 32.614 19.6872C32.8814 19.6872 32.9766 19.4265 32.9766 19.1658V17.8273C32.9781 17.6096 32.9131 17.396 32.7891 17.2114C32.6652 17.0268 32.4875 16.8788 32.2766 16.7846C30.2904 16.1142 28.1943 15.7698 26.0816 15.7667C25.9829 15.7679 25.8858 15.7431 25.8016 15.695L22.4164 13.6878C21.5908 13.1962 20.6301 12.9373 19.65 12.9423H15.7762C14.9081 12.9432 14.0521 13.1319 13.2758 13.4936L11.208 14.4529C10.496 14.7857 9.72792 15.0022 8.9372 15.0929L7.3286 15.2818C7.24051 15.2923 7.15959 15.3324 7.10106 15.3946C7.04252 15.4568 7.01042 15.5367 7.0108 15.6194V18.0358C7.01109 18.1974 7.06757 18.3546 7.1718 18.4838C7.27603 18.613 7.42239 18.7074 7.589 18.7527L9.689 19.3092C9.81885 19.3331 9.93364 19.403 10.0091 19.5042C10.0845 19.6054 10.1147 19.73 10.0933 19.8516C10.0718 19.9732 10.0004 20.0822 9.89409 20.1557C9.78781 20.2291 9.65501 20.2611 9.5238 20.245C9.48618 20.2413 9.44963 20.2312 9.416 20.215L7.316 19.6585C6.9376 19.557 6.60478 19.344 6.3675 19.0514C6.13021 18.7588 6.00126 18.4024 6 18.0358V15.6181C5.99997 15.3061 6.12203 15.0047 6.34337 14.7703C6.5647 14.5359 6.87015 14.3847 7.2026 14.3447L8.814 14.1558C9.49082 14.0767 10.1486 13.8925 10.76 13.6109L12.8278 12.6517C13.7438 12.2241 14.7543 12.001 15.779 12H19.65C20.8215 12.0027 21.9679 12.317 22.954 12.9058L26.23 14.8478C28.4402 14.8546 30.6313 15.2298 32.6994 15.9557C33.0841 16.1244 33.4092 16.3916 33.6368 16.7261C33.8644 17.0605 33.985 17.4483 33.9846 17.8442V19.188C34.0209 19.5406 33.9053 19.8921 33.6632 20.1654C33.4212 20.4386 33.0725 20.6112 32.6938 20.6452H32.6042L32.614 20.6282Z" stroke="#333333" stroke-width="0.25"/>
<path d="M14.778 15.768H13.938C13.5861 15.7686 13.2375 15.7045 12.9122 15.5795C12.587 15.4545 12.2914 15.271 12.0424 15.0394L11.3746 14.4177C11.2946 14.3267 11.2539 14.2111 11.2604 14.0936C11.267 13.9762 11.3203 13.8652 11.41 13.7823C11.4997 13.6994 11.6194 13.6507 11.7456 13.6455C11.8718 13.6403 11.9956 13.6791 12.0928 13.7543L12.7606 14.376C13.0748 14.6675 13.5 14.8315 13.9436 14.8322H14.7836C14.9085 14.8444 15.024 14.8993 15.108 14.9862C15.192 15.0731 15.2385 15.1858 15.2385 15.3027C15.2385 15.4196 15.192 15.5323 15.108 15.6192C15.024 15.7061 14.9085 15.761 14.7836 15.7732L14.778 15.768Z" stroke="#333333" stroke-width="0.25"/>
<path d="M16.521 15.7667C16.387 15.78 16.2527 15.7432 16.1478 15.6644C16.043 15.5855 15.976 15.4712 15.9617 15.3464C15.9474 15.2216 15.9869 15.0966 16.0716 14.999C16.1563 14.9013 16.2792 14.839 16.4132 14.8257H26.1012C26.1676 14.8191 26.2347 14.8247 26.2987 14.8423C26.3627 14.8598 26.4224 14.889 26.4744 14.928C26.5263 14.967 26.5695 15.0152 26.6014 15.0698C26.6333 15.1243 26.6534 15.1842 26.6605 15.246C26.6676 15.3078 26.6615 15.3703 26.6427 15.4299C26.6238 15.4895 26.5925 15.5451 26.5506 15.5934C26.5087 15.6418 26.4569 15.6819 26.3983 15.7117C26.3397 15.7414 26.2754 15.7601 26.209 15.7667H16.521Z" stroke="#333333" stroke-width="0.25"/>
<path d="M6.84 16.9866C6.70596 16.9999 6.57173 16.9631 6.46684 16.8843C6.36195 16.8055 6.295 16.6911 6.2807 16.5663C6.2664 16.4415 6.30594 16.3166 6.39061 16.2189C6.47529 16.1213 6.59816 16.0589 6.7322 16.0456H7.7122C7.84624 16.0323 7.98047 16.0691 8.08536 16.1479C8.19025 16.2268 8.2572 16.3412 8.2715 16.4659C8.28579 16.5907 8.24626 16.7157 8.16158 16.8133C8.07691 16.911 7.95404 16.9733 7.82 16.9866H6.84Z" stroke="#333333" stroke-width="0.25"/>
<path d="M32.187 17.7921C32.053 17.8054 31.9187 17.7686 31.8138 17.6898C31.709 17.611 31.642 17.4966 31.6277 17.3718C31.6134 17.247 31.6529 17.122 31.7376 17.0244C31.8223 16.9267 31.9452 16.8644 32.0792 16.8511H33.2426C33.3766 16.8378 33.5109 16.8746 33.6158 16.9534C33.7206 17.0322 33.7876 17.1466 33.8019 17.2714C33.8162 17.3962 33.7767 17.5212 33.692 17.6188C33.6073 17.7165 33.4844 17.7788 33.3504 17.7921H32.187Z" stroke="#333333" stroke-width="0.25"/>
<mask id="path-3-inside-1_2006_546" fill="white">
<path d="M6.67488 28.9645C6.49777 28.9645 6.32791 28.899 6.20267 28.7824C6.07744 28.6658 6.00708 28.5077 6.00708 28.3428V24.6217C6.00708 24.4568 6.07744 24.2987 6.20267 24.1821C6.32791 24.0655 6.49777 24 6.67488 24C6.85199 24 7.02185 24.0655 7.14709 24.1821C7.27232 24.2987 7.34268 24.4568 7.34268 24.6217V28.3467C7.34268 28.5116 7.27232 28.6697 7.14709 28.7863C7.02185 28.9029 6.85199 28.9684 6.67488 28.9684V28.9645Z"/>
<path d="M9.33908 28.9645C9.16197 28.9645 8.99211 28.899 8.86687 28.7824C8.74164 28.6658 8.67128 28.5077 8.67128 28.3428V24.6217C8.67128 24.4568 8.74164 24.2987 8.86687 24.1821C8.99211 24.0655 9.16197 24 9.33908 24C9.51619 24 9.68605 24.0655 9.81129 24.1821C9.93652 24.2987 10.0069 24.4568 10.0069 24.6217V28.3467C10.0069 28.5116 9.93652 28.6697 9.81129 28.7863C9.68605 28.9029 9.51619 28.9684 9.33908 28.9684V28.9645Z"/>
<path d="M16.0115 28.9645C15.8344 28.9645 15.6645 28.899 15.5393 28.7824C15.414 28.6658 15.3437 28.5077 15.3437 28.3428V24.6217C15.3437 24.4568 15.414 24.2987 15.5393 24.1821C15.6645 24.0655 15.8344 24 16.0115 24C16.1886 24 16.3584 24.0655 16.4837 24.1821C16.6089 24.2987 16.6793 24.4568 16.6793 24.6217V28.3467C16.6793 28.5116 16.6089 28.6697 16.4837 28.7863C16.3584 28.9029 16.1886 28.9684 16.0115 28.9684V28.9645Z"/>
<path d="M12.6473 28.9645C12.2931 28.9645 11.9533 28.8335 11.7029 28.6003C11.4524 28.3671 11.3117 28.0509 11.3117 27.7211V25.2447C11.3117 24.9149 11.4524 24.5987 11.7029 24.3655C11.9533 24.1323 12.2931 24.0013 12.6473 24.0013C13.0015 24.0013 13.3412 24.1323 13.5917 24.3655C13.8422 24.5987 13.9829 24.9149 13.9829 25.2447V27.7315C13.9829 27.8945 13.9483 28.056 13.8811 28.2065C13.8139 28.3571 13.7155 28.4938 13.5914 28.6089C13.4673 28.7239 13.32 28.815 13.158 28.8769C12.996 28.9389 12.8224 28.9704 12.6473 28.9697V28.9645Z"/>
<path d="M22.6839 28.9645C22.5068 28.9645 22.3369 28.899 22.2117 28.7824C22.0864 28.6658 22.0161 28.5077 22.0161 28.3428V24.6217C22.0161 24.4568 22.0864 24.2987 22.2117 24.1821C22.3369 24.0655 22.5068 24 22.6839 24C22.861 24 23.0308 24.0655 23.1561 24.1821C23.2813 24.2987 23.3517 24.4568 23.3517 24.6217V28.3467C23.3517 28.5116 23.2813 28.6697 23.1561 28.7863C23.0308 28.9029 22.861 28.9684 22.6839 28.9684V28.9645Z"/>
<path d="M25.3495 28.9645C25.1724 28.9645 25.0025 28.899 24.8773 28.7824C24.752 28.6658 24.6817 28.5077 24.6817 28.3428V24.6217C24.6817 24.4568 24.752 24.2987 24.8773 24.1821C25.0025 24.0655 25.1724 24 25.3495 24C25.5266 24 25.6965 24.0655 25.8217 24.1821C25.9469 24.2987 26.0173 24.4568 26.0173 24.6217V28.3467C26.0173 28.5116 25.9469 28.6697 25.8217 28.7863C25.6965 28.9029 25.5266 28.9684 25.3495 28.9684V28.9645Z"/>
<path d="M28.6563 28.9645C28.3021 28.9645 27.9623 28.8335 27.7119 28.6003C27.4614 28.3671 27.3207 28.0509 27.3207 27.7211V25.2447C27.3207 24.9149 27.4614 24.5987 27.7119 24.3655C27.9623 24.1323 28.3021 24.0013 28.6563 24.0013C29.0105 24.0013 29.3502 24.1323 29.6007 24.3655C29.8512 24.5987 29.9919 24.9149 29.9919 25.2447V27.7315C29.9911 27.8941 29.956 28.055 29.8885 28.2049C29.821 28.3549 29.7224 28.491 29.5984 28.6055C29.4744 28.72 29.3273 28.8106 29.1657 28.8722C29.004 28.9338 28.8309 28.9652 28.6563 28.9645Z"/>
<path d="M32.6645 28.9645C32.3103 28.9645 31.9705 28.8335 31.7201 28.6003C31.4696 28.3671 31.3289 28.0509 31.3289 27.7211V25.2447C31.3289 24.9149 31.4696 24.5987 31.7201 24.3655C31.9705 24.1323 32.3103 24.0013 32.6645 24.0013C33.0187 24.0013 33.3584 24.1323 33.6089 24.3655C33.8594 24.5987 34.0001 24.9149 34.0001 25.2447V27.7315C33.9993 27.8941 33.9642 28.055 33.8967 28.2049C33.8292 28.3549 33.7306 28.491 33.6066 28.6055C33.4826 28.72 33.3355 28.8106 33.1739 28.8722C33.0122 28.9338 32.8391 28.9652 32.6645 28.9645Z"/>
<path d="M19.3197 28.9645C18.9655 28.9645 18.6257 28.8335 18.3753 28.6003C18.1248 28.3671 17.9841 28.0509 17.9841 27.7211V25.2447C17.9841 24.9149 18.1248 24.5987 18.3753 24.3655C18.6257 24.1323 18.9655 24.0013 19.3197 24.0013C19.6739 24.0013 20.0136 24.1323 20.2641 24.3655C20.5146 24.5987 20.6553 24.9149 20.6553 25.2447V27.7315C20.6545 27.8941 20.6194 28.055 20.5519 28.2049C20.4844 28.3549 20.3858 28.491 20.2618 28.6055C20.1378 28.72 19.9907 28.8106 19.8291 28.8722C19.6674 28.9338 19.4943 28.9652 19.3197 28.9645Z"/>
</mask>
<path d="M6.67488 28.9645C6.49777 28.9645 6.32791 28.899 6.20267 28.7824C6.07744 28.6658 6.00708 28.5077 6.00708 28.3428V24.6217C6.00708 24.4568 6.07744 24.2987 6.20267 24.1821C6.32791 24.0655 6.49777 24 6.67488 24C6.85199 24 7.02185 24.0655 7.14709 24.1821C7.27232 24.2987 7.34268 24.4568 7.34268 24.6217V28.3467C7.34268 28.5116 7.27232 28.6697 7.14709 28.7863C7.02185 28.9029 6.85199 28.9684 6.67488 28.9684V28.9645Z" fill="#333333"/>
<path d="M9.33908 28.9645C9.16197 28.9645 8.99211 28.899 8.86687 28.7824C8.74164 28.6658 8.67128 28.5077 8.67128 28.3428V24.6217C8.67128 24.4568 8.74164 24.2987 8.86687 24.1821C8.99211 24.0655 9.16197 24 9.33908 24C9.51619 24 9.68605 24.0655 9.81129 24.1821C9.93652 24.2987 10.0069 24.4568 10.0069 24.6217V28.3467C10.0069 28.5116 9.93652 28.6697 9.81129 28.7863C9.68605 28.9029 9.51619 28.9684 9.33908 28.9684V28.9645Z" fill="#333333"/>
<path d="M16.0115 28.9645C15.8344 28.9645 15.6645 28.899 15.5393 28.7824C15.414 28.6658 15.3437 28.5077 15.3437 28.3428V24.6217C15.3437 24.4568 15.414 24.2987 15.5393 24.1821C15.6645 24.0655 15.8344 24 16.0115 24C16.1886 24 16.3584 24.0655 16.4837 24.1821C16.6089 24.2987 16.6793 24.4568 16.6793 24.6217V28.3467C16.6793 28.5116 16.6089 28.6697 16.4837 28.7863C16.3584 28.9029 16.1886 28.9684 16.0115 28.9684V28.9645Z" fill="#333333"/>
<path d="M12.6473 28.9645C12.2931 28.9645 11.9533 28.8335 11.7029 28.6003C11.4524 28.3671 11.3117 28.0509 11.3117 27.7211V25.2447C11.3117 24.9149 11.4524 24.5987 11.7029 24.3655C11.9533 24.1323 12.2931 24.0013 12.6473 24.0013C13.0015 24.0013 13.3412 24.1323 13.5917 24.3655C13.8422 24.5987 13.9829 24.9149 13.9829 25.2447V27.7315C13.9829 27.8945 13.9483 28.056 13.8811 28.2065C13.8139 28.3571 13.7155 28.4938 13.5914 28.6089C13.4673 28.7239 13.32 28.815 13.158 28.8769C12.996 28.9389 12.8224 28.9704 12.6473 28.9697V28.9645Z" fill="#333333"/>
<path d="M22.6839 28.9645C22.5068 28.9645 22.3369 28.899 22.2117 28.7824C22.0864 28.6658 22.0161 28.5077 22.0161 28.3428V24.6217C22.0161 24.4568 22.0864 24.2987 22.2117 24.1821C22.3369 24.0655 22.5068 24 22.6839 24C22.861 24 23.0308 24.0655 23.1561 24.1821C23.2813 24.2987 23.3517 24.4568 23.3517 24.6217V28.3467C23.3517 28.5116 23.2813 28.6697 23.1561 28.7863C23.0308 28.9029 22.861 28.9684 22.6839 28.9684V28.9645Z" fill="#333333"/>
<path d="M25.3495 28.9645C25.1724 28.9645 25.0025 28.899 24.8773 28.7824C24.752 28.6658 24.6817 28.5077 24.6817 28.3428V24.6217C24.6817 24.4568 24.752 24.2987 24.8773 24.1821C25.0025 24.0655 25.1724 24 25.3495 24C25.5266 24 25.6965 24.0655 25.8217 24.1821C25.9469 24.2987 26.0173 24.4568 26.0173 24.6217V28.3467C26.0173 28.5116 25.9469 28.6697 25.8217 28.7863C25.6965 28.9029 25.5266 28.9684 25.3495 28.9684V28.9645Z" fill="#333333"/>
<path d="M28.6563 28.9645C28.3021 28.9645 27.9623 28.8335 27.7119 28.6003C27.4614 28.3671 27.3207 28.0509 27.3207 27.7211V25.2447C27.3207 24.9149 27.4614 24.5987 27.7119 24.3655C27.9623 24.1323 28.3021 24.0013 28.6563 24.0013C29.0105 24.0013 29.3502 24.1323 29.6007 24.3655C29.8512 24.5987 29.9919 24.9149 29.9919 25.2447V27.7315C29.9911 27.8941 29.956 28.055 29.8885 28.2049C29.821 28.3549 29.7224 28.491 29.5984 28.6055C29.4744 28.72 29.3273 28.8106 29.1657 28.8722C29.004 28.9338 28.8309 28.9652 28.6563 28.9645Z" fill="#333333"/>
<path d="M32.6645 28.9645C32.3103 28.9645 31.9705 28.8335 31.7201 28.6003C31.4696 28.3671 31.3289 28.0509 31.3289 27.7211V25.2447C31.3289 24.9149 31.4696 24.5987 31.7201 24.3655C31.9705 24.1323 32.3103 24.0013 32.6645 24.0013C33.0187 24.0013 33.3584 24.1323 33.6089 24.3655C33.8594 24.5987 34.0001 24.9149 34.0001 25.2447V27.7315C33.9993 27.8941 33.9642 28.055 33.8967 28.2049C33.8292 28.3549 33.7306 28.491 33.6066 28.6055C33.4826 28.72 33.3355 28.8106 33.1739 28.8722C33.0122 28.9338 32.8391 28.9652 32.6645 28.9645Z" fill="#333333"/>
<path d="M19.3197 28.9645C18.9655 28.9645 18.6257 28.8335 18.3753 28.6003C18.1248 28.3671 17.9841 28.0509 17.9841 27.7211V25.2447C17.9841 24.9149 18.1248 24.5987 18.3753 24.3655C18.6257 24.1323 18.9655 24.0013 19.3197 24.0013C19.6739 24.0013 20.0136 24.1323 20.2641 24.3655C20.5146 24.5987 20.6553 24.9149 20.6553 25.2447V27.7315C20.6545 27.8941 20.6194 28.055 20.5519 28.2049C20.4844 28.3549 20.3858 28.491 20.2618 28.6055C20.1378 28.72 19.9907 28.8106 19.8291 28.8722C19.6674 28.9338 19.4943 28.9652 19.3197 28.9645Z" fill="#333333"/>
<path d="M6.67488 28.9645C6.49777 28.9645 6.32791 28.899 6.20267 28.7824C6.07744 28.6658 6.00708 28.5077 6.00708 28.3428V24.6217C6.00708 24.4568 6.07744 24.2987 6.20267 24.1821C6.32791 24.0655 6.49777 24 6.67488 24C6.85199 24 7.02185 24.0655 7.14709 24.1821C7.27232 24.2987 7.34268 24.4568 7.34268 24.6217V28.3467C7.34268 28.5116 7.27232 28.6697 7.14709 28.7863C7.02185 28.9029 6.85199 28.9684 6.67488 28.9684V28.9645Z" stroke="#333333" stroke-width="2" mask="url(#path-3-inside-1_2006_546)"/>
<path d="M9.33908 28.9645C9.16197 28.9645 8.99211 28.899 8.86687 28.7824C8.74164 28.6658 8.67128 28.5077 8.67128 28.3428V24.6217C8.67128 24.4568 8.74164 24.2987 8.86687 24.1821C8.99211 24.0655 9.16197 24 9.33908 24C9.51619 24 9.68605 24.0655 9.81129 24.1821C9.93652 24.2987 10.0069 24.4568 10.0069 24.6217V28.3467C10.0069 28.5116 9.93652 28.6697 9.81129 28.7863C9.68605 28.9029 9.51619 28.9684 9.33908 28.9684V28.9645Z" stroke="#333333" stroke-width="2" mask="url(#path-3-inside-1_2006_546)"/>
<path d="M16.0115 28.9645C15.8344 28.9645 15.6645 28.899 15.5393 28.7824C15.414 28.6658 15.3437 28.5077 15.3437 28.3428V24.6217C15.3437 24.4568 15.414 24.2987 15.5393 24.1821C15.6645 24.0655 15.8344 24 16.0115 24C16.1886 24 16.3584 24.0655 16.4837 24.1821C16.6089 24.2987 16.6793 24.4568 16.6793 24.6217V28.3467C16.6793 28.5116 16.6089 28.6697 16.4837 28.7863C16.3584 28.9029 16.1886 28.9684 16.0115 28.9684V28.9645Z" stroke="#333333" stroke-width="2" mask="url(#path-3-inside-1_2006_546)"/>
<path d="M12.6473 28.9645C12.2931 28.9645 11.9533 28.8335 11.7029 28.6003C11.4524 28.3671 11.3117 28.0509 11.3117 27.7211V25.2447C11.3117 24.9149 11.4524 24.5987 11.7029 24.3655C11.9533 24.1323 12.2931 24.0013 12.6473 24.0013C13.0015 24.0013 13.3412 24.1323 13.5917 24.3655C13.8422 24.5987 13.9829 24.9149 13.9829 25.2447V27.7315C13.9829 27.8945 13.9483 28.056 13.8811 28.2065C13.8139 28.3571 13.7155 28.4938 13.5914 28.6089C13.4673 28.7239 13.32 28.815 13.158 28.8769C12.996 28.9389 12.8224 28.9704 12.6473 28.9697V28.9645Z" stroke="#333333" stroke-width="2" mask="url(#path-3-inside-1_2006_546)"/>
<path d="M22.6839 28.9645C22.5068 28.9645 22.3369 28.899 22.2117 28.7824C22.0864 28.6658 22.0161 28.5077 22.0161 28.3428V24.6217C22.0161 24.4568 22.0864 24.2987 22.2117 24.1821C22.3369 24.0655 22.5068 24 22.6839 24C22.861 24 23.0308 24.0655 23.1561 24.1821C23.2813 24.2987 23.3517 24.4568 23.3517 24.6217V28.3467C23.3517 28.5116 23.2813 28.6697 23.1561 28.7863C23.0308 28.9029 22.861 28.9684 22.6839 28.9684V28.9645Z" stroke="#333333" stroke-width="2" mask="url(#path-3-inside-1_2006_546)"/>
<path d="M25.3495 28.9645C25.1724 28.9645 25.0025 28.899 24.8773 28.7824C24.752 28.6658 24.6817 28.5077 24.6817 28.3428V24.6217C24.6817 24.4568 24.752 24.2987 24.8773 24.1821C25.0025 24.0655 25.1724 24 25.3495 24C25.5266 24 25.6965 24.0655 25.8217 24.1821C25.9469 24.2987 26.0173 24.4568 26.0173 24.6217V28.3467C26.0173 28.5116 25.9469 28.6697 25.8217 28.7863C25.6965 28.9029 25.5266 28.9684 25.3495 28.9684V28.9645Z" stroke="#333333" stroke-width="2" mask="url(#path-3-inside-1_2006_546)"/>
<path d="M28.6563 28.9645C28.3021 28.9645 27.9623 28.8335 27.7119 28.6003C27.4614 28.3671 27.3207 28.0509 27.3207 27.7211V25.2447C27.3207 24.9149 27.4614 24.5987 27.7119 24.3655C27.9623 24.1323 28.3021 24.0013 28.6563 24.0013C29.0105 24.0013 29.3502 24.1323 29.6007 24.3655C29.8512 24.5987 29.9919 24.9149 29.9919 25.2447V27.7315C29.9911 27.8941 29.956 28.055 29.8885 28.2049C29.821 28.3549 29.7224 28.491 29.5984 28.6055C29.4744 28.72 29.3273 28.8106 29.1657 28.8722C29.004 28.9338 28.8309 28.9652 28.6563 28.9645Z" stroke="#333333" stroke-width="2" mask="url(#path-3-inside-1_2006_546)"/>
<path d="M32.6645 28.9645C32.3103 28.9645 31.9705 28.8335 31.7201 28.6003C31.4696 28.3671 31.3289 28.0509 31.3289 27.7211V25.2447C31.3289 24.9149 31.4696 24.5987 31.7201 24.3655C31.9705 24.1323 32.3103 24.0013 32.6645 24.0013C33.0187 24.0013 33.3584 24.1323 33.6089 24.3655C33.8594 24.5987 34.0001 24.9149 34.0001 25.2447V27.7315C33.9993 27.8941 33.9642 28.055 33.8967 28.2049C33.8292 28.3549 33.7306 28.491 33.6066 28.6055C33.4826 28.72 33.3355 28.8106 33.1739 28.8722C33.0122 28.9338 32.8391 28.9652 32.6645 28.9645Z" stroke="#333333" stroke-width="2" mask="url(#path-3-inside-1_2006_546)"/>
<path d="M19.3197 28.9645C18.9655 28.9645 18.6257 28.8335 18.3753 28.6003C18.1248 28.3671 17.9841 28.0509 17.9841 27.7211V25.2447C17.9841 24.9149 18.1248 24.5987 18.3753 24.3655C18.6257 24.1323 18.9655 24.0013 19.3197 24.0013C19.6739 24.0013 20.0136 24.1323 20.2641 24.3655C20.5146 24.5987 20.6553 24.9149 20.6553 25.2447V27.7315C20.6545 27.8941 20.6194 28.055 20.5519 28.2049C20.4844 28.3549 20.3858 28.491 20.2618 28.6055C20.1378 28.72 19.9907 28.8106 19.8291 28.8722C19.6674 28.9338 19.4943 28.9652 19.3197 28.9645Z" stroke="#333333" stroke-width="2" mask="url(#path-3-inside-1_2006_546)"/>
</svg>
