<svg width="24" height="24" viewBox="0 0 24 24" fill="none" xmlns="http://www.w3.org/2000/svg">
<path d="M5 4.5H15C15.2761 4.5 15.5 4.72386 15.5 5V6H17V5C17 3.89543 16.1046 3 15 3H5C3.89543 3 3 3.89543 3 5V15C3 16.1046 3.89543 17 5 17H6V15.5H5C4.72386 15.5 4.5 15.2761 4.5 15V5C4.5 4.72386 4.72386 4.5 5 4.5Z" fill="#E52E40"/>
<path fill-rule="evenodd" clip-rule="evenodd" d="M19 8.5H9C8.72386 8.5 8.5 8.72386 8.5 9V19C8.5 19.2761 8.72386 19.5 9 19.5H19C19.2761 19.5 19.5 19.2761 19.5 19V9C19.5 8.72386 19.2761 8.5 19 8.5ZM9 7C7.89543 7 7 7.89543 7 9V19C7 20.1046 7.89543 21 9 21H19C20.1046 21 21 20.1046 21 19V9C21 7.89543 20.1046 7 19 7H9Z" fill="#E52E40"/>
<path fill-rule="evenodd" clip-rule="evenodd" d="M20 12H8V10.5H20V12Z" fill="#E52E40"/>
<path fill-rule="evenodd" clip-rule="evenodd" d="M20 15H8V13.5H20V15Z" fill="#E52E40"/>
<path fill-rule="evenodd" clip-rule="evenodd" d="M13 20V11H14.5V20H13Z" fill="#E52E40"/>
<path fill-rule="evenodd" clip-rule="evenodd" d="M20 18H8V16.5H20V18Z" fill="#E52E40"/>
</svg>
