<svg width="40" height="40" viewBox="0 0 40 40" fill="none" xmlns="http://www.w3.org/2000/svg">
<path d="M7.75 14.875C7.75 14.3918 7.35825 14 6.875 14C6.39175 14 6 14.3918 6 14.875V23.625C6 24.1082 6.39175 24.5 6.875 24.5C7.35825 24.5 7.75 24.1082 7.75 23.625V14.875Z" fill="#333333"/>
<path d="M11.25 14.875C11.25 14.3918 10.8583 14 10.375 14C9.89176 14 9.50001 14.3918 9.50001 14.875V23.625C9.50001 24.1082 9.89176 24.5 10.375 24.5C10.8583 24.5 11.25 24.1082 11.25 23.625V14.875Z" fill="#333333"/>
<path d="M16.5 15.75C16.5 14.7835 15.7165 14 14.75 14C13.7835 14 13 14.7835 13 15.75V22.75C13 23.7165 13.7835 24.5 14.75 24.5C15.7165 24.5 16.5 23.7165 16.5 22.75V15.75Z" fill="#333333"/>
<path d="M20 14.875C20 14.3918 19.6083 14 19.125 14C18.6418 14 18.25 14.3918 18.25 14.875V23.625C18.25 24.1082 18.6418 24.5 19.125 24.5C19.6083 24.5 20 24.1082 20 23.625V14.875Z" fill="#333333"/>
<path d="M33.9999 14.875C33.9999 14.3918 33.6082 14 33.1249 14C32.6417 14 32.2499 14.3918 32.2499 14.875V23.625C32.2499 24.1082 32.6417 24.5 33.1249 24.5C33.6082 24.5 33.9999 24.1082 33.9999 23.625V14.875Z" fill="#333333"/>
<path d="M25.2499 15.75C25.2499 14.7835 24.4664 14 23.4999 14C22.5334 14 21.7499 14.7835 21.7499 15.75V22.75C21.7499 23.7165 22.5334 24.5 23.4999 24.5C24.4664 24.5 25.2499 23.7165 25.2499 22.75V15.75Z" fill="#333333"/>
<path d="M30.4999 15.75C30.4999 14.7835 29.7164 14 28.7499 14C27.7834 14 26.9999 14.7835 26.9999 15.75V22.75C26.9999 23.7165 27.7834 24.5 28.7499 24.5C29.7164 24.5 30.4999 23.7165 30.4999 22.75V15.75Z" fill="#333333"/>
<path fill-rule="evenodd" clip-rule="evenodd" d="M32 2H8C4.68629 2 2 4.68629 2 8V32C2 35.3137 4.68629 38 8 38H32C35.3137 38 38 35.3137 38 32V8C38 4.68629 35.3137 2 32 2ZM8 0C3.58172 0 0 3.58172 0 8V32C0 36.4183 3.58172 40 8 40H32C36.4183 40 40 36.4183 40 32V8C40 3.58172 36.4183 0 32 0H8Z" fill="#333333"/>
</svg>
