<svg width="40" height="40" viewBox="0 0 40 40" fill="none" xmlns="http://www.w3.org/2000/svg">
<path fill-rule="evenodd" clip-rule="evenodd" d="M32 2H8C4.68629 2 2 4.68629 2 8V32C2 35.3137 4.68629 38 8 38H32C35.3137 38 38 35.3137 38 32V8C38 4.68629 35.3137 2 32 2ZM8 0C3.58172 0 0 3.58172 0 8V32C0 36.4183 3.58172 40 8 40H32C36.4183 40 40 36.4183 40 32V8C40 3.58172 36.4183 0 32 0H8Z" fill="#333333"/>
<path d="M17.3234 31.9937C17.5006 31.9937 17.6704 31.9146 17.7956 31.7738C17.9209 31.6331 17.9912 31.4422 17.9912 31.2431V26.7506C17.9912 26.5515 17.9209 26.3606 17.7956 26.2198C17.6704 26.0791 17.5006 26 17.3234 26C17.1463 26 16.9765 26.0791 16.8512 26.2198C16.726 26.3606 16.6556 26.5515 16.6556 26.7506V31.2478C16.6556 31.4469 16.726 31.6378 16.8512 31.7786C16.9765 31.9193 17.1463 31.9984 17.3234 31.9984V31.9937Z" fill="#333333"/>
<path d="M14.6578 31.9937C14.835 31.9937 15.0048 31.9146 15.13 31.7738C15.2553 31.6331 15.3256 31.4422 15.3256 31.2431V26.7506C15.3256 26.5515 15.2553 26.3606 15.13 26.2198C15.0048 26.0791 14.835 26 14.6578 26C14.4807 26 14.3109 26.0791 14.1856 26.2198C14.0604 26.3606 13.99 26.5515 13.99 26.7506V31.2478C13.99 31.4469 14.0604 31.6378 14.1856 31.7786C14.3109 31.9193 14.4807 31.9984 14.6578 31.9984V31.9937Z" fill="#333333"/>
<path d="M11.351 31.9937C11.7053 31.9937 12.045 31.8355 12.2955 31.554C12.5459 31.2725 12.6866 30.8907 12.6866 30.4925V27.5027C12.6866 27.1046 12.5459 26.7228 12.2955 26.4413C12.045 26.1597 11.7053 26.0016 11.351 26.0016C10.9968 26.0016 10.6571 26.1597 10.4066 26.4413C10.1562 26.7228 10.0154 27.1046 10.0154 27.5027V30.5051C10.0162 30.7014 10.0513 30.8956 10.1188 31.0767C10.1863 31.2577 10.2849 31.4221 10.4089 31.5603C10.533 31.6985 10.68 31.808 10.8416 31.8823C11.0033 31.9567 11.1764 31.9945 11.351 31.9937Z" fill="#333333"/>
<path d="M7.34284 31.9937C7.69707 31.9937 8.03678 31.8355 8.28725 31.554C8.53773 31.2725 8.67844 30.8907 8.67844 30.4925V27.5027C8.67844 27.1046 8.53773 26.7228 8.28725 26.4413C8.03678 26.1597 7.69707 26.0016 7.34284 26.0016C6.98862 26.0016 6.64891 26.1597 6.39843 26.4413C6.14796 26.7228 6.00724 27.1046 6.00724 27.5027V30.5051C6.00798 30.7014 6.04311 30.8956 6.11062 31.0767C6.17814 31.2577 6.27673 31.4221 6.40075 31.5603C6.52477 31.6985 6.6718 31.808 6.83345 31.8823C6.99509 31.9567 7.16818 31.9945 7.34284 31.9937Z" fill="#333333"/>
<path d="M33.3324 22.9937C33.5095 22.9937 33.6793 22.9146 33.8046 22.7739C33.9298 22.6331 34.0002 22.4422 34.0002 22.2431V17.7506C34.0002 17.5515 33.9298 17.3606 33.8046 17.2199C33.6793 17.0791 33.5095 17 33.3324 17C33.1553 17 32.9854 17.0791 32.8602 17.2199C32.7349 17.3606 32.6646 17.5515 32.6646 17.7506V22.2478C32.6646 22.4469 32.7349 22.6378 32.8602 22.7786C32.9854 22.9193 33.1553 22.9984 33.3324 22.9984V22.9937Z" fill="#333333"/>
<path d="M30.6682 22.9937C30.8453 22.9937 31.0151 22.9146 31.1404 22.7739C31.2656 22.6331 31.336 22.4422 31.336 22.2431V17.7506C31.336 17.5515 31.2656 17.3606 31.1404 17.2199C31.0151 17.0791 30.8453 17 30.6682 17C30.4911 17 30.3212 17.0791 30.196 17.2199C30.0707 17.3606 30.0004 17.5515 30.0004 17.7506V22.2478C30.0004 22.4469 30.0707 22.6378 30.196 22.7786C30.3212 22.9193 30.4911 22.9984 30.6682 22.9984V22.9937Z" fill="#333333"/>
<path d="M23.9958 22.9937C24.1729 22.9937 24.3427 22.9146 24.468 22.7739C24.5932 22.6331 24.6636 22.4422 24.6636 22.2431V17.7506C24.6636 17.5515 24.5932 17.3606 24.468 17.2199C24.3427 17.0791 24.1729 17 23.9958 17C23.8187 17 23.6488 17.0791 23.5236 17.2199C23.3983 17.3606 23.328 17.5515 23.328 17.7506V22.2478C23.328 22.4469 23.3983 22.6378 23.5236 22.7786C23.6488 22.9193 23.8187 22.9984 23.9958 22.9984V22.9937Z" fill="#333333"/>
<path d="M27.36 22.9937C27.7142 22.9937 28.0539 22.8355 28.3044 22.554C28.5549 22.2725 28.6956 21.8907 28.6956 21.4925V18.5028C28.6956 18.1046 28.5549 17.7228 28.3044 17.4413C28.0539 17.1597 27.7142 17.0016 27.36 17.0016C27.0057 17.0016 26.666 17.1597 26.4156 17.4413C26.1651 17.7228 26.0244 18.1046 26.0244 18.5028V21.5051C26.0244 21.702 26.059 21.8969 26.1261 22.0786C26.1933 22.2604 26.2918 22.4255 26.4159 22.5644C26.54 22.7033 26.6873 22.8133 26.8493 22.888C27.0113 22.9628 27.1848 23.0008 27.36 23V22.9937Z" fill="#333333"/>
<path d="M6.6678 22.9937C6.49069 22.9937 6.32083 22.9146 6.1956 22.7739C6.07036 22.6331 6 22.4422 6 22.2431V17.7506C6 17.5515 6.07036 17.3606 6.1956 17.2199C6.32083 17.0791 6.49069 17 6.6678 17C6.84492 17 7.01477 17.0791 7.14001 17.2199C7.26525 17.3606 7.3356 17.5515 7.3356 17.7506V22.2478C7.3356 22.4469 7.26525 22.6378 7.14001 22.7786C7.01477 22.9193 6.84492 22.9984 6.6678 22.9984V22.9937Z" fill="#333333"/>
<path d="M9.332 22.9937C9.15489 22.9937 8.98503 22.9146 8.8598 22.7739C8.73456 22.6331 8.6642 22.4422 8.6642 22.2431V17.7506C8.6642 17.5515 8.73456 17.3606 8.8598 17.2199C8.98503 17.0791 9.15489 17 9.332 17C9.50912 17 9.67897 17.0791 9.80421 17.2199C9.92945 17.3606 9.9998 17.5515 9.9998 17.7506V22.2478C9.9998 22.4469 9.92945 22.6378 9.80421 22.7786C9.67897 22.9193 9.50912 22.9984 9.332 22.9984V22.9937Z" fill="#333333"/>
<path d="M12.3332 22.9937C12.1561 22.9937 11.9862 22.9146 11.861 22.7739C11.7358 22.6331 11.6654 22.4422 11.6654 22.2431V17.7506C11.6654 17.5515 11.7358 17.3606 11.861 17.2199C11.9862 17.0791 12.1561 17 12.3332 17C12.5103 17 12.6802 17.0791 12.8054 17.2199C12.9306 17.3606 13.001 17.5515 13.001 17.7506V22.2478C13.001 22.4469 12.9306 22.6378 12.8054 22.7786C12.6802 22.9193 12.5103 22.9984 12.3332 22.9984V22.9937Z" fill="#333333"/>
<path d="M15.6644 22.9937C15.3102 22.9937 14.9705 22.8355 14.72 22.554C14.4695 22.2725 14.3288 21.8907 14.3288 21.4925V18.5028C14.3288 18.1046 14.4695 17.7228 14.72 17.4413C14.9705 17.1597 15.3102 17.0016 15.6644 17.0016C16.0186 17.0016 16.3583 17.1597 16.6088 17.4413C16.8593 17.7228 17 18.1046 17 18.5028V21.5051C17 21.702 16.9654 21.8969 16.8982 22.0786C16.831 22.2604 16.7326 22.4255 16.6085 22.5644C16.4844 22.7033 16.3371 22.8133 16.1751 22.888C16.0131 22.9628 15.8395 23.0008 15.6644 23V22.9937Z" fill="#333333"/>
<path d="M6.6678 13.9937C6.49068 13.9937 6.32083 13.9146 6.19559 13.7739C6.07035 13.6331 6 13.4422 6 13.2431V8.7506C6 8.55153 6.07035 8.36061 6.19559 8.21985C6.32083 8.07909 6.49068 8.00001 6.6678 8.00001C6.84491 8.00001 7.01477 8.07909 7.14 8.21985C7.26524 8.36061 7.3356 8.55153 7.3356 8.7506V13.2478C7.3356 13.4469 7.26524 13.6378 7.14 13.7786C7.01477 13.9193 6.84491 13.9984 6.6678 13.9984V13.9937Z" fill="#333333"/>
<path d="M9.332 13.9937C9.15488 13.9937 8.98503 13.9146 8.85979 13.7739C8.73455 13.6331 8.6642 13.4422 8.6642 13.2431V8.7506C8.6642 8.55153 8.73455 8.36061 8.85979 8.21985C8.98503 8.07909 9.15488 8.00001 9.332 8.00001C9.50911 8.00001 9.67897 8.07909 9.8042 8.21985C9.92944 8.36061 9.9998 8.55153 9.9998 8.7506V13.2478C9.9998 13.4469 9.92944 13.6378 9.8042 13.7786C9.67897 13.9193 9.50911 13.9984 9.332 13.9984V13.9937Z" fill="#333333"/>
<path d="M16.0044 13.9937C15.8273 13.9937 15.6574 13.9146 15.5322 13.7739C15.407 13.6331 15.3366 13.4422 15.3366 13.2431V8.7506C15.3366 8.55153 15.407 8.36061 15.5322 8.21985C15.6574 8.07909 15.8273 8.00001 16.0044 8.00001C16.1815 8.00001 16.3514 8.07909 16.4766 8.21985C16.6018 8.36061 16.6722 8.55153 16.6722 8.7506V13.2478C16.6722 13.4469 16.6018 13.6378 16.4766 13.7786C16.3514 13.9193 16.1815 13.9984 16.0044 13.9984V13.9937Z" fill="#333333"/>
<path d="M12.6402 13.9937C12.286 13.9937 11.9463 13.8355 11.6958 13.554C11.4453 13.2725 11.3046 12.8907 11.3046 12.4925V9.50276C11.3046 9.10462 11.4453 8.72279 11.6958 8.44127C11.9463 8.15974 12.286 8.00158 12.6402 8.00158C12.9944 8.00158 13.3341 8.15974 13.5846 8.44127C13.8351 8.72279 13.9758 9.10462 13.9758 9.50276V12.5051C13.9758 12.702 13.9412 12.8969 13.874 13.0786C13.8068 13.2604 13.7084 13.4255 13.5843 13.5644C13.4602 13.7033 13.3129 13.8133 13.1509 13.888C12.9889 13.9628 12.8153 14.0008 12.6402 14V13.9937Z" fill="#333333"/>
<path d="M18.6678 13.9937C18.4907 13.9937 18.3208 13.9146 18.1956 13.7739C18.0704 13.6331 18 13.4422 18 13.2431V8.7506C18 8.55153 18.0704 8.36061 18.1956 8.21985C18.3208 8.07909 18.4907 8.00001 18.6678 8.00001C18.8449 8.00001 19.0148 8.07909 19.14 8.21985C19.2652 8.36061 19.3356 8.55153 19.3356 8.7506V13.2478C19.3356 13.4469 19.2652 13.6378 19.14 13.7786C19.0148 13.9193 18.8449 13.9984 18.6678 13.9984V13.9937Z" fill="#333333"/>
<path d="M26.6678 31.9937C26.4907 31.9937 26.3208 31.9146 26.1956 31.7738C26.0703 31.6331 26 31.4422 26 31.2431V26.7506C26 26.5515 26.0703 26.3606 26.1956 26.2198C26.3208 26.0791 26.4907 26 26.6678 26C26.8449 26 27.0148 26.0791 27.14 26.2198C27.2652 26.3606 27.3356 26.5515 27.3356 26.7506V31.2478C27.3356 31.4469 27.2652 31.6378 27.14 31.7786C27.0148 31.9193 26.8449 31.9984 26.6678 31.9984V31.9937Z" fill="#333333"/>
<path d="M29.332 31.9937C29.1549 31.9937 28.985 31.9146 28.8598 31.7738C28.7345 31.6331 28.6642 31.4422 28.6642 31.2431V26.7506C28.6642 26.5515 28.7345 26.3606 28.8598 26.2198C28.985 26.0791 29.1549 26 29.332 26C29.5091 26 29.679 26.0791 29.8042 26.2198C29.9294 26.3606 29.9998 26.5515 29.9998 26.7506V31.2478C29.9998 31.4469 29.9294 31.6378 29.8042 31.7786C29.679 31.9193 29.5091 31.9984 29.332 31.9984V31.9937Z" fill="#333333"/>
<path d="M32.6402 31.9937C32.286 31.9937 31.9463 31.8355 31.6958 31.554C31.4453 31.2725 31.3046 30.8907 31.3046 30.4925V27.5027C31.3046 27.1046 31.4453 26.7228 31.6958 26.4413C31.9463 26.1597 32.286 26.0016 32.6402 26.0016C32.9944 26.0016 33.3341 26.1597 33.5846 26.4413C33.8351 26.7228 33.9758 27.1046 33.9758 27.5027V30.5051C33.9758 30.7019 33.9412 30.8968 33.874 31.0786C33.8068 31.2604 33.7084 31.4255 33.5843 31.5644C33.4602 31.7033 33.3129 31.8133 33.1509 31.888C32.9889 31.9628 32.8153 32.0008 32.6402 32V31.9937Z" fill="#333333"/>
<path d="M23.3355 31.9937C22.9813 31.9937 22.6415 31.8355 22.3911 31.554C22.1406 31.2725 21.9999 30.8907 21.9999 30.4925V27.5027C21.9999 27.1046 22.1406 26.7228 22.3911 26.4413C22.6415 26.1597 22.9813 26.0016 23.3355 26.0016C23.6897 26.0016 24.0294 26.1597 24.2799 26.4413C24.5304 26.7228 24.6711 27.1046 24.6711 27.5027V30.5051C24.6711 30.7019 24.6365 30.8968 24.5693 31.0786C24.5021 31.2604 24.4036 31.4255 24.2795 31.5644C24.1555 31.7033 24.0082 31.8133 23.8462 31.888C23.6842 31.9628 23.5106 32.0008 23.3355 32V31.9937Z" fill="#333333"/>
<path d="M25.3497 13.9937C25.1726 13.9937 25.0027 13.9146 24.8775 13.7738C24.7522 13.6331 24.6819 13.4422 24.6819 13.2431V8.75059C24.6819 8.55152 24.7522 8.36061 24.8775 8.21984C25.0027 8.07908 25.1726 8 25.3497 8C25.5268 8 25.6967 8.07908 25.8219 8.21984C25.9471 8.36061 26.0175 8.55152 26.0175 8.75059V13.2478C26.0175 13.4469 25.9471 13.6378 25.8219 13.7786C25.6967 13.9193 25.5268 13.9984 25.3497 13.9984V13.9937Z" fill="#333333"/>
<path d="M28.6565 13.9937C28.3023 13.9937 27.9625 13.8355 27.7121 13.554C27.4616 13.2725 27.3209 12.8907 27.3209 12.4925V9.50275C27.3209 9.10461 27.4616 8.72278 27.7121 8.44126C27.9625 8.15973 28.3023 8.00158 28.6565 8.00158C29.0107 8.00158 29.3504 8.15973 29.6009 8.44126C29.8514 8.72278 29.9921 9.10461 29.9921 9.50275V12.5051C29.9913 12.7014 29.9562 12.8956 29.8887 13.0767C29.8212 13.2577 29.7226 13.4221 29.5986 13.5603C29.4746 13.6985 29.3275 13.808 29.1659 13.8823C29.0042 13.9567 28.8311 13.9945 28.6565 13.9937Z" fill="#333333"/>
<path d="M32.6647 13.9937C32.3105 13.9937 31.9707 13.8355 31.7203 13.554C31.4698 13.2725 31.3291 12.8907 31.3291 12.4925V9.50275C31.3291 9.10461 31.4698 8.72278 31.7203 8.44126C31.9707 8.15973 32.3105 8.00158 32.6647 8.00158C33.0189 8.00158 33.3586 8.15973 33.6091 8.44126C33.8596 8.72278 34.0003 9.10461 34.0003 9.50275V12.5051C33.9995 12.7014 33.9644 12.8956 33.8969 13.0767C33.8294 13.2577 33.7308 13.4221 33.6068 13.5603C33.4828 13.6985 33.3357 13.808 33.1741 13.8823C33.0124 13.9567 32.8393 13.9945 32.6647 13.9937Z" fill="#333333"/>
</svg>
