<svg width="40" height="40" viewBox="0 0 40 40" fill="none" xmlns="http://www.w3.org/2000/svg">
<path fill-rule="evenodd" clip-rule="evenodd" d="M8.57143 1.90476C4.88953 1.90476 1.90476 4.88953 1.90476 8.57143V31.4286C1.90476 35.1105 4.88953 38.0952 8.57143 38.0952H15.796L13.6123 35.9115C13.2403 35.5396 13.2403 34.9366 13.6123 34.5647C13.9842 34.1927 14.5872 34.1927 14.9591 34.5647L18.7687 38.3742C19.0411 38.6466 19.1225 39.0562 18.9751 39.4121C18.8277 39.768 18.4804 40 18.0952 40H8.57143C3.83756 40 0 36.1624 0 31.4286V8.57143C0 3.83756 3.83756 0 8.57143 0H18.0952C18.6212 0 19.0476 0.426395 19.0476 0.952381C19.0476 1.47837 18.6212 1.90476 18.0952 1.90476H8.57143Z" fill="#333333"/>
<path fill-rule="evenodd" clip-rule="evenodd" d="M31.4286 38.0952C35.1105 38.0952 38.0952 35.1105 38.0952 31.4286V8.57143C38.0952 4.88953 35.1105 1.90476 31.4286 1.90476H24.204L26.3877 4.08847C26.7597 4.4604 26.7597 5.06341 26.3877 5.43534C26.0158 5.80727 25.4128 5.80727 25.0409 5.43534L21.2313 1.62582C20.9589 1.35344 20.8775 0.943798 21.0249 0.587921C21.1723 0.23204 21.5196 0 21.9048 0H31.4286C36.1624 0 40 3.83756 40 8.57143V31.4286C40 36.1624 36.1624 40 31.4286 40H21.9048C21.3788 40 20.9524 39.5736 20.9524 39.0476C20.9524 38.5216 21.3788 38.0952 21.9048 38.0952H31.4286Z" fill="#333333"/>
<path d="M7.75 15.875C7.75 15.3918 7.35825 15 6.875 15C6.39175 15 6 15.3918 6 15.875V24.625C6 25.1082 6.39175 25.5 6.875 25.5C7.35825 25.5 7.75 25.1082 7.75 24.625V15.875Z" fill="#333333"/>
<path d="M11.25 15.875C11.25 15.3918 10.8583 15 10.375 15C9.89176 15 9.50001 15.3918 9.50001 15.875V24.625C9.50001 25.1082 9.89176 25.5 10.375 25.5C10.8583 25.5 11.25 25.1082 11.25 24.625V15.875Z" fill="#333333"/>
<path d="M16.5 16.75C16.5 15.7835 15.7165 15 14.75 15C13.7835 15 13 15.7835 13 16.75V23.75C13 24.7165 13.7835 25.5 14.75 25.5C15.7165 25.5 16.5 24.7165 16.5 23.75V16.75Z" fill="#333333"/>
<path d="M20 15.875C20 15.3918 19.6083 15 19.125 15C18.6418 15 18.25 15.3918 18.25 15.875V24.625C18.25 25.1082 18.6418 25.5 19.125 25.5C19.6083 25.5 20 25.1082 20 24.625V15.875Z" fill="#333333"/>
<path d="M33.9999 15.875C33.9999 15.3918 33.6082 15 33.1249 15C32.6417 15 32.2499 15.3918 32.2499 15.875V24.625C32.2499 25.1082 32.6417 25.5 33.1249 25.5C33.6082 25.5 33.9999 25.1082 33.9999 24.625V15.875Z" fill="#333333"/>
<path d="M25.2499 16.75C25.2499 15.7835 24.4664 15 23.4999 15C22.5334 15 21.7499 15.7835 21.7499 16.75V23.75C21.7499 24.7165 22.5334 25.5 23.4999 25.5C24.4664 25.5 25.2499 24.7165 25.2499 23.75V16.75Z" fill="#333333"/>
<path d="M30.4999 16.75C30.4999 15.7835 29.7164 15 28.7499 15C27.7834 15 26.9999 15.7835 26.9999 16.75V23.75C26.9999 24.7165 27.7834 25.5 28.7499 25.5C29.7164 25.5 30.4999 24.7165 30.4999 23.75V16.75Z" fill="#333333"/>
</svg>
