<svg width="24" height="24" viewBox="0 0 24 24" fill="none" xmlns="http://www.w3.org/2000/svg">
<path d="M14.6 22.0015H4.9C4.39609 22.0015 3.91282 21.8013 3.5565 21.445C3.20018 21.0886 3 20.6054 3 20.1015V8.90146C3 8.39755 3.20018 7.91428 3.5565 7.55796C3.91282 7.20164 4.39609 7.00147 4.9 7.00147H7.5V5.60147C7.48877 4.86306 7.7635 4.14891 8.26672 3.60841C8.76994 3.06791 9.46267 2.74294 10.2 2.70147C10.4375 2.71102 10.6747 2.67714 10.9 2.60147C11.1515 2.10579 11.5391 1.69204 12.0172 1.40868C12.4954 1.12531 13.0444 0.98406 13.6 1.00147H15C15.5531 0.996686 16.0971 1.14322 16.573 1.42523C17.0488 1.70723 17.4386 2.11397 17.7 2.60147C17.9375 2.59191 18.1747 2.6258 18.4 2.70147C19.1205 2.76451 19.7901 3.09925 20.2729 3.63779C20.7558 4.17633 21.0157 4.87835 21 5.60147V16.0015C21.0073 16.3974 20.9347 16.7908 20.7866 17.1581C20.6384 17.5254 20.4177 17.8591 20.1376 18.1391C19.8576 18.4192 19.524 18.6399 19.1567 18.788C18.7894 18.9362 18.396 19.0088 18 19.0015H16.5V20.1015C16.5085 20.3533 16.4652 20.6041 16.3727 20.8385C16.2802 21.0729 16.1406 21.2857 15.9624 21.4639C15.7843 21.642 15.5714 21.7817 15.337 21.8742C15.1027 21.9666 14.8518 22.01 14.6 22.0015ZM4.9 8.50147C4.79623 8.50848 4.69851 8.55288 4.62496 8.62643C4.55142 8.69998 4.50702 8.79769 4.5 8.90146V20.1015C4.50702 20.2052 4.55142 20.303 4.62496 20.3765C4.69851 20.45 4.79623 20.4944 4.9 20.5015H14.7C14.8038 20.4944 14.9015 20.45 14.975 20.3765C15.0486 20.303 15.093 20.2052 15.1 20.1015V8.90146C15.0571 8.79805 14.9888 8.70715 14.9014 8.63721C14.814 8.56728 14.7103 8.52058 14.6 8.50147H4.9ZM16.5 17.5015H18C18.3948 17.4918 18.7707 17.3307 19.05 17.0515C19.3292 16.7722 19.4904 16.3963 19.5 16.0015V5.60147C19.5071 5.42405 19.479 5.24699 19.4174 5.08046C19.3559 4.91393 19.262 4.76122 19.1411 4.63111C19.0203 4.50101 18.875 4.39607 18.7135 4.32233C18.552 4.24859 18.3774 4.20752 18.2 4.20147H18C17.9485 4.56247 17.7683 4.89275 17.4928 5.13158C17.2172 5.37041 16.8647 5.50175 16.5 5.50147H12C11.6203 5.49765 11.2557 5.35185 10.9781 5.09275C10.7005 4.83365 10.53 4.48002 10.5 4.10147H10.3C9.93899 4.15301 9.60872 4.33312 9.36989 4.6087C9.13105 4.88428 8.99971 5.2368 9 5.60147V7.00147H14.6C14.8495 7.00147 15.0966 7.05061 15.3271 7.14609C15.5576 7.24158 15.7671 7.38153 15.9435 7.55796C16.1199 7.73439 16.2599 7.94385 16.3554 8.17437C16.4509 8.40489 16.5 8.65195 16.5 8.90146V17.5015ZM12.1 3.60147C12.0205 3.7188 11.985 3.86051 12 4.00147H16.5C16.515 3.86051 16.4795 3.7188 16.4 3.60147C16.2974 3.31129 16.1081 3.05969 15.8576 2.8808C15.6072 2.70191 15.3078 2.60439 15 2.60147H13.5C13.182 2.55045 12.8567 2.62681 12.5947 2.814C12.3326 3.00119 12.1549 3.28412 12.1 3.60147ZM6.8 18.3015C6.58783 18.3015 6.38434 18.2172 6.23431 18.0672C6.08429 17.9171 6 17.7136 6 17.5015C6 17.2893 6.08429 17.0858 6.23431 16.9358C6.38434 16.7858 6.58783 16.7015 6.8 16.7015C7.01217 16.7015 7.21566 16.7858 7.36569 16.9358C7.51571 17.0858 7.6 17.2893 7.6 17.5015C7.6 17.7136 7.51571 17.9171 7.36569 18.0672C7.21566 18.2172 7.01217 18.3015 6.8 18.3015ZM12.8 18.3015H9C8.89453 18.3029 8.78984 18.2833 8.69211 18.2436C8.59438 18.2039 8.5056 18.145 8.43102 18.0704C8.35643 17.9959 8.29756 17.9071 8.25788 17.8094C8.2182 17.7116 8.19852 17.6069 8.2 17.5015C8.19016 17.3939 8.2041 17.2856 8.24083 17.1841C8.27755 17.0825 8.33616 16.9903 8.41251 16.914C8.48885 16.8376 8.58106 16.779 8.68259 16.7423C8.78412 16.7056 8.89248 16.6916 9 16.7015H12.8C13.0122 16.7015 13.2157 16.7858 13.3657 16.9358C13.5157 17.0858 13.6 17.2893 13.6 17.5015C13.6 17.7136 13.5157 17.9171 13.3657 18.0672C13.2157 18.2172 13.0122 18.3015 12.8 18.3015ZM6.8 15.3015C6.58783 15.3015 6.38434 15.2172 6.23431 15.0672C6.08429 14.9171 6 14.7136 6 14.5015C6 14.2893 6.08429 14.0858 6.23431 13.9358C6.38434 13.7858 6.58783 13.7015 6.8 13.7015C7.01217 13.7015 7.21566 13.7858 7.36569 13.9358C7.51571 14.0858 7.6 14.2893 7.6 14.5015C7.6 14.7136 7.51571 14.9171 7.36569 15.0672C7.21566 15.2172 7.01217 15.3015 6.8 15.3015ZM12.8 15.3015H9C8.89453 15.3029 8.78984 15.2833 8.69211 15.2436C8.59438 15.2039 8.5056 15.145 8.43102 15.0704C8.35643 14.9959 8.29756 14.9071 8.25788 14.8094C8.2182 14.7116 8.19852 14.6069 8.2 14.5015C8.19016 14.3939 8.2041 14.2856 8.24083 14.1841C8.27755 14.0825 8.33616 13.9903 8.41251 13.914C8.48885 13.8376 8.58106 13.779 8.68259 13.7423C8.78412 13.7056 8.89248 13.6916 9 13.7015H12.8C13.0122 13.7015 13.2157 13.7858 13.3657 13.9358C13.5157 14.0858 13.6 14.2893 13.6 14.5015C13.6 14.7136 13.5157 14.9171 13.3657 15.0672C13.2157 15.2172 13.0122 15.3015 12.8 15.3015ZM6.8 12.3015C6.58783 12.3015 6.38434 12.2172 6.23431 12.0672C6.08429 11.9171 6 11.7136 6 11.5015C6 11.2893 6.08429 11.0858 6.23431 10.9358C6.38434 10.7858 6.58783 10.7015 6.8 10.7015C6.90506 10.7015 7.00909 10.7222 7.10615 10.7624C7.20321 10.8026 7.2914 10.8615 7.36569 10.9358C7.43997 11.0101 7.4989 11.0983 7.5391 11.1953C7.57931 11.2924 7.6 11.3964 7.6 11.5015C7.6 11.6065 7.57931 11.7106 7.5391 11.8076C7.4989 11.9047 7.43997 11.9929 7.36569 12.0672C7.2914 12.1414 7.20321 12.2004 7.10615 12.2406C7.00909 12.2808 6.90506 12.3015 6.8 12.3015ZM12.8 12.3015H9C8.89453 12.3029 8.78984 12.2833 8.69211 12.2436C8.59438 12.2039 8.5056 12.145 8.43102 12.0704C8.35643 11.9959 8.29756 11.9071 8.25788 11.8094C8.2182 11.7116 8.19852 11.6069 8.2 11.5015C8.19016 11.3939 8.2041 11.2856 8.24083 11.1841C8.27755 11.0825 8.33616 10.9903 8.41251 10.914C8.48885 10.8376 8.58106 10.779 8.68259 10.7423C8.78412 10.7056 8.89248 10.6916 9 10.7015H12.8C12.9051 10.7015 13.0091 10.7222 13.1061 10.7624C13.2032 10.8026 13.2914 10.8615 13.3657 10.9358C13.44 11.0101 13.4989 11.0983 13.5391 11.1953C13.5793 11.2924 13.6 11.3964 13.6 11.5015C13.6 11.6065 13.5793 11.7106 13.5391 11.8076C13.4989 11.9047 13.44 11.9929 13.3657 12.0672C13.2914 12.1414 13.2032 12.2004 13.1061 12.2406C13.0091 12.2808 12.9051 12.3015 12.8 12.3015Z" fill="#E52E40"/>
</svg>
