<svg width="40" height="40" viewBox="0 0 40 40" fill="none" xmlns="http://www.w3.org/2000/svg">
<path d="M28 1C28 0.447715 28.4477 0 29 0H34C37.3137 0 40 2.68629 40 6V11C40 11.5523 39.5523 12 39 12C38.4477 12 38 11.5523 38 11V6C38 3.79086 36.2091 2 34 2H29C28.4477 2 28 1.55228 28 1Z" fill="#333333"/>
<path d="M12 1C12 0.447715 11.5523 0 11 0H6C2.68629 0 0 2.68629 0 6V11C0 11.5523 0.447715 12 1 12C1.55228 12 2 11.5523 2 11V6C2 3.79086 3.79086 2 6 2H11C11.5523 2 12 1.55228 12 1Z" fill="#333333"/>
<path d="M28 39C28 39.5523 28.4477 40 29 40H34C37.3137 40 40 37.3137 40 34V29C40 28.4477 39.5523 28 39 28C38.4477 28 38 28.4477 38 29V34C38 36.2091 36.2091 38 34 38H29C28.4477 38 28 38.4477 28 39Z" fill="#333333"/>
<path d="M12 39C12 39.5523 11.5523 40 11 40H6C2.68629 40 0 37.3137 0 34V29C0 28.4477 0.447715 28 1 28C1.55228 28 2 28.4477 2 29V34C2 36.2091 3.79086 38 6 38H11C11.5523 38 12 38.4477 12 39Z" fill="#333333"/>
<path d="M32 25.625V14.375C32 14.2433 31.9604 14.114 31.8851 14C31.8098 13.886 31.7016 13.7913 31.5713 13.7255L20.4244 8.10048C20.2941 8.03465 20.1462 8 19.9957 8C19.8452 8 19.6973 8.03465 19.567 8.10048L8.42872 13.7255C8.29838 13.7913 8.19014 13.886 8.11488 14C8.03962 14.114 8 14.2433 8 14.375V25.625C8 25.7567 8.03962 25.886 8.11488 26C8.19014 26.114 8.29838 26.2087 8.42872 26.2745L19.5756 31.8995C19.7059 31.9653 19.8538 32 20.0043 32C20.1548 32 20.3027 31.9653 20.433 31.8995L31.5798 26.2745C31.7086 26.2077 31.8151 26.1127 31.8888 25.9987C31.9625 25.8848 32.0009 25.7559 32 25.625ZM19.9957 9.61548L29.4276 14.375L19.9957 19.1345L10.5723 14.375L19.9957 9.61548ZM9.7149 15.674L19.1383 20.4335V29.951L9.7149 25.1915V15.674ZM20.8532 29.951V20.4335L30.2851 15.674V25.1915L20.8532 29.951Z" fill="#333333"/>
</svg>
