<svg width="40" height="40" viewBox="0 0 40 40" fill="none" xmlns="http://www.w3.org/2000/svg">
<path fill-rule="evenodd" clip-rule="evenodd" d="M32 2H8C4.68629 2 2 4.68629 2 8V32C2 35.3137 4.68629 38 8 38H32C35.3137 38 38 35.3137 38 32V8C38 4.68629 35.3137 2 32 2ZM8 0C3.58172 0 0 3.58172 0 8V32C0 36.4183 3.58172 40 8 40H32C36.4183 40 40 36.4183 40 32V8C40 3.58172 36.4183 0 32 0H8Z" fill="#333333"/>
<path fill-rule="evenodd" clip-rule="evenodd" d="M15 11.75C13.2119 11.75 11.75 13.2119 11.75 15C11.75 16.7881 13.2119 18.25 15 18.25C16.7881 18.25 18.25 16.7881 18.25 15C18.25 13.2119 16.7881 11.75 15 11.75ZM13.75 15C13.75 14.3131 14.3131 13.75 15 13.75C15.6869 13.75 16.25 14.3131 16.25 15C16.25 15.6869 15.6869 16.25 15 16.25C14.3131 16.25 13.75 15.6869 13.75 15Z" fill="#333333"/>
<path d="M31.4506 16.9025L33.7071 18.8723C34.068 19.1873 34.0998 19.7293 33.778 20.0827C33.4562 20.4362 32.9028 20.4673 32.5418 20.1522L30.2829 18.1803L30.2804 18.1781C29.9535 17.8906 29.5778 17.7362 29.1964 17.7162C28.7629 17.6934 28.3221 17.8443 27.9374 18.1706L21.8261 23.3661C20.6359 24.3746 19.028 24.5254 17.6945 23.7236L17.6869 23.7191L16.3248 22.8811C15.7148 22.5151 15.0092 22.5364 14.4196 22.9392L7.38317 27.8412C6.98916 28.1157 6.44251 28.0254 6.1622 27.6396C5.88188 27.2538 5.97405 26.7185 6.36806 26.444L13.4129 21.5362C14.5728 20.7411 16.0361 20.6938 17.2457 21.4227L17.2525 21.4268L18.6142 22.2645C19.2762 22.6607 20.049 22.6042 20.6788 22.0706L26.7894 16.8758C28.1669 15.7067 30.083 15.7005 31.4506 16.9025Z" fill="#333333"/>
</svg>
