<svg width="40" height="40" viewBox="0 0 40 40" fill="none" xmlns="http://www.w3.org/2000/svg">
<path fill-rule="evenodd" clip-rule="evenodd" d="M32 2H8C4.68629 2 2 4.68629 2 8V32C2 35.3137 4.68629 38 8 38H32C35.3137 38 38 35.3137 38 32V8C38 4.68629 35.3137 2 32 2ZM8 0C3.58172 0 0 3.58172 0 8V32C0 36.4183 3.58172 40 8 40H32C36.4183 40 40 36.4183 40 32V8C40 3.58172 36.4183 0 32 0H8Z" fill="#333333"/>
<path d="M11.5718 27.0282C11.2008 26.6573 10.5993 26.6573 10.2283 27.0282L8.8283 28.4282C8.4573 28.7992 8.4573 29.4008 8.8283 29.7718L10.2283 31.1718C10.5993 31.5427 11.2008 31.5427 11.5718 31.1718C11.9428 30.8008 11.9428 30.1992 11.5718 29.8282L10.8436 29.1L11.5718 28.3718C11.9428 28.0008 11.9428 27.3992 11.5718 27.0282Z" fill="#333333"/>
<path d="M6.7 26.75C6.17533 26.75 5.75 27.1753 5.75 27.7V30.5C5.75 31.0247 6.17533 31.45 6.7 31.45C7.22467 31.45 7.65 31.0247 7.65 30.5V27.7C7.65 27.1753 7.22467 26.75 6.7 26.75Z" fill="#333333"/>
<path d="M12.75 30.5C12.75 31.0247 13.1753 31.45 13.7 31.45C14.2247 31.45 14.65 31.0247 14.65 30.5V27.7C14.65 27.1753 14.2247 26.75 13.7 26.75C13.1753 26.75 12.75 27.1753 12.75 27.7V30.5Z" fill="#333333"/>
<path d="M15.55 30.5C15.55 31.0247 15.9754 31.45 16.5 31.45C17.0247 31.45 17.45 31.0247 17.45 30.5V27.7C17.45 27.1753 17.0247 26.75 16.5 26.75C15.9754 26.75 15.55 27.1753 15.55 27.7V30.5Z" fill="#333333"/>
<path d="M21.3718 27.0282C21.0009 26.6573 20.3993 26.6573 20.0283 27.0282L18.6283 28.4282C18.2573 28.7992 18.2573 29.4008 18.6283 29.7718L20.0283 31.1718C20.3993 31.5427 21.0009 31.5427 21.3718 31.1718C21.7428 30.8008 21.7428 30.1992 21.3718 29.8282L20.6436 29.1L21.3718 28.3718C21.7428 28.0008 21.7428 27.3992 21.3718 27.0282Z" fill="#333333"/>
<path d="M23.5 26.75C22.9754 26.75 22.55 27.1753 22.55 27.7V30.5C22.55 31.0247 22.9754 31.45 23.5 31.45C24.0247 31.45 24.45 31.0247 24.45 30.5V27.7C24.45 27.1753 24.0247 26.75 23.5 26.75Z" fill="#333333"/>
<path d="M26.3001 26.75C25.7754 26.75 25.3501 27.1753 25.3501 27.7V30.5C25.3501 31.0247 25.7754 31.45 26.3001 31.45C26.8248 31.45 27.2501 31.0247 27.2501 30.5V27.7C27.2501 27.1753 26.8248 26.75 26.3001 26.75Z" fill="#333333"/>
<path d="M29.0999 26.75C28.5752 26.75 28.1499 27.1753 28.1499 27.7V30.5C28.1499 31.0247 28.5752 31.45 29.0999 31.45C29.6246 31.45 30.0499 31.0247 30.0499 30.5V27.7C30.0499 27.1753 29.6246 26.75 29.0999 26.75Z" fill="#333333"/>
<path d="M33.9717 27.0282C33.6007 26.6573 32.9992 26.6573 32.6282 27.0282L31.2282 28.4282C30.8572 28.7992 30.8572 29.4008 31.2282 29.7718L32.6282 31.1718C32.9992 31.5427 33.6007 31.5427 33.9717 31.1718C34.3427 30.8008 34.3427 30.1992 33.9717 29.8282L33.2435 29.1L33.9717 28.3718C34.3427 28.0008 34.3427 27.3992 33.9717 27.0282Z" fill="#333333"/>
<path fill-rule="evenodd" clip-rule="evenodd" d="M14 7.75C11.6528 7.75 9.75 9.65279 9.75 12C9.75 14.1038 11.2787 15.8506 13.2858 16.1903C10.1704 16.5446 7.75 19.1896 7.75 22.3999C7.75 22.8693 8.13056 23.2499 8.6 23.2499C9.06944 23.2499 9.45 22.8693 9.45 22.3999C9.45 19.887 11.4871 17.8499 14 17.8499C16.5129 17.8499 18.55 19.887 18.55 22.3999C18.55 22.8693 18.9306 23.2499 19.4 23.2499C19.8694 23.2499 20.25 22.8693 20.25 22.3999C20.25 19.1896 17.8296 16.5446 14.7142 16.1903C16.7213 15.8506 18.25 14.1038 18.25 12C18.25 9.65279 16.3472 7.75 14 7.75ZM11.5833 12C11.5833 10.6653 12.6653 9.58333 14 9.58333C15.3347 9.58333 16.4167 10.6653 16.4167 12C16.4167 13.3347 15.3347 14.4167 14 14.4167C12.6653 14.4167 11.5833 13.3347 11.5833 12Z" fill="#333333"/>
<path d="M24 9C24 8.44772 24.4477 8 25 8H33C33.5523 8 34 8.44772 34 9C34 9.55228 33.5523 10 33 10H25C24.4477 10 24 9.55228 24 9Z" fill="#333333"/>
<path d="M25 12C24.4477 12 24 12.4477 24 13C24 13.5523 24.4477 14 25 14H29C29.5523 14 30 13.5523 30 13C30 12.4477 29.5523 12 29 12H25Z" fill="#333333"/>
<path d="M25 20C24.4477 20 24 20.4477 24 21C24 21.5523 24.4477 22 25 22H29C29.5523 22 30 21.5523 30 21C30 20.4477 29.5523 20 29 20H25Z" fill="#333333"/>
<path d="M25 16C24.4477 16 24 16.4477 24 17C24 17.5523 24.4477 18 25 18H33C33.5523 18 34 17.5523 34 17C34 16.4477 33.5523 16 33 16H25Z" fill="#333333"/>
</svg>
