<svg width="20" height="20" viewBox="0 0 20 20" fill="none" xmlns="http://www.w3.org/2000/svg">
<mask id="mask0_2007_30" style="mask-type:luminance" maskUnits="userSpaceOnUse" x="0" y="0" width="20" height="20">
<path d="M20 0H0V20H20V0Z" fill="white"/>
</mask>
<g mask="url(#mask0_2007_30)">
<path d="M10 0C8.02219 0 6.08879 0.58649 4.4443 1.6853C2.79981 2.78412 1.51809 4.3459 0.761209 6.17317C0.00433284 8.00043 -0.193701 10.0111 0.192152 11.9509C0.578004 13.8907 1.53041 15.6725 2.92894 17.0711C4.32746 18.4696 6.10929 19.422 8.0491 19.8079C9.98891 20.1937 11.9996 19.9957 13.8268 19.2388C15.6541 18.4819 17.2159 17.2002 18.3147 15.5557C19.4135 13.9112 20 11.9778 20 10C20 7.34784 18.9464 4.8043 17.0711 2.92893C15.1957 1.05357 12.6522 0 10 0ZM10 18C8.41775 18 6.87104 17.5308 5.55544 16.6518C4.23985 15.7727 3.21447 14.5233 2.60897 13.0615C2.00347 11.5997 1.84504 9.99113 2.15372 8.43928C2.4624 6.88743 3.22433 5.46197 4.34315 4.34315C5.46197 3.22433 6.88743 2.4624 8.43928 2.15372C9.99113 1.84504 11.5997 2.00346 13.0615 2.60896C14.5233 3.21446 15.7727 4.23984 16.6518 5.55544C17.5308 6.87103 18 8.41775 18 10C18 12.1217 17.1572 14.1566 15.6569 15.6569C14.1566 17.1571 12.1217 18 10 18Z" fill="#333333"/>
<path d="M10 15C9.73478 15 9.48043 14.8946 9.29289 14.7071C9.10536 14.5196 9 14.2652 9 14V10C9 9.73478 9.10536 9.48043 9.29289 9.29289C9.48043 9.10536 9.73478 9 10 9C10.2652 9 10.5196 9.10536 10.7071 9.29289C10.8946 9.48043 11 9.73478 11 10V14C11 14.2652 10.8946 14.5196 10.7071 14.7071C10.5196 14.8946 10.2652 15 10 15Z" fill="#333333"/>
<path d="M10 7C9.80222 7 9.60888 6.94135 9.44443 6.83147C9.27998 6.72159 9.15181 6.56541 9.07612 6.38268C9.00043 6.19996 8.98063 5.99889 9.01922 5.80491C9.0578 5.61093 9.15304 5.43275 9.29289 5.29289C9.43275 5.15304 9.61093 5.0578 9.80491 5.01922C9.99889 4.98063 10.2 5.00043 10.3827 5.07612C10.5654 5.15181 10.7216 5.27998 10.8315 5.44443C10.9414 5.60888 11 5.80222 11 6C11 6.26522 10.8946 6.51957 10.7071 6.70711C10.5196 6.89464 10.2652 7 10 7Z" fill="#333333"/>
</g>
</svg>
