<svg width="20" height="14" viewBox="0 0 20 14" fill="none" xmlns="http://www.w3.org/2000/svg">
<path d="M14.641 10.716C13.5813 10.716 12.5454 10.4018 11.6643 9.81302C10.7831 9.22427 10.0964 8.38747 9.69085 7.40842C9.28532 6.42937 9.17921 5.35206 9.38595 4.31271C9.59269 3.27336 10.103 2.31865 10.8523 1.56932C11.6017 0.819995 12.5564 0.309694 13.5957 0.102955C14.6351 -0.103785 15.7124 0.00232154 16.6914 0.407856C17.6705 0.81339 18.5073 1.50014 19.096 2.38126C19.6848 3.26238 19.999 4.29829 19.999 5.358C19.9977 6.77863 19.4327 8.14068 18.4282 9.14522C17.4237 10.1498 16.0616 10.7147 14.641 10.716ZM14.641 1.679C13.9134 1.6792 13.2022 1.89514 12.5973 2.29951C11.9925 2.70389 11.5211 3.27854 11.2428 3.9508C10.9645 4.62307 10.8917 5.36276 11.0338 6.07635C11.1759 6.78994 11.5263 7.44538 12.0409 7.9598C12.5555 8.47422 13.211 8.82451 13.9246 8.96638C14.6383 9.10826 15.3779 9.03534 16.0501 8.75686C16.7223 8.47838 17.2968 8.00683 17.701 7.40184C18.1053 6.79685 18.321 6.0856 18.321 5.358C18.3199 4.38242 17.9319 3.44712 17.2419 2.75737C16.552 2.06763 15.6166 1.6798 14.641 1.679Z" fill="#333333"/>
<path d="M16.422 7.613C16.2304 7.6127 16.0448 7.54669 15.896 7.426L14.116 6.017C14.0166 5.93861 13.9363 5.83864 13.8812 5.72464C13.8261 5.61064 13.7977 5.48561 13.798 5.359V3.494C13.798 3.27149 13.8864 3.05808 14.0437 2.90074C14.2011 2.7434 14.4145 2.655 14.637 2.655C14.8595 2.655 15.0729 2.7434 15.2303 2.90074C15.3876 3.05808 15.476 3.27149 15.476 3.494V4.957L16.944 6.116C17.0819 6.22379 17.1826 6.37201 17.2321 6.53991C17.2816 6.7078 17.2773 6.88696 17.2198 7.05229C17.1624 7.21763 17.0547 7.36087 16.9118 7.46195C16.7689 7.56303 16.598 7.6169 16.423 7.616L16.422 7.613Z" fill="#333333"/>
<path d="M0.839 1.679C0.616483 1.679 0.40308 1.59061 0.245737 1.43326C0.0883944 1.27592 0 1.06252 0 0.840002C0 0.617486 0.0883944 0.404083 0.245737 0.24674C0.40308 0.0893968 0.616483 0.00100243 0.839 0.00100243L8.351 0.00100243C8.57352 0.00100243 8.78692 0.0893968 8.94426 0.24674C9.10161 0.404083 9.19 0.617486 9.19 0.840002C9.19 1.06252 9.10161 1.27592 8.94426 1.43326C8.78692 1.59061 8.57352 1.679 8.351 1.679H0.839Z" fill="#333333"/>
<path d="M0.839 5.842C0.616483 5.842 0.40308 5.75361 0.245737 5.59626C0.0883944 5.43892 0 5.22552 0 5.003C0 4.78049 0.0883944 4.56708 0.245737 4.40974C0.40308 4.2524 0.616483 4.164 0.839 4.164H6.954C7.17652 4.164 7.38992 4.2524 7.54726 4.40974C7.70461 4.56708 7.793 4.78049 7.793 5.003C7.793 5.22552 7.70461 5.43892 7.54726 5.59626C7.38992 5.75361 7.17652 5.842 6.954 5.842H0.839Z" fill="#333333"/>
<path d="M0.839 10.001C0.616483 10.001 0.40308 9.91261 0.245737 9.75527C0.0883944 9.59792 0 9.38452 0 9.162C0 8.93949 0.0883944 8.72608 0.245737 8.56874C0.40308 8.4114 0.616483 8.323 0.839 8.323H8.014C8.23652 8.323 8.44992 8.4114 8.60726 8.56874C8.76461 8.72608 8.853 8.93949 8.853 9.162C8.853 9.38452 8.76461 9.59792 8.60726 9.75527C8.44992 9.91261 8.23652 10.001 8.014 10.001H0.839Z" fill="#333333"/>
<path d="M0.839 14.001C0.621366 13.9935 0.415154 13.9018 0.263851 13.7451C0.112547 13.5885 0.0279789 13.3793 0.0279789 13.1615C0.0279789 12.9437 0.112547 12.7345 0.263851 12.5779C0.415154 12.4213 0.621366 12.3295 0.839 12.322H17.142C17.3596 12.3295 17.5658 12.4213 17.7171 12.5779C17.8685 12.7345 17.953 12.9437 17.953 13.1615C17.953 13.3793 17.8685 13.5885 17.7171 13.7451C17.5658 13.9018 17.3596 13.9935 17.142 14.001H0.839Z" fill="#333333"/>
</svg>
