<svg width="21" height="21" viewBox="0 0 21 21" fill="none" xmlns="http://www.w3.org/2000/svg">
<path d="M14.25 0.75C14.25 0.473858 14.4739 0.25 14.75 0.25H17.25C18.9069 0.25 20.25 1.59315 20.25 3.25V5.75C20.25 6.02614 20.0261 6.25 19.75 6.25C19.4739 6.25 19.25 6.02614 19.25 5.75V3.25C19.25 2.14543 18.3546 1.25 17.25 1.25H14.75C14.4739 1.25 14.25 1.02614 14.25 0.75Z" fill="white"/>
<path d="M6.25 0.75C6.25 0.473858 6.02614 0.25 5.75 0.25H3.25C1.59315 0.25 0.25 1.59315 0.25 3.25V5.75C0.25 6.02614 0.473858 6.25 0.75 6.25C1.02614 6.25 1.25 6.02614 1.25 5.75V3.25C1.25 2.14543 2.14543 1.25 3.25 1.25H5.75C6.02614 1.25 6.25 1.02614 6.25 0.75Z" fill="white"/>
<path d="M14.25 19.75C14.25 20.0261 14.4739 20.25 14.75 20.25H17.25C18.9069 20.25 20.25 18.9069 20.25 17.25V14.75C20.25 14.4739 20.0261 14.25 19.75 14.25C19.4739 14.25 19.25 14.4739 19.25 14.75V17.25C19.25 18.3546 18.3546 19.25 17.25 19.25H14.75C14.4739 19.25 14.25 19.4739 14.25 19.75Z" fill="white"/>
<path d="M6.25 19.75C6.25 20.0261 6.02614 20.25 5.75 20.25H3.25C1.59315 20.25 0.25 18.9069 0.25 17.25V14.75C0.25 14.4739 0.473858 14.25 0.75 14.25C1.02614 14.25 1.25 14.4739 1.25 14.75V17.25C1.25 18.3546 2.14543 19.25 3.25 19.25H5.75C6.02614 19.25 6.25 19.4739 6.25 19.75Z" fill="white"/>
<path d="M14.25 0.75C14.25 0.473858 14.4739 0.25 14.75 0.25H17.25C18.9069 0.25 20.25 1.59315 20.25 3.25V5.75C20.25 6.02614 20.0261 6.25 19.75 6.25C19.4739 6.25 19.25 6.02614 19.25 5.75V3.25C19.25 2.14543 18.3546 1.25 17.25 1.25H14.75C14.4739 1.25 14.25 1.02614 14.25 0.75Z" stroke="white" stroke-width="0.5"/>
<path d="M6.25 0.75C6.25 0.473858 6.02614 0.25 5.75 0.25H3.25C1.59315 0.25 0.25 1.59315 0.25 3.25V5.75C0.25 6.02614 0.473858 6.25 0.75 6.25C1.02614 6.25 1.25 6.02614 1.25 5.75V3.25C1.25 2.14543 2.14543 1.25 3.25 1.25H5.75C6.02614 1.25 6.25 1.02614 6.25 0.75Z" stroke="white" stroke-width="0.5"/>
<path d="M14.25 19.75C14.25 20.0261 14.4739 20.25 14.75 20.25H17.25C18.9069 20.25 20.25 18.9069 20.25 17.25V14.75C20.25 14.4739 20.0261 14.25 19.75 14.25C19.4739 14.25 19.25 14.4739 19.25 14.75V17.25C19.25 18.3546 18.3546 19.25 17.25 19.25H14.75C14.4739 19.25 14.25 19.4739 14.25 19.75Z" stroke="white" stroke-width="0.5"/>
<path d="M6.25 19.75C6.25 20.0261 6.02614 20.25 5.75 20.25H3.25C1.59315 20.25 0.25 18.9069 0.25 17.25V14.75C0.25 14.4739 0.473858 14.25 0.75 14.25C1.02614 14.25 1.25 14.4739 1.25 14.75V17.25C1.25 18.3546 2.14543 19.25 3.25 19.25H5.75C6.02614 19.25 6.25 19.4739 6.25 19.75Z" stroke="white" stroke-width="0.5"/>
<path fill-rule="evenodd" clip-rule="evenodd" d="M3.27051 4.25C3.27051 3.69772 3.71822 3.25 4.27051 3.25H7.35531C7.90759 3.25 8.35531 3.69772 8.35531 4.25V7.32172C8.35531 7.874 7.90759 8.32172 7.35531 8.32172H4.27051C3.71822 8.32172 3.27051 7.87401 3.27051 7.32172V4.25ZM15.9535 16.2221C15.9535 16.084 16.0654 15.9721 16.2035 15.9721H17C17.1381 15.9721 17.25 16.084 17.25 16.2221V17C17.25 17.1381 17.1381 17.25 17 17.25H16.2035C16.0654 17.25 15.9535 17.1381 15.9535 17V16.2221ZM13.4618 15.7198C13.4618 15.8579 13.5737 15.9698 13.7118 15.9698H14.5083C14.6464 15.9698 14.7583 16.0817 14.7583 16.2198V16.9372C14.7583 17.0753 14.6464 17.1872 14.5083 17.1872H13.4618H13.4606H12.4152C12.2771 17.1872 12.1652 17.0753 12.1652 16.9372V14.9476C12.1652 14.8095 12.2771 14.6976 12.4152 14.6976H13.1707C13.3088 14.6976 13.4207 14.5857 13.4207 14.4476V13.6857C13.4207 13.5476 13.5327 13.4357 13.6707 13.4357H14.4479C14.586 13.4357 14.6979 13.3237 14.6979 13.1857V11.1698C14.6979 11.0317 14.8098 10.9198 14.9479 10.9198H15.7445C15.8825 10.9198 15.9945 11.0317 15.9945 11.1698V11.9066C15.9945 12.0447 16.1064 12.1566 16.2445 12.1566H16.9795C17.1176 12.1566 17.2295 12.2685 17.2295 12.4066V13.1845C17.2295 13.3226 17.1176 13.4345 16.9795 13.4345H16.2445C16.1064 13.4345 15.9945 13.5464 15.9945 13.6845V14.4624C15.9945 14.6005 15.8825 14.7124 15.7445 14.7124H14.7173H14.6979H13.7118C13.5737 14.7124 13.4618 14.8244 13.4618 14.9624V15.7198ZM9.61198 13.6651C9.61198 13.527 9.72391 13.4151 9.86198 13.4151H10.6175C10.7556 13.4151 10.8675 13.3032 10.8675 13.1651V12.3872C10.8675 12.2491 10.7556 12.1372 10.6175 12.1372H9.903C9.76492 12.1372 9.653 12.0253 9.653 11.8872V11.1093C9.653 10.9712 9.76492 10.8593 9.903 10.8593H10.6175C10.7556 10.8593 10.8675 10.7474 10.8675 10.6093V9.83138C10.8675 9.69331 10.7556 9.58138 10.6175 9.58138H9.88249C9.74442 9.58138 9.63249 9.69331 9.63249 9.83138V10.6093C9.63249 10.7474 9.52056 10.8593 9.38249 10.8593H8.5848C8.44673 10.8593 8.3348 10.7474 8.3348 10.6093V9.83138C8.3348 9.69331 8.44673 9.58138 8.5848 9.58138H9.36084C9.49891 9.58138 9.61084 9.46945 9.61084 9.33138V6.03643C9.61084 5.89836 9.72277 5.78643 9.86084 5.78643H10.6574C10.7955 5.78643 10.9074 5.89836 10.9074 6.03643V9.33024C10.9074 9.46831 11.0193 9.58024 11.1574 9.58024H11.9129C12.051 9.58024 12.1629 9.69217 12.1629 9.83024V10.6082C12.1629 10.7462 12.2749 10.8582 12.4129 10.8582H13.148C13.286 10.8582 13.398 10.7462 13.398 10.6082V9.83024C13.398 9.69217 13.5099 9.58024 13.648 9.58024H14.4445C14.5826 9.58024 14.6945 9.69217 14.6945 9.83024V10.6082C14.6945 10.7462 14.5826 10.8582 14.4445 10.8582H13.7118C13.5737 10.8582 13.4618 10.9701 13.4618 11.1082V11.8861C13.4618 12.0241 13.3498 12.1361 13.2118 12.1361H12.4152C12.2771 12.1361 12.1652 12.248 12.1652 12.3861V14.402C12.1652 14.54 12.0533 14.652 11.9152 14.652H11.1585C11.0205 14.652 10.9085 14.7639 10.9085 14.902V16.9384C10.9085 17.0765 10.7966 17.1884 10.6585 17.1884H9.86198C9.72391 17.1884 9.61198 17.0765 9.61198 16.9384V13.6651ZM15.9318 9.83024C15.9318 9.69217 16.0437 9.58024 16.1818 9.58024H16.9784C17.1164 9.58024 17.2284 9.69217 17.2284 9.83024V10.6082C17.2284 10.7462 17.1164 10.8582 16.9784 10.8582H16.1818C16.0437 10.8582 15.9318 10.7462 15.9318 10.6082V9.83024ZM5.80322 9.83024C5.80322 9.69217 5.91515 9.58024 6.05322 9.58024H6.84977C6.98784 9.58024 7.09977 9.69217 7.09977 9.83024V10.6082C7.09977 10.7462 6.98784 10.8582 6.84977 10.8582H6.05322C5.91515 10.8582 5.80322 10.7462 5.80322 10.6082V9.83024ZM3.27051 9.83024C3.27051 9.69217 3.38244 9.58024 3.52051 9.58024H4.31706C4.45513 9.58024 4.56706 9.69217 4.56706 9.83024V10.6082C4.56706 10.7462 4.45513 10.8582 4.31706 10.8582H3.52051C3.38244 10.8582 3.27051 10.7462 3.27051 10.6082V9.83024ZM9.61198 3.5C9.61198 3.36193 9.72391 3.25 9.86198 3.25H10.6585C10.7966 3.25 10.9085 3.36193 10.9085 3.5V4.27791C10.9085 4.41598 10.7966 4.52791 10.6585 4.52791H9.86198C9.72391 4.52791 9.61198 4.41598 9.61198 4.27791V3.5ZM3.25 13.1566C3.25 12.6043 3.69772 12.1566 4.25 12.1566H7.3348C7.88708 12.1566 8.3348 12.6043 8.3348 13.1566V16.2283C8.3348 16.7806 7.88708 17.2283 7.3348 17.2283H4.25C3.69772 17.2283 3.25 16.7806 3.25 16.2283V13.1566ZM4.48503 13.3889H7.09977V15.9972H4.48503V13.3889ZM12.1436 4.25C12.1436 3.69772 12.5913 3.25 13.1436 3.25H16.2284C16.7806 3.25 17.2284 3.69772 17.2284 4.25V7.32172C17.2284 7.874 16.7806 8.32172 16.2284 8.32172H13.1436C12.5913 8.32172 12.1436 7.87401 12.1436 7.32172V4.25ZM13.3797 4.48227H15.9945V7.09059H13.3797V4.48227ZM4.50553 4.48227H7.12028V7.09059H4.50553V4.48227Z" fill="white"/>
</svg>
