<svg width="13" height="16" viewBox="0 0 13 16" fill="none" xmlns="http://www.w3.org/2000/svg">
<path d="M5.85 15.75C5.5 15.75 5.17188 15.675 4.86563 15.525C4.55938 15.375 4.3 15.1625 4.0875 14.8875L0 9.69375L0.35625 9.31875C0.60625 9.05625 0.90625 8.9 1.25625 8.85C1.60625 8.8 1.93125 8.86875 2.23125 9.05625L3.61875 9.9V3.75C3.61875 3.5375 3.69063 3.35937 3.83438 3.21562C3.97813 3.07187 4.15625 3 4.36875 3C4.58125 3 4.7625 3.07187 4.9125 3.21562C5.0625 3.35937 5.1375 3.5375 5.1375 3.75V12.6L3.31875 11.475L5.26875 13.9688C5.34375 14.0563 5.43125 14.125 5.53125 14.175C5.63125 14.225 5.7375 14.25 5.85 14.25H9.99375C10.4063 14.25 10.7594 14.1031 11.0531 13.8094C11.3469 13.5156 11.4938 13.1625 11.4938 12.75V9.75C11.4938 9.5375 11.4219 9.35938 11.2781 9.21563C11.1344 9.07188 10.9563 9 10.7438 9H6.6375V7.5H10.7438C11.3688 7.5 11.9 7.71875 12.3375 8.15625C12.775 8.59375 12.9938 9.125 12.9938 9.75V12.75C12.9938 13.575 12.7 14.2813 12.1125 14.8688C11.525 15.4563 10.8188 15.75 9.99375 15.75H5.85ZM1.125 5.625C0.9625 5.35 0.8375 5.05313 0.75 4.73438C0.6625 4.41562 0.61875 4.0875 0.61875 3.75C0.61875 2.7125 0.984375 1.82812 1.71563 1.09687C2.44688 0.365625 3.33125 0 4.36875 0C5.40625 0 6.29063 0.365625 7.02188 1.09687C7.75313 1.82812 8.11875 2.7125 8.11875 3.75C8.11875 4.0875 8.075 4.41562 7.9875 4.73438C7.9 5.05313 7.775 5.35 7.6125 5.625L6.31875 4.875C6.41875 4.7 6.49375 4.52187 6.54375 4.34062C6.59375 4.15937 6.61875 3.9625 6.61875 3.75C6.61875 3.125 6.4 2.59375 5.9625 2.15625C5.525 1.71875 4.99375 1.5 4.36875 1.5C3.74375 1.5 3.2125 1.71875 2.775 2.15625C2.3375 2.59375 2.11875 3.125 2.11875 3.75C2.11875 3.9625 2.14375 4.15937 2.19375 4.34062C2.24375 4.52187 2.31875 4.7 2.41875 4.875L1.125 5.625Z" fill="white"/>
</svg>
