<svg width="24" height="24" viewBox="0 0 24 24" fill="none" xmlns="http://www.w3.org/2000/svg">
<g clip-path="url(#clip0_2001_17)">
<mask id="mask0_2001_17" style="mask-type:alpha" maskUnits="userSpaceOnUse" x="0" y="0" width="24" height="24">
<rect width="24" height="24" fill="#D9D9D9"/>
</mask>
<g mask="url(#mask0_2001_17)">
<path d="M7.88451 10.25C7.67201 10.25 7.49392 10.1781 7.35026 10.0342C7.20659 9.89042 7.13476 9.71225 7.13476 9.49975C7.13476 9.28708 7.20659 9.109 7.35026 8.9655C7.49392 8.82183 7.67201 8.75 7.88451 8.75H11.1538C11.3663 8.75 11.5444 8.82192 11.6883 8.96575C11.8319 9.10958 11.9038 9.28775 11.9038 9.50025C11.9038 9.71292 11.8319 9.891 11.6883 10.0345C11.5444 10.1782 11.3663 10.25 11.1538 10.25H7.88451ZM9.51926 15.6152C7.81009 15.6152 6.36359 15.0235 5.17976 13.84C3.99592 12.6565 3.40401 11.2103 3.40401 9.5015C3.40401 7.79283 3.99576 6.34617 5.17926 5.1615C6.36276 3.977 7.80892 3.38475 9.51776 3.38475C11.2264 3.38475 12.6731 3.97667 13.8578 5.1605C15.0423 6.34433 15.6345 7.79083 15.6345 9.5C15.6345 10.2142 15.5147 10.8963 15.275 11.5463C15.0352 12.1963 14.7153 12.7616 14.3153 13.2423L20.0693 18.9962C20.2078 19.1346 20.2786 19.3086 20.2818 19.5182C20.2849 19.7279 20.2141 19.9052 20.0693 20.05C19.9244 20.1948 19.7488 20.2673 19.5423 20.2673C19.3359 20.2673 19.1603 20.1948 19.0155 20.05L13.2615 14.296C12.7615 14.7088 12.1865 15.0319 11.5365 15.2653C10.8865 15.4986 10.2141 15.6152 9.51926 15.6152ZM9.51926 14.1155C10.8078 14.1155 11.8991 13.6683 12.7933 12.774C13.6876 11.8798 14.1348 10.7885 14.1348 9.5C14.1348 8.2115 13.6876 7.12017 12.7933 6.226C11.8991 5.33167 10.8078 4.8845 9.51926 4.8845C8.23076 4.8845 7.13942 5.33167 6.24526 6.226C5.35092 7.12017 4.90376 8.2115 4.90376 9.5C4.90376 10.7885 5.35092 11.8798 6.24526 12.774C7.13942 13.6683 8.23076 14.1155 9.51926 14.1155Z" fill="#F2F2F7"/>
</g>
</g>
<defs>
<clipPath id="clip0_2001_17">
<rect width="24" height="24" fill="white"/>
</clipPath>
</defs>
</svg>
